{"glyphs":{"0":{"ha":694,"x_min":174,"x_max":694,"o":"m 694 87 l 608 87 l 608 0 l 260 0 l 260 87 l 174 87 l 174 694 l 260 694 l 260 781 l 608 781 l 608 694 l 694 694 l 694 87 m 521 87 l 521 434 l 434 434 l 434 608 l 521 608 l 521 694 l 347 694 l 347 347 l 434 347 l 434 174 l 347 174 l 347 87 l 521 87 z "},"1":{"ha":694,"x_min":87,"x_max":521,"o":"m 521 0 l 347 0 l 347 521 l 87 521 l 87 608 l 260 608 l 260 694 l 347 694 l 347 781 l 521 781 l 521 0 z "},"2":{"ha":694,"x_min":87,"x_max":608,"o":"m 608 0 l 87 0 l 87 174 l 174 174 l 174 260 l 260 260 l 260 347 l 347 347 l 347 434 l 434 434 l 434 694 l 260 694 l 260 521 l 87 521 l 87 694 l 174 694 l 174 781 l 521 781 l 521 694 l 608 694 l 608 434 l 521 434 l 521 347 l 434 347 l 434 260 l 347 260 l 347 174 l 260 174 l 260 87 l 608 87 l 608 0 z "},"3":{"ha":694,"x_min":87,"x_max":608,"o":"m 608 87 l 521 87 l 521 0 l 174 0 l 174 87 l 87 87 l 87 260 l 260 260 l 260 87 l 434 87 l 434 347 l 260 347 l 260 434 l 434 434 l 434 694 l 260 694 l 260 521 l 87 521 l 87 694 l 174 694 l 174 781 l 521 781 l 521 694 l 608 694 l 608 434 l 521 434 l 521 347 l 608 347 l 608 87 z "},"4":{"ha":694,"x_min":87,"x_max":694,"o":"m 694 174 l 608 174 l 608 0 l 434 0 l 434 174 l 87 174 l 87 347 l 174 347 l 174 781 l 347 781 l 347 347 l 260 347 l 260 260 l 434 260 l 434 608 l 608 608 l 608 260 l 694 260 l 694 174 z "},"5":{"ha":694,"x_min":87,"x_max":608,"o":"m 608 174 l 521 174 l 521 87 l 434 87 l 434 0 l 87 0 l 87 87 l 347 87 l 347 174 l 434 174 l 434 347 l 87 347 l 87 781 l 608 781 l 608 694 l 260 694 l 260 434 l 521 434 l 521 347 l 608 347 l 608 174 z "},"6":{"ha":694,"x_min":87,"x_max":608,"o":"m 608 87 l 521 87 l 521 0 l 174 0 l 174 87 l 87 87 l 87 521 l 174 521 l 174 608 l 260 608 l 260 781 l 521 781 l 521 694 l 434 694 l 434 608 l 347 608 l 347 521 l 521 521 l 521 434 l 608 434 l 608 87 m 434 87 l 434 434 l 260 434 l 260 87 l 434 87 z "},"7":{"ha":694,"x_min":87,"x_max":608,"o":"m 608 608 l 521 608 l 521 434 l 434 434 l 434 260 l 347 260 l 347 0 l 174 0 l 174 260 l 260 260 l 260 434 l 347 434 l 347 608 l 434 608 l 434 694 l 87 694 l 87 781 l 608 781 l 608 608 z "},"8":{"ha":694,"x_min":87,"x_max":608,"o":"m 608 87 l 521 87 l 521 0 l 174 0 l 174 87 l 87 87 l 87 347 l 174 347 l 174 434 l 87 434 l 87 694 l 174 694 l 174 781 l 521 781 l 521 694 l 608 694 l 608 434 l 521 434 l 521 347 l 608 347 l 608 87 m 434 434 l 434 694 l 260 694 l 260 521 l 347 521 l 347 434 l 434 434 m 434 87 l 434 260 l 347 260 l 347 347 l 260 347 l 260 87 l 434 87 z "},"9":{"ha":694,"x_min":87,"x_max":608,"o":"m 608 260 l 521 260 l 521 174 l 434 174 l 434 0 l 174 0 l 174 87 l 260 87 l 260 174 l 347 174 l 347 260 l 174 260 l 174 347 l 87 347 l 87 694 l 174 694 l 174 781 l 521 781 l 521 694 l 608 694 l 608 260 m 434 347 l 434 694 l 260 694 l 260 347 l 434 347 z "},"\u0000":{"ha":694,"x_min":87,"x_max":608,"o":"m 87 781 l 608 781 l 608 0 l 87 0 l 87 781 z "},"\u0001":{"ha":694,"x_min":87,"x_max":608,"o":"m 87 781 l 608 781 l 608 0 l 87 0 l 87 781 z "},"\u0002":{"ha":694,"x_min":87,"x_max":694,"o":"m 87 608 l 694 608 l 694 -174 l 87 -174 l 87 608 m 521 0 l 521 87 l 608 87 l 608 174 l 521 174 l 521 260 l 608 260 l 608 347 l 521 347 l 521 434 l 174 434 l 174 0 l 521 0 m 174 781 l 87 781 l 87 955 l 174 955 l 174 781 l 347 781 l 347 694 l 174 694 l 174 781 m 521 781 l 434 781 l 434 955 l 521 955 l 521 781 l 694 781 l 694 694 l 521 694 l 521 781 m 174 1042 l 347 1042 l 347 955 l 174 955 l 174 1042 m 521 1042 l 694 1042 l 694 955 l 521 955 l 521 1042 m 347 260 l 347 347 l 434 347 l 434 260 l 347 260 m 347 87 l 347 174 l 434 174 l 434 87 l 347 87 z "},"\u0003":{"ha":694,"x_min":87,"x_max":694,"o":"m 87 608 l 694 608 l 694 -174 l 87 -174 l 87 608 m 347 87 l 347 347 l 434 347 l 434 260 l 608 260 l 608 347 l 521 347 l 521 434 l 260 434 l 260 347 l 174 347 l 174 87 l 260 87 l 260 0 l 521 0 l 521 87 l 608 87 l 608 174 l 434 174 l 434 87 l 347 87 m 174 781 l 87 781 l 87 955 l 174 955 l 174 781 l 347 781 l 347 694 l 174 694 l 174 781 m 521 781 l 434 781 l 434 955 l 521 955 l 521 781 l 694 781 l 694 694 l 521 694 l 521 781 m 174 1042 l 347 1042 l 347 955 l 174 955 l 174 1042 m 521 1042 l 694 1042 l 694 955 l 521 955 l 521 1042 z "},"\u0004":{"ha":694,"x_min":87,"x_max":608,"o":"m 87 781 l 608 781 l 608 0 l 87 0 l 87 781 z "},"\u0005":{"ha":694,"x_min":87,"x_max":608,"o":"m 87 781 l 608 781 l 608 0 l 87 0 l 87 781 z "},"\u0006":{"ha":694,"x_min":87,"x_max":608,"o":"m 87 781 l 608 781 l 608 0 l 87 0 l 87 781 z "},"\u0007":{"ha":694,"x_min":87,"x_max":608,"o":"m 87 781 l 608 781 l 608 0 l 87 0 l 87 781 z "},"\b":{"ha":694,"x_min":87,"x_max":608,"o":"m 87 781 l 608 781 l 608 0 l 87 0 l 87 781 z "},"\t":{"ha":694,"x_min":87,"x_max":608,"o":"m 87 781 l 608 781 l 608 0 l 87 0 l 87 781 z "},"\n":{"ha":694,"x_min":87,"x_max":608,"o":"m 87 781 l 608 781 l 608 0 l 87 0 l 87 781 z "},"\u000b":{"ha":694,"x_min":87,"x_max":608,"o":"m 87 781 l 608 781 l 608 0 l 87 0 l 87 781 z "},"\f":{"ha":694,"x_min":87,"x_max":608,"o":"m 87 781 l 608 781 l 608 0 l 87 0 l 87 781 z "},"\r":{"ha":694,"x_min":87,"x_max":608,"o":"m 87 781 l 608 781 l 608 0 l 87 0 l 87 781 z "},"\u000e":{"ha":694,"x_min":87,"x_max":608,"o":"m 87 781 l 608 781 l 608 0 l 87 0 l 87 781 z "},"\u000f":{"ha":694,"x_min":87,"x_max":694,"o":"m 87 608 l 694 608 l 694 -174 l 87 -174 l 87 608 m 608 347 l 521 347 l 521 434 l 260 434 l 260 347 l 174 347 l 174 87 l 260 87 l 260 0 l 521 0 l 521 87 l 608 87 l 608 347 m 174 781 l 87 781 l 87 955 l 174 955 l 174 781 l 347 781 l 347 694 l 174 694 l 174 781 m 521 781 l 434 781 l 434 955 l 521 955 l 521 781 l 694 781 l 694 694 l 521 694 l 521 781 m 347 87 l 347 347 l 434 347 l 434 87 l 347 87 m 521 1042 l 694 1042 l 694 955 l 521 955 l 521 1042 m 174 1042 l 347 1042 l 347 955 l 174 955 l 174 1042 z "},"\u0010":{"ha":694,"x_min":87,"x_max":608,"o":"m 87 781 l 608 781 l 608 0 l 87 0 l 87 781 z "},"\u0011":{"ha":694,"x_min":87,"x_max":608,"o":"m 87 781 l 608 781 l 608 0 l 87 0 l 87 781 z "},"\u0012":{"ha":694,"x_min":87,"x_max":608,"o":"m 87 781 l 608 781 l 608 0 l 87 0 l 87 781 z "},"\u0013":{"ha":694,"x_min":87,"x_max":608,"o":"m 87 781 l 608 781 l 608 0 l 87 0 l 87 781 z "},"\u0014":{"ha":694,"x_min":87,"x_max":608,"o":"m 87 781 l 608 781 l 608 0 l 87 0 l 87 781 z "},"\u0015":{"ha":694,"x_min":87,"x_max":608,"o":"m 87 781 l 608 781 l 608 0 l 87 0 l 87 781 z "},"\u0016":{"ha":694,"x_min":87,"x_max":694,"o":"m 87 608 l 694 608 l 694 -174 l 87 -174 l 87 608 m 608 0 l 608 174 l 521 174 l 521 260 l 608 260 l 608 347 l 521 347 l 521 434 l 174 434 l 174 0 l 347 0 l 347 174 l 434 174 l 434 0 l 608 0 m 347 260 l 347 347 l 434 347 l 434 260 l 347 260 m 174 781 l 87 781 l 87 955 l 174 955 l 174 781 l 347 781 l 347 694 l 174 694 l 174 781 m 521 781 l 434 781 l 434 955 l 521 955 l 521 781 l 694 781 l 694 694 l 521 694 l 521 781 m 174 1042 l 347 1042 l 347 955 l 174 955 l 174 1042 m 521 1042 l 694 1042 l 694 955 l 521 955 l 521 1042 z "},"\u0017":{"ha":694,"x_min":87,"x_max":608,"o":"m 87 781 l 608 781 l 608 0 l 87 0 l 87 781 z "},"\u0018":{"ha":694,"x_min":87,"x_max":608,"o":"m 87 781 l 608 781 l 608 0 l 87 0 l 87 781 z "},"\u0019":{"ha":694,"x_min":87,"x_max":608,"o":"m 87 781 l 608 781 l 608 0 l 87 0 l 87 781 z "},"\u001a":{"ha":694,"x_min":87,"x_max":608,"o":"m 87 781 l 608 781 l 608 0 l 87 0 l 87 781 z "},"\u001b":{"ha":694,"x_min":87,"x_max":608,"o":"m 87 781 l 608 781 l 608 0 l 87 0 l 87 781 z "},"\u001c":{"ha":694,"x_min":87,"x_max":608,"o":"m 87 781 l 608 781 l 608 0 l 87 0 l 87 781 z "},"\u001d":{"ha":694,"x_min":87,"x_max":608,"o":"m 87 781 l 608 781 l 608 0 l 87 0 l 87 781 z "},"\u001e":{"ha":694,"x_min":87,"x_max":608,"o":"m 87 781 l 608 781 l 608 0 l 87 0 l 87 781 z "},"\u001f":{"ha":694,"x_min":87,"x_max":694,"o":"m 87 608 l 694 608 l 694 -174 l 87 -174 l 87 608 m 347 434 l 174 434 l 174 87 l 260 87 l 260 0 l 521 0 l 521 87 l 608 87 l 608 434 l 434 434 l 434 87 l 347 87 l 347 347 l 347 434 m 174 781 l 87 781 l 87 955 l 174 955 l 174 781 l 347 781 l 347 694 l 174 694 l 174 781 m 521 781 l 434 781 l 434 955 l 521 955 l 521 781 l 694 781 l 694 694 l 521 694 l 521 781 m 174 1042 l 347 1042 l 347 955 l 174 955 l 174 1042 m 521 1042 l 694 1042 l 694 955 l 521 955 l 521 1042 z "}," ":{"ha":694,"x_min":0,"x_max":0,"o":""},"!":{"ha":694,"x_min":174,"x_max":521,"o":"m 521 434 l 434 434 l 434 260 l 260 260 l 260 434 l 174 434 l 174 694 l 260 694 l 260 781 l 434 781 l 434 694 l 521 694 l 521 434 m 434 0 l 260 0 l 260 174 l 434 174 l 434 0 z "},"\"":{"ha":694,"x_min":87,"x_max":608,"o":"m 608 521 l 434 521 l 434 781 l 608 781 l 608 521 m 260 521 l 87 521 l 87 781 l 260 781 l 260 521 z "},"#":{"ha":694,"x_min":87,"x_max":694,"o":"m 694 174 l 608 174 l 608 0 l 434 0 l 434 174 l 347 174 l 347 0 l 174 0 l 174 174 l 87 174 l 87 260 l 174 260 l 174 521 l 87 521 l 87 608 l 174 608 l 174 781 l 347 781 l 347 608 l 434 608 l 434 781 l 608 781 l 608 608 l 694 608 l 694 521 l 608 521 l 608 260 l 694 260 l 694 174 m 434 260 l 434 521 l 347 521 l 347 260 l 434 260 z "},"$":{"ha":694,"x_min":87,"x_max":608,"o":"m 608 87 l 521 87 l 521 0 l 434 0 l 434 -174 l 260 -174 l 260 0 l 174 0 l 174 87 l 87 87 l 87 174 l 260 174 l 260 87 l 434 87 l 434 260 l 347 260 l 347 347 l 260 347 l 260 434 l 174 434 l 174 521 l 87 521 l 87 694 l 174 694 l 174 781 l 260 781 l 260 955 l 434 955 l 434 781 l 521 781 l 521 694 l 608 694 l 608 608 l 434 608 l 434 694 l 260 694 l 260 521 l 347 521 l 347 434 l 434 434 l 434 347 l 521 347 l 521 260 l 608 260 l 608 87 z "},"%":{"ha":694,"x_min":0,"x_max":694,"o":"m 694 0 l 608 0 l 608 -87 l 347 -87 l 347 0 l 260 0 l 260 174 l 174 174 l 174 87 l 87 87 l 87 260 l 174 260 l 174 347 l 260 347 l 260 434 l 347 434 l 347 521 l 87 521 l 87 608 l 0 608 l 0 781 l 87 781 l 87 868 l 347 868 l 347 781 l 434 781 l 434 608 l 521 608 l 521 694 l 608 694 l 608 521 l 521 521 l 521 434 l 434 434 l 434 347 l 347 347 l 347 260 l 608 260 l 608 174 l 694 174 l 694 0 m 434 521 l 434 608 l 347 608 l 347 521 l 434 521 m 260 608 l 260 781 l 174 781 l 174 608 l 260 608 m 521 0 l 521 174 l 434 174 l 434 0 l 521 0 m 347 174 l 347 260 l 260 260 l 260 174 l 347 174 z "},"&":{"ha":694,"x_min":87,"x_max":694,"o":"m 694 0 l 521 0 l 521 87 l 434 87 l 434 0 l 174 0 l 174 87 l 87 87 l 87 434 l 174 434 l 174 521 l 87 521 l 87 694 l 174 694 l 174 781 l 434 781 l 434 694 l 521 694 l 521 521 l 434 521 l 434 434 l 260 434 l 260 87 l 434 87 l 434 260 l 347 260 l 347 347 l 694 347 l 694 260 l 608 260 l 608 87 l 694 87 l 694 0 m 347 521 l 347 694 l 260 694 l 260 521 l 347 521 z "},"'":{"ha":694,"x_min":260,"x_max":434,"o":"m 434 521 l 260 521 l 260 781 l 434 781 l 434 521 z "},"(":{"ha":694,"x_min":174,"x_max":521,"o":"m 521 -174 l 347 -174 l 347 -87 l 260 -87 l 260 87 l 174 87 l 174 521 l 260 521 l 260 694 l 347 694 l 347 781 l 521 781 l 521 694 l 434 694 l 434 521 l 347 521 l 347 87 l 434 87 l 434 -87 l 521 -87 l 521 -174 z "},")":{"ha":694,"x_min":174,"x_max":521,"o":"m 521 87 l 434 87 l 434 -87 l 347 -87 l 347 -174 l 174 -174 l 174 -87 l 260 -87 l 260 87 l 347 87 l 347 521 l 260 521 l 260 694 l 174 694 l 174 781 l 347 781 l 347 694 l 434 694 l 434 521 l 521 521 l 521 87 z "},"*":{"ha":694,"x_min":87,"x_max":694,"o":"m 694 347 l 521 347 l 521 260 l 608 260 l 608 174 l 434 174 l 434 260 l 347 260 l 347 174 l 174 174 l 174 260 l 260 260 l 260 347 l 87 347 l 87 434 l 260 434 l 260 521 l 174 521 l 174 608 l 347 608 l 347 521 l 434 521 l 434 608 l 608 608 l 608 521 l 521 521 l 521 434 l 694 434 l 694 347 z "},"+":{"ha":694,"x_min":87,"x_max":608,"o":"m 608 347 l 434 347 l 434 174 l 260 174 l 260 347 l 87 347 l 87 434 l 260 434 l 260 608 l 434 608 l 434 434 l 608 434 l 608 347 z "},",":{"ha":694,"x_min":260,"x_max":521,"o":"m 521 -87 l 434 -87 l 434 -174 l 260 -174 l 260 -87 l 347 -87 l 347 0 l 260 0 l 260 174 l 521 174 l 521 -87 z "},"-":{"ha":694,"x_min":87,"x_max":608,"o":"m 608 347 l 87 347 l 87 434 l 608 434 l 608 347 z "},".":{"ha":694,"x_min":260,"x_max":521,"o":"m 521 0 l 260 0 l 260 174 l 521 174 l 521 0 z "},"/":{"ha":694,"x_min":87,"x_max":608,"o":"m 608 608 l 521 608 l 521 434 l 434 434 l 434 260 l 347 260 l 347 87 l 260 87 l 260 -87 l 87 -87 l 87 87 l 174 87 l 174 260 l 260 260 l 260 434 l 347 434 l 347 608 l 434 608 l 434 781 l 608 781 l 608 608 z "},":":{"ha":694,"x_min":260,"x_max":521,"o":"m 521 434 l 260 434 l 260 608 l 521 608 l 521 434 m 521 0 l 260 0 l 260 174 l 521 174 l 521 0 z "},";":{"ha":694,"x_min":260,"x_max":521,"o":"m 521 434 l 260 434 l 260 608 l 521 608 l 521 434 m 521 -87 l 434 -87 l 434 -174 l 260 -174 l 260 -87 l 347 -87 l 347 0 l 260 0 l 260 174 l 521 174 l 521 -87 z "},"<":{"ha":694,"x_min":87,"x_max":608,"o":"m 608 0 l 434 0 l 434 87 l 347 87 l 347 174 l 260 174 l 260 260 l 174 260 l 174 347 l 87 347 l 87 434 l 174 434 l 174 521 l 260 521 l 260 608 l 347 608 l 347 694 l 434 694 l 434 781 l 608 781 l 608 694 l 521 694 l 521 608 l 434 608 l 434 521 l 347 521 l 347 434 l 260 434 l 260 347 l 347 347 l 347 260 l 434 260 l 434 174 l 521 174 l 521 87 l 608 87 l 608 0 z "},"=":{"ha":694,"x_min":87,"x_max":608,"o":"m 608 434 l 87 434 l 87 521 l 608 521 l 608 434 m 608 260 l 87 260 l 87 347 l 608 347 l 608 260 z "},">":{"ha":694,"x_min":87,"x_max":608,"o":"m 608 347 l 521 347 l 521 260 l 434 260 l 434 174 l 347 174 l 347 87 l 260 87 l 260 0 l 87 0 l 87 87 l 174 87 l 174 174 l 260 174 l 260 260 l 347 260 l 347 347 l 434 347 l 434 434 l 347 434 l 347 521 l 260 521 l 260 608 l 174 608 l 174 694 l 87 694 l 87 781 l 260 781 l 260 694 l 347 694 l 347 608 l 434 608 l 434 521 l 521 521 l 521 434 l 608 434 l 608 347 z "},"?":{"ha":694,"x_min":87,"x_max":608,"o":"m 608 521 l 521 521 l 521 434 l 434 434 l 434 260 l 260 260 l 260 434 l 347 434 l 347 521 l 434 521 l 434 694 l 260 694 l 260 521 l 87 521 l 87 694 l 174 694 l 174 781 l 521 781 l 521 694 l 608 694 l 608 521 m 434 0 l 260 0 l 260 174 l 434 174 l 434 0 z "},"@":{"ha":694,"x_min":0,"x_max":694,"o":"m 694 0 l 87 0 l 87 87 l 0 87 l 0 694 l 87 694 l 87 781 l 608 781 l 608 694 l 694 694 l 694 174 l 347 174 l 347 260 l 260 260 l 260 434 l 347 434 l 347 521 l 521 521 l 521 694 l 174 694 l 174 87 l 694 87 l 694 0 m 521 260 l 521 434 l 434 434 l 434 260 l 521 260 z "},"A":{"ha":694,"x_min":87,"x_max":608,"o":"m 608 0 l 434 0 l 434 260 l 260 260 l 260 0 l 87 0 l 87 608 l 174 608 l 174 694 l 260 694 l 260 781 l 434 781 l 434 694 l 521 694 l 521 608 l 608 608 l 608 0 m 434 347 l 434 608 l 260 608 l 260 347 l 434 347 z "},"B":{"ha":694,"x_min":87,"x_max":608,"o":"m 608 87 l 521 87 l 521 0 l 87 0 l 87 781 l 521 781 l 521 694 l 608 694 l 608 434 l 521 434 l 521 347 l 608 347 l 608 87 m 434 434 l 434 694 l 260 694 l 260 434 l 434 434 m 434 87 l 434 347 l 260 347 l 260 87 l 434 87 z "},"C":{"ha":694,"x_min":87,"x_max":608,"o":"m 608 87 l 521 87 l 521 0 l 174 0 l 174 87 l 87 87 l 87 694 l 174 694 l 174 781 l 521 781 l 521 694 l 608 694 l 608 521 l 434 521 l 434 694 l 260 694 l 260 87 l 434 87 l 434 260 l 608 260 l 608 87 z "},"D":{"ha":694,"x_min":87,"x_max":608,"o":"m 608 174 l 521 174 l 521 87 l 434 87 l 434 0 l 87 0 l 87 781 l 434 781 l 434 694 l 521 694 l 521 608 l 608 608 l 608 174 m 434 174 l 434 608 l 347 608 l 347 694 l 260 694 l 260 87 l 347 87 l 347 174 l 434 174 z "},"E":{"ha":694,"x_min":87,"x_max":608,"o":"m 608 0 l 87 0 l 87 781 l 608 781 l 608 694 l 260 694 l 260 434 l 521 434 l 521 347 l 260 347 l 260 87 l 608 87 l 608 0 z "},"F":{"ha":694,"x_min":87,"x_max":608,"o":"m 608 694 l 260 694 l 260 434 l 521 434 l 521 347 l 260 347 l 260 0 l 87 0 l 87 781 l 608 781 l 608 694 z "},"G":{"ha":694,"x_min":87,"x_max":608,"o":"m 608 0 l 174 0 l 174 87 l 87 87 l 87 694 l 174 694 l 174 781 l 521 781 l 521 694 l 608 694 l 608 521 l 434 521 l 434 694 l 260 694 l 260 87 l 434 87 l 434 260 l 347 260 l 347 347 l 608 347 l 608 0 z "},"H":{"ha":694,"x_min":87,"x_max":608,"o":"m 608 0 l 434 0 l 434 347 l 260 347 l 260 0 l 87 0 l 87 781 l 260 781 l 260 434 l 434 434 l 434 781 l 608 781 l 608 0 z "},"I":{"ha":694,"x_min":174,"x_max":521,"o":"m 521 0 l 174 0 l 174 87 l 260 87 l 260 694 l 174 694 l 174 781 l 521 781 l 521 694 l 434 694 l 434 87 l 521 87 l 521 0 z "},"J":{"ha":694,"x_min":87,"x_max":608,"o":"m 608 87 l 521 87 l 521 0 l 174 0 l 174 87 l 87 87 l 87 260 l 260 260 l 260 87 l 434 87 l 434 781 l 608 781 l 608 87 z "},"K":{"ha":694,"x_min":87,"x_max":608,"o":"m 608 0 l 434 0 l 434 174 l 347 174 l 347 347 l 260 347 l 260 0 l 87 0 l 87 781 l 260 781 l 260 434 l 347 434 l 347 608 l 434 608 l 434 781 l 608 781 l 608 608 l 521 608 l 521 434 l 434 434 l 434 347 l 521 347 l 521 174 l 608 174 l 608 0 z "},"L":{"ha":694,"x_min":87,"x_max":608,"o":"m 608 0 l 87 0 l 87 781 l 260 781 l 260 87 l 608 87 l 608 0 z "},"M":{"ha":694,"x_min":87,"x_max":694,"o":"m 694 0 l 521 0 l 521 521 l 434 521 l 434 260 l 347 260 l 347 521 l 260 521 l 260 0 l 87 0 l 87 781 l 260 781 l 260 608 l 347 608 l 347 521 l 434 521 l 434 608 l 521 608 l 521 781 l 694 781 l 694 0 z "},"N":{"ha":694,"x_min":87,"x_max":694,"o":"m 694 0 l 521 0 l 521 260 l 434 260 l 434 347 l 347 347 l 347 434 l 260 434 l 260 0 l 87 0 l 87 781 l 260 781 l 260 608 l 347 608 l 347 521 l 434 521 l 434 434 l 521 434 l 521 781 l 694 781 l 694 0 z "},"O":{"ha":694,"x_min":87,"x_max":608,"o":"m 608 87 l 521 87 l 521 0 l 174 0 l 174 87 l 87 87 l 87 694 l 174 694 l 174 781 l 521 781 l 521 694 l 608 694 l 608 87 m 434 87 l 434 694 l 260 694 l 260 87 l 434 87 z "},"P":{"ha":694,"x_min":87,"x_max":608,"o":"m 608 434 l 521 434 l 521 347 l 260 347 l 260 0 l 87 0 l 87 781 l 521 781 l 521 694 l 608 694 l 608 434 m 434 434 l 434 694 l 260 694 l 260 434 l 434 434 z "},"Q":{"ha":694,"x_min":87,"x_max":608,"o":"m 608 -174 l 434 -174 l 434 -87 l 347 -87 l 347 0 l 174 0 l 174 87 l 87 87 l 87 694 l 174 694 l 174 781 l 521 781 l 521 694 l 608 694 l 608 87 l 521 87 l 521 -87 l 608 -87 l 608 -174 m 434 87 l 434 694 l 260 694 l 260 87 l 434 87 z "},"R":{"ha":694,"x_min":87,"x_max":608,"o":"m 608 0 l 434 0 l 434 260 l 347 260 l 347 347 l 260 347 l 260 0 l 87 0 l 87 781 l 521 781 l 521 694 l 608 694 l 608 434 l 521 434 l 521 260 l 608 260 l 608 0 m 434 434 l 434 694 l 260 694 l 260 434 l 434 434 z "},"S":{"ha":694,"x_min":87,"x_max":608,"o":"m 608 87 l 521 87 l 521 0 l 174 0 l 174 87 l 87 87 l 87 174 l 260 174 l 260 87 l 434 87 l 434 260 l 347 260 l 347 347 l 260 347 l 260 434 l 174 434 l 174 521 l 87 521 l 87 694 l 174 694 l 174 781 l 521 781 l 521 694 l 608 694 l 608 608 l 434 608 l 434 694 l 260 694 l 260 521 l 347 521 l 347 434 l 434 434 l 434 347 l 521 347 l 521 260 l 608 260 l 608 87 z "},"T":{"ha":694,"x_min":87,"x_max":608,"o":"m 608 694 l 434 694 l 434 0 l 260 0 l 260 694 l 87 694 l 87 781 l 608 781 l 608 694 z "},"U":{"ha":694,"x_min":87,"x_max":608,"o":"m 608 87 l 521 87 l 521 0 l 174 0 l 174 87 l 87 87 l 87 781 l 260 781 l 260 87 l 434 87 l 434 781 l 608 781 l 608 87 z "},"V":{"ha":694,"x_min":87,"x_max":608,"o":"m 608 174 l 521 174 l 521 87 l 434 87 l 434 0 l 260 0 l 260 87 l 174 87 l 174 174 l 87 174 l 87 781 l 260 781 l 260 174 l 434 174 l 434 781 l 608 781 l 608 174 z "},"W":{"ha":694,"x_min":87,"x_max":694,"o":"m 694 260 l 608 260 l 608 0 l 434 0 l 434 260 l 347 260 l 347 0 l 174 0 l 174 260 l 87 260 l 87 781 l 260 781 l 260 260 l 347 260 l 347 521 l 434 521 l 434 260 l 521 260 l 521 781 l 694 781 l 694 260 z "},"X":{"ha":694,"x_min":87,"x_max":608,"o":"m 608 0 l 434 0 l 434 260 l 347 260 l 347 347 l 260 347 l 260 0 l 87 0 l 87 260 l 174 260 l 174 347 l 260 347 l 260 521 l 174 521 l 174 608 l 87 608 l 87 781 l 260 781 l 260 608 l 347 608 l 347 521 l 434 521 l 434 781 l 608 781 l 608 608 l 521 608 l 521 521 l 434 521 l 434 347 l 521 347 l 521 260 l 608 260 l 608 0 z "},"Y":{"ha":694,"x_min":87,"x_max":608,"o":"m 608 434 l 521 434 l 521 347 l 434 347 l 434 0 l 260 0 l 260 347 l 174 347 l 174 434 l 87 434 l 87 781 l 260 781 l 260 434 l 434 434 l 434 781 l 608 781 l 608 434 z "},"Z":{"ha":694,"x_min":87,"x_max":608,"o":"m 608 0 l 87 0 l 87 260 l 174 260 l 174 347 l 260 347 l 260 434 l 347 434 l 347 521 l 434 521 l 434 694 l 87 694 l 87 781 l 608 781 l 608 521 l 521 521 l 521 434 l 434 434 l 434 347 l 347 347 l 347 260 l 260 260 l 260 87 l 608 87 l 608 0 z "},"[":{"ha":694,"x_min":174,"x_max":521,"o":"m 521 -260 l 174 -260 l 174 781 l 521 781 l 521 694 l 347 694 l 347 -174 l 521 -174 l 521 -260 z "},"\\":{"ha":694,"x_min":87,"x_max":608,"o":"m 608 -87 l 434 -87 l 434 87 l 347 87 l 347 260 l 260 260 l 260 434 l 174 434 l 174 608 l 87 608 l 87 781 l 260 781 l 260 608 l 347 608 l 347 434 l 434 434 l 434 260 l 521 260 l 521 87 l 608 87 l 608 -87 z "},"]":{"ha":694,"x_min":174,"x_max":521,"o":"m 521 -260 l 174 -260 l 174 -174 l 347 -174 l 347 694 l 174 694 l 174 781 l 521 781 l 521 -260 z "},"^":{"ha":694,"x_min":87,"x_max":608,"o":"m 608 694 l 434 694 l 434 781 l 260 781 l 260 694 l 87 694 l 87 781 l 174 781 l 174 868 l 260 868 l 260 955 l 434 955 l 434 868 l 521 868 l 521 781 l 608 781 l 608 694 z "},"_":{"ha":694,"x_min":0,"x_max":694,"o":"m 694 -260 l 0 -260 l 0 -174 l 694 -174 l 694 -260 z "},"`":{"ha":694,"x_min":174,"x_max":521,"o":"m 521 694 l 347 694 l 347 781 l 260 781 l 260 868 l 174 868 l 174 955 l 434 955 l 434 781 l 521 781 l 521 694 z "},"a":{"ha":694,"x_min":87,"x_max":608,"o":"m 608 0 l 174 0 l 174 87 l 87 87 l 87 260 l 174 260 l 174 347 l 434 347 l 434 521 l 174 521 l 174 608 l 521 608 l 521 521 l 608 521 l 608 0 m 434 87 l 434 260 l 260 260 l 260 87 l 434 87 z "},"b":{"ha":694,"x_min":87,"x_max":608,"o":"m 608 87 l 521 87 l 521 0 l 87 0 l 87 781 l 260 781 l 260 608 l 521 608 l 521 521 l 608 521 l 608 87 m 434 87 l 434 521 l 260 521 l 260 87 l 434 87 z "},"c":{"ha":694,"x_min":87,"x_max":608,"o":"m 608 87 l 521 87 l 521 0 l 174 0 l 174 87 l 87 87 l 87 521 l 174 521 l 174 608 l 521 608 l 521 521 l 608 521 l 608 434 l 434 434 l 434 521 l 260 521 l 260 87 l 434 87 l 434 174 l 608 174 l 608 87 z "},"d":{"ha":694,"x_min":87,"x_max":608,"o":"m 608 0 l 174 0 l 174 87 l 87 87 l 87 521 l 174 521 l 174 608 l 434 608 l 434 781 l 608 781 l 608 0 m 434 87 l 434 521 l 260 521 l 260 87 l 434 87 z "},"e":{"ha":694,"x_min":87,"x_max":608,"o":"m 608 260 l 260 260 l 260 87 l 521 87 l 521 0 l 174 0 l 174 87 l 87 87 l 87 521 l 174 521 l 174 608 l 521 608 l 521 521 l 608 521 l 608 260 m 434 347 l 434 521 l 260 521 l 260 347 l 434 347 z "},"f":{"ha":694,"x_min":87,"x_max":608,"o":"m 608 347 l 347 347 l 347 0 l 174 0 l 174 347 l 87 347 l 87 434 l 174 434 l 174 694 l 260 694 l 260 781 l 608 781 l 608 694 l 347 694 l 347 434 l 608 434 l 608 347 z "},"g":{"ha":694,"x_min":87,"x_max":608,"o":"m 608 -174 l 521 -174 l 521 -260 l 87 -260 l 87 -174 l 434 -174 l 434 0 l 174 0 l 174 87 l 87 87 l 87 521 l 174 521 l 174 608 l 608 608 l 608 -174 m 434 87 l 434 521 l 260 521 l 260 87 l 434 87 z "},"h":{"ha":694,"x_min":87,"x_max":608,"o":"m 608 0 l 434 0 l 434 521 l 260 521 l 260 0 l 87 0 l 87 781 l 260 781 l 260 608 l 521 608 l 521 521 l 608 521 l 608 0 z "},"i":{"ha":694,"x_min":87,"x_max":608,"o":"m 434 694 l 260 694 l 260 868 l 434 868 l 434 694 m 608 0 l 87 0 l 87 87 l 260 87 l 260 521 l 87 521 l 87 608 l 434 608 l 434 87 l 608 87 l 608 0 z "},"j":{"ha":694,"x_min":87,"x_max":521,"o":"m 521 694 l 347 694 l 347 868 l 521 868 l 521 694 m 521 -174 l 434 -174 l 434 -260 l 87 -260 l 87 -174 l 347 -174 l 347 521 l 174 521 l 174 608 l 521 608 l 521 -174 z "},"k":{"ha":694,"x_min":87,"x_max":608,"o":"m 608 0 l 434 0 l 434 174 l 347 174 l 347 260 l 260 260 l 260 0 l 87 0 l 87 781 l 260 781 l 260 347 l 347 347 l 347 434 l 434 434 l 434 608 l 608 608 l 608 434 l 521 434 l 521 347 l 434 347 l 434 260 l 521 260 l 521 174 l 608 174 l 608 0 z "},"l":{"ha":694,"x_min":87,"x_max":608,"o":"m 608 0 l 87 0 l 87 87 l 260 87 l 260 694 l 87 694 l 87 781 l 434 781 l 434 87 l 608 87 l 608 0 z "},"m":{"ha":694,"x_min":87,"x_max":694,"o":"m 694 0 l 521 0 l 521 521 l 434 521 l 434 87 l 347 87 l 347 521 l 260 521 l 260 0 l 87 0 l 87 608 l 608 608 l 608 521 l 694 521 l 694 0 z "},"n":{"ha":694,"x_min":87,"x_max":608,"o":"m 608 0 l 434 0 l 434 521 l 260 521 l 260 0 l 87 0 l 87 608 l 521 608 l 521 521 l 608 521 l 608 0 z "},"o":{"ha":694,"x_min":87,"x_max":608,"o":"m 608 87 l 521 87 l 521 0 l 174 0 l 174 87 l 87 87 l 87 521 l 174 521 l 174 608 l 521 608 l 521 521 l 608 521 l 608 87 m 434 87 l 434 521 l 260 521 l 260 87 l 434 87 z "},"p":{"ha":694,"x_min":87,"x_max":608,"o":"m 608 87 l 521 87 l 521 0 l 260 0 l 260 -260 l 87 -260 l 87 608 l 521 608 l 521 521 l 608 521 l 608 87 m 434 87 l 434 521 l 260 521 l 260 87 l 434 87 z "},"q":{"ha":694,"x_min":87,"x_max":608,"o":"m 608 -260 l 434 -260 l 434 0 l 174 0 l 174 87 l 87 87 l 87 521 l 174 521 l 174 608 l 608 608 l 608 -260 m 434 87 l 434 521 l 260 521 l 260 87 l 434 87 z "},"r":{"ha":694,"x_min":87,"x_max":608,"o":"m 608 434 l 347 434 l 347 347 l 260 347 l 260 0 l 87 0 l 87 608 l 260 608 l 260 434 l 347 434 l 347 521 l 434 521 l 434 608 l 608 608 l 608 434 z "},"s":{"ha":694,"x_min":87,"x_max":608,"o":"m 608 87 l 521 87 l 521 0 l 87 0 l 87 87 l 434 87 l 434 260 l 174 260 l 174 347 l 87 347 l 87 521 l 174 521 l 174 608 l 608 608 l 608 521 l 260 521 l 260 347 l 521 347 l 521 260 l 608 260 l 608 87 z "},"t":{"ha":694,"x_min":87,"x_max":608,"o":"m 608 0 l 260 0 l 260 87 l 174 87 l 174 521 l 87 521 l 87 608 l 174 608 l 174 781 l 347 781 l 347 608 l 608 608 l 608 521 l 347 521 l 347 87 l 608 87 l 608 0 z "},"u":{"ha":694,"x_min":87,"x_max":608,"o":"m 608 0 l 174 0 l 174 87 l 87 87 l 87 608 l 260 608 l 260 87 l 434 87 l 434 608 l 608 608 l 608 0 z "},"v":{"ha":694,"x_min":87,"x_max":608,"o":"m 608 174 l 521 174 l 521 87 l 434 87 l 434 0 l 260 0 l 260 87 l 174 87 l 174 174 l 87 174 l 87 608 l 260 608 l 260 174 l 434 174 l 434 608 l 608 608 l 608 174 z "},"w":{"ha":694,"x_min":87,"x_max":694,"o":"m 694 174 l 608 174 l 608 0 l 434 0 l 434 174 l 347 174 l 347 0 l 174 0 l 174 174 l 87 174 l 87 608 l 260 608 l 260 174 l 347 174 l 347 521 l 434 521 l 434 174 l 521 174 l 521 608 l 694 608 l 694 174 z "},"x":{"ha":694,"x_min":87,"x_max":608,"o":"m 608 0 l 434 0 l 434 174 l 260 174 l 260 0 l 87 0 l 87 174 l 174 174 l 174 260 l 260 260 l 260 347 l 174 347 l 174 434 l 87 434 l 87 608 l 260 608 l 260 434 l 434 434 l 434 608 l 608 608 l 608 434 l 521 434 l 521 347 l 434 347 l 434 260 l 521 260 l 521 174 l 608 174 l 608 0 z "},"y":{"ha":694,"x_min":0,"x_max":608,"o":"m 608 87 l 521 87 l 521 -87 l 434 -87 l 434 -174 l 347 -174 l 347 -260 l 0 -260 l 0 -174 l 260 -174 l 260 -87 l 347 -87 l 347 0 l 174 0 l 174 87 l 87 87 l 87 608 l 260 608 l 260 87 l 434 87 l 434 608 l 608 608 l 608 87 z "},"z":{"ha":694,"x_min":87,"x_max":608,"o":"m 608 0 l 87 0 l 87 174 l 174 174 l 174 260 l 260 260 l 260 347 l 347 347 l 347 434 l 434 434 l 434 521 l 87 521 l 87 608 l 608 608 l 608 434 l 521 434 l 521 347 l 434 347 l 434 260 l 347 260 l 347 174 l 260 174 l 260 87 l 608 87 l 608 0 z "},"{":{"ha":694,"x_min":87,"x_max":521,"o":"m 521 -174 l 347 -174 l 347 -87 l 260 -87 l 260 174 l 174 174 l 174 260 l 87 260 l 87 347 l 174 347 l 174 434 l 260 434 l 260 694 l 347 694 l 347 781 l 521 781 l 521 694 l 434 694 l 434 434 l 347 434 l 347 347 l 260 347 l 260 260 l 347 260 l 347 174 l 434 174 l 434 -87 l 521 -87 l 521 -174 z "},"|":{"ha":694,"x_min":260,"x_max":434,"o":"m 434 -260 l 260 -260 l 260 781 l 434 781 l 434 -260 z "},"}":{"ha":694,"x_min":174,"x_max":608,"o":"m 608 260 l 521 260 l 521 174 l 434 174 l 434 -87 l 347 -87 l 347 -174 l 174 -174 l 174 -87 l 260 -87 l 260 174 l 347 174 l 347 260 l 434 260 l 434 347 l 347 347 l 347 434 l 260 434 l 260 694 l 174 694 l 174 781 l 347 781 l 347 694 l 434 694 l 434 434 l 521 434 l 521 347 l 608 347 l 608 260 z "},"~":{"ha":694,"x_min":0,"x_max":694,"o":"m 694 608 l 608 608 l 608 521 l 347 521 l 347 608 l 260 608 l 260 694 l 174 694 l 174 608 l 87 608 l 87 521 l 0 521 l 0 694 l 87 694 l 87 781 l 347 781 l 347 694 l 434 694 l 434 608 l 521 608 l 521 694 l 608 694 l 608 781 l 694 781 l 694 608 z "},"":{"ha":694,"x_min":87,"x_max":608,"o":"m 87 781 l 608 781 l 608 0 l 87 0 l 87 781 z "},"":{"ha":694,"x_min":87,"x_max":608,"o":"m 87 781 l 608 781 l 608 0 l 87 0 l 87 781 z "},"":{"ha":694,"x_min":87,"x_max":608,"o":"m 87 781 l 608 781 l 608 0 l 87 0 l 87 781 z "},"":{"ha":694,"x_min":87,"x_max":608,"o":"m 87 781 l 608 781 l 608 0 l 87 0 l 87 781 z "},"":{"ha":694,"x_min":87,"x_max":608,"o":"m 87 781 l 608 781 l 608 0 l 87 0 l 87 781 z "},"":{"ha":694,"x_min":87,"x_max":608,"o":"m 87 781 l 608 781 l 608 0 l 87 0 l 87 781 z "},"":{"ha":694,"x_min":87,"x_max":608,"o":"m 87 781 l 608 781 l 608 0 l 87 0 l 87 781 z "},"":{"ha":694,"x_min":87,"x_max":608,"o":"m 87 781 l 608 781 l 608 0 l 87 0 l 87 781 z "},"":{"ha":694,"x_min":87,"x_max":608,"o":"m 87 781 l 608 781 l 608 0 l 87 0 l 87 781 z "},"":{"ha":694,"x_min":87,"x_max":608,"o":"m 87 781 l 608 781 l 608 0 l 87 0 l 87 781 z "},"":{"ha":694,"x_min":87,"x_max":608,"o":"m 87 781 l 608 781 l 608 0 l 87 0 l 87 781 z "},"":{"ha":694,"x_min":87,"x_max":608,"o":"m 87 781 l 608 781 l 608 0 l 87 0 l 87 781 z "},"":{"ha":694,"x_min":87,"x_max":608,"o":"m 87 781 l 608 781 l 608 0 l 87 0 l 87 781 z "},"":{"ha":694,"x_min":87,"x_max":608,"o":"m 87 781 l 608 781 l 608 0 l 87 0 l 87 781 z "},"":{"ha":694,"x_min":87,"x_max":608,"o":"m 87 781 l 608 781 l 608 0 l 87 0 l 87 781 z "},"":{"ha":694,"x_min":87,"x_max":608,"o":"m 87 781 l 608 781 l 608 0 l 87 0 l 87 781 z "},"":{"ha":694,"x_min":87,"x_max":608,"o":"m 87 781 l 608 781 l 608 0 l 87 0 l 87 781 z "},"":{"ha":694,"x_min":87,"x_max":608,"o":"m 87 781 l 608 781 l 608 0 l 87 0 l 87 781 z "},"":{"ha":694,"x_min":260,"x_max":521,"o":"m 521 434 l 260 434 l 260 694 l 347 694 l 347 781 l 521 781 l 521 694 l 434 694 l 434 608 l 521 608 l 521 434 z "},"":{"ha":694,"x_min":260,"x_max":521,"o":"m 521 521 l 434 521 l 434 434 l 260 434 l 260 521 l 347 521 l 347 608 l 260 608 l 260 781 l 521 781 l 521 521 z "},"":{"ha":694,"x_min":87,"x_max":608,"o":"m 87 781 l 608 781 l 608 0 l 87 0 l 87 781 z "},"":{"ha":694,"x_min":87,"x_max":608,"o":"m 87 781 l 608 781 l 608 0 l 87 0 l 87 781 z "},"":{"ha":694,"x_min":87,"x_max":608,"o":"m 87 781 l 608 781 l 608 0 l 87 0 l 87 781 z "},"":{"ha":694,"x_min":87,"x_max":608,"o":"m 87 781 l 608 781 l 608 0 l 87 0 l 87 781 z "},"":{"ha":694,"x_min":87,"x_max":608,"o":"m 87 781 l 608 781 l 608 0 l 87 0 l 87 781 z "},"":{"ha":694,"x_min":87,"x_max":608,"o":"m 87 781 l 608 781 l 608 0 l 87 0 l 87 781 z "},"":{"ha":694,"x_min":87,"x_max":608,"o":"m 87 781 l 608 781 l 608 0 l 87 0 l 87 781 z "},"":{"ha":694,"x_min":87,"x_max":608,"o":"m 87 781 l 608 781 l 608 0 l 87 0 l 87 781 z "},"":{"ha":694,"x_min":87,"x_max":608,"o":"m 87 781 l 608 781 l 608 0 l 87 0 l 87 781 z "},"":{"ha":694,"x_min":87,"x_max":608,"o":"m 87 781 l 608 781 l 608 0 l 87 0 l 87 781 z "},"":{"ha":694,"x_min":87,"x_max":608,"o":"m 87 781 l 608 781 l 608 0 l 87 0 l 87 781 z "},"":{"ha":694,"x_min":87,"x_max":608,"o":"m 87 781 l 608 781 l 608 0 l 87 0 l 87 781 z "},"":{"ha":694,"x_min":87,"x_max":608,"o":"m 87 781 l 608 781 l 608 0 l 87 0 l 87 781 z "}," ":{"ha":694,"x_min":0,"x_max":0,"o":""},"¡":{"ha":694,"x_min":174,"x_max":521,"o":"m 521 -174 l 434 -174 l 434 -260 l 260 -260 l 260 -174 l 174 -174 l 174 87 l 260 87 l 260 260 l 434 260 l 434 87 l 521 87 l 521 -174 m 434 347 l 260 347 l 260 521 l 434 521 l 434 347 z "},"¢":{"ha":694,"x_min":87,"x_max":608,"o":"m 608 174 l 521 174 l 521 87 l 434 87 l 434 -87 l 260 -87 l 260 87 l 174 87 l 174 174 l 87 174 l 87 521 l 174 521 l 174 608 l 260 608 l 260 781 l 434 781 l 434 608 l 521 608 l 521 521 l 608 521 l 608 434 l 434 434 l 434 521 l 260 521 l 260 174 l 434 174 l 434 260 l 608 260 l 608 174 z "},"£":{"ha":694,"x_min":0,"x_max":608,"o":"m 608 0 l 0 0 l 0 174 l 87 174 l 87 347 l 0 347 l 0 434 l 87 434 l 87 694 l 174 694 l 174 781 l 521 781 l 521 694 l 608 694 l 608 608 l 434 608 l 434 694 l 260 694 l 260 434 l 521 434 l 521 347 l 260 347 l 260 174 l 174 174 l 174 87 l 608 87 l 608 0 z "},"¤":{"ha":694,"x_min":87,"x_max":608,"o":"m 608 174 l 434 174 l 434 260 l 260 260 l 260 174 l 87 174 l 87 260 l 174 260 l 174 347 l 87 347 l 87 521 l 174 521 l 174 608 l 87 608 l 87 694 l 260 694 l 260 608 l 434 608 l 434 694 l 608 694 l 608 608 l 521 608 l 521 521 l 608 521 l 608 347 l 521 347 l 521 260 l 608 260 l 608 174 m 434 347 l 434 521 l 260 521 l 260 347 l 434 347 z "},"¥":{"ha":694,"x_min":87,"x_max":608,"o":"m 608 174 l 434 174 l 434 0 l 260 0 l 260 174 l 87 174 l 87 260 l 260 260 l 260 347 l 87 347 l 87 434 l 174 434 l 174 521 l 87 521 l 87 781 l 260 781 l 260 521 l 434 521 l 434 781 l 608 781 l 608 521 l 521 521 l 521 434 l 608 434 l 608 347 l 434 347 l 434 260 l 608 260 l 608 174 z "},"¦":{"ha":694,"x_min":260,"x_max":434,"o":"m 434 347 l 260 347 l 260 781 l 434 781 l 434 347 m 434 -260 l 260 -260 l 260 174 l 434 174 l 434 -260 z "},"§":{"ha":694,"x_min":87,"x_max":608,"o":"m 608 -174 l 521 -174 l 521 -260 l 174 -260 l 174 -174 l 87 -174 l 87 -87 l 260 -87 l 260 -174 l 434 -174 l 434 0 l 260 0 l 260 87 l 174 87 l 174 174 l 87 174 l 87 347 l 174 347 l 174 521 l 87 521 l 87 694 l 174 694 l 174 781 l 521 781 l 521 694 l 608 694 l 608 608 l 434 608 l 434 694 l 260 694 l 260 521 l 434 521 l 434 434 l 521 434 l 521 347 l 608 347 l 608 174 l 521 174 l 521 0 l 608 0 l 608 -174 m 434 174 l 434 347 l 260 347 l 260 174 l 434 174 z "},"¨":{"ha":694,"x_min":87,"x_max":608,"o":"m 608 694 l 434 694 l 434 868 l 608 868 l 608 694 m 260 694 l 87 694 l 87 868 l 260 868 l 260 694 z "},"©":{"ha":694,"x_min":0,"x_max":694,"o":"m 694 87 l 608 87 l 608 0 l 87 0 l 87 87 l 0 87 l 0 694 l 87 694 l 87 781 l 608 781 l 608 694 l 694 694 l 694 87 m 608 174 l 608 608 l 521 608 l 521 694 l 174 694 l 174 608 l 87 608 l 87 174 l 174 174 l 174 87 l 521 87 l 521 174 l 608 174 m 434 174 l 260 174 l 260 260 l 174 260 l 174 521 l 260 521 l 260 260 l 434 260 l 434 174 m 260 608 l 434 608 l 434 521 l 521 521 l 521 434 l 434 434 l 434 521 l 260 521 l 260 608 m 521 260 l 434 260 l 434 347 l 521 347 l 521 260 z "},"ª":{"ha":694,"x_min":87,"x_max":608,"o":"m 608 347 l 174 347 l 174 434 l 87 434 l 87 521 l 174 521 l 174 608 l 434 608 l 434 694 l 174 694 l 174 781 l 521 781 l 521 694 l 608 694 l 608 347 m 608 174 l 87 174 l 87 260 l 608 260 l 608 174 m 434 434 l 434 521 l 260 521 l 260 434 l 434 434 z "},"«":{"ha":694,"x_min":0,"x_max":694,"o":"m 694 0 l 521 0 l 521 87 l 434 87 l 434 174 l 347 174 l 347 260 l 434 260 l 434 347 l 521 347 l 521 434 l 694 434 l 694 347 l 608 347 l 608 260 l 521 260 l 521 174 l 608 174 l 608 87 l 694 87 l 694 0 m 347 0 l 174 0 l 174 87 l 87 87 l 87 174 l 0 174 l 0 260 l 87 260 l 87 347 l 174 347 l 174 434 l 347 434 l 347 347 l 260 347 l 260 260 l 174 260 l 174 174 l 260 174 l 260 87 l 347 87 l 347 0 z "},"¬":{"ha":694,"x_min":87,"x_max":608,"o":"m 608 174 l 434 174 l 434 347 l 87 347 l 87 434 l 608 434 l 608 174 z "},"­":{"ha":694,"x_min":87,"x_max":608,"o":"m 608 347 l 87 347 l 87 434 l 608 434 l 608 347 z "},"®":{"ha":694,"x_min":0,"x_max":694,"o":"m 694 87 l 608 87 l 608 0 l 87 0 l 87 87 l 0 87 l 0 694 l 87 694 l 87 781 l 608 781 l 608 694 l 694 694 l 694 87 m 521 347 l 434 347 l 434 521 l 260 521 l 260 347 l 434 347 l 434 260 l 521 260 l 521 174 l 608 174 l 608 608 l 521 608 l 521 694 l 174 694 l 174 608 l 434 608 l 434 521 l 521 521 l 521 347 m 521 174 l 434 174 l 434 260 l 260 260 l 260 174 l 174 174 l 174 608 l 87 608 l 87 174 l 174 174 l 174 87 l 521 87 l 521 174 z "},"¯":{"ha":694,"x_min":0,"x_max":694,"o":"m 694 955 l 0 955 l 0 1042 l 694 1042 l 694 955 z "},"°":{"ha":694,"x_min":87,"x_max":608,"o":"m 608 608 l 521 608 l 521 521 l 174 521 l 174 608 l 87 608 l 87 781 l 174 781 l 174 868 l 521 868 l 521 781 l 608 781 l 608 608 m 434 608 l 434 781 l 260 781 l 260 608 l 434 608 z "},"±":{"ha":694,"x_min":87,"x_max":608,"o":"m 608 347 l 434 347 l 434 174 l 260 174 l 260 347 l 87 347 l 87 434 l 260 434 l 260 608 l 434 608 l 434 434 l 608 434 l 608 347 m 608 0 l 87 0 l 87 87 l 608 87 l 608 0 z "},"²":{"ha":694,"x_min":174,"x_max":521,"o":"m 521 347 l 174 347 l 174 521 l 260 521 l 260 608 l 347 608 l 347 694 l 174 694 l 174 781 l 434 781 l 434 694 l 521 694 l 521 608 l 434 608 l 434 521 l 347 521 l 347 434 l 521 434 l 521 347 z "},"³":{"ha":694,"x_min":174,"x_max":521,"o":"m 521 434 l 434 434 l 434 347 l 174 347 l 174 434 l 347 434 l 347 521 l 260 521 l 260 608 l 347 608 l 347 694 l 174 694 l 174 781 l 434 781 l 434 694 l 521 694 l 521 608 l 434 608 l 434 521 l 521 521 l 521 434 z "},"´":{"ha":694,"x_min":174,"x_max":521,"o":"m 521 868 l 434 868 l 434 781 l 347 781 l 347 694 l 174 694 l 174 781 l 260 781 l 260 955 l 521 955 l 521 868 z "},"µ":{"ha":694,"x_min":0,"x_max":694,"o":"m 434 0 l 260 0 l 260 -174 l 174 -174 l 174 -260 l 0 -260 l 0 -174 l 87 -174 l 87 608 l 260 608 l 260 87 l 434 87 l 434 0 m 694 0 l 521 0 l 521 87 l 434 87 l 434 608 l 608 608 l 608 87 l 694 87 l 694 0 z "},"¶":{"ha":694,"x_min":87,"x_max":694,"o":"m 694 694 l 608 694 l 608 -260 l 434 -260 l 434 174 l 260 174 l 260 260 l 174 260 l 174 347 l 87 347 l 87 608 l 174 608 l 174 694 l 260 694 l 260 781 l 694 781 l 694 694 z "},"·":{"ha":694,"x_min":260,"x_max":521,"o":"m 521 347 l 260 347 l 260 521 l 521 521 l 521 347 z "},"¸":{"ha":694,"x_min":174,"x_max":521,"o":"m 521 -174 l 434 -174 l 434 -260 l 174 -260 l 174 -174 l 347 -174 l 347 -87 l 260 -87 l 260 0 l 434 0 l 434 -87 l 521 -87 l 521 -174 z "},"¹":{"ha":694,"x_min":174,"x_max":434,"o":"m 434 347 l 260 347 l 260 608 l 174 608 l 174 694 l 260 694 l 260 781 l 434 781 l 434 347 z "},"º":{"ha":694,"x_min":87,"x_max":608,"o":"m 608 434 l 521 434 l 521 347 l 174 347 l 174 434 l 87 434 l 87 694 l 174 694 l 174 781 l 521 781 l 521 694 l 608 694 l 608 434 m 434 434 l 434 694 l 260 694 l 260 434 l 434 434 m 608 174 l 87 174 l 87 260 l 608 260 l 608 174 z "},"»":{"ha":694,"x_min":0,"x_max":694,"o":"m 694 174 l 608 174 l 608 87 l 521 87 l 521 0 l 347 0 l 347 87 l 434 87 l 434 174 l 521 174 l 521 260 l 434 260 l 434 347 l 347 347 l 347 434 l 521 434 l 521 347 l 608 347 l 608 260 l 694 260 l 694 174 m 347 174 l 260 174 l 260 87 l 174 87 l 174 0 l 0 0 l 0 87 l 87 87 l 87 174 l 174 174 l 174 260 l 87 260 l 87 347 l 0 347 l 0 434 l 174 434 l 174 347 l 260 347 l 260 260 l 347 260 l 347 174 z "},"¼":{"ha":694,"x_min":0,"x_max":694,"o":"m 694 -87 l 521 -87 l 521 0 l 260 0 l 260 174 l 174 174 l 174 87 l 0 87 l 0 174 l 87 174 l 87 260 l 174 260 l 174 347 l 260 347 l 260 434 l 87 434 l 87 694 l 0 694 l 0 781 l 87 781 l 87 868 l 260 868 l 260 434 l 347 434 l 347 521 l 434 521 l 434 608 l 521 608 l 521 694 l 694 694 l 694 608 l 608 608 l 608 521 l 521 521 l 521 434 l 434 434 l 434 347 l 694 347 l 694 -87 m 347 174 l 347 260 l 260 260 l 260 174 l 347 174 m 521 87 l 521 174 l 434 174 l 434 87 l 521 87 m 434 260 l 434 347 l 347 347 l 347 260 l 434 260 z "},"½":{"ha":694,"x_min":0,"x_max":694,"o":"m 694 -87 l 347 -87 l 347 87 l 434 87 l 434 174 l 521 174 l 521 260 l 260 260 l 260 174 l 174 174 l 174 87 l 0 87 l 0 174 l 87 174 l 87 260 l 174 260 l 174 347 l 260 347 l 260 434 l 87 434 l 87 694 l 0 694 l 0 781 l 87 781 l 87 868 l 260 868 l 260 434 l 347 434 l 347 521 l 434 521 l 434 608 l 521 608 l 521 694 l 694 694 l 694 608 l 608 608 l 608 521 l 521 521 l 521 434 l 434 434 l 434 347 l 608 347 l 608 260 l 694 260 l 694 174 l 608 174 l 608 87 l 521 87 l 521 0 l 694 0 l 694 -87 z "},"¾":{"ha":694,"x_min":0,"x_max":694,"o":"m 694 -87 l 521 -87 l 521 0 l 260 0 l 260 174 l 174 174 l 174 87 l 0 87 l 0 174 l 87 174 l 87 260 l 174 260 l 174 347 l 260 347 l 260 434 l 0 434 l 0 521 l 174 521 l 174 608 l 87 608 l 87 694 l 174 694 l 174 781 l 0 781 l 0 868 l 260 868 l 260 781 l 347 781 l 347 694 l 260 694 l 260 608 l 347 608 l 347 521 l 434 521 l 434 608 l 521 608 l 521 694 l 694 694 l 694 608 l 608 608 l 608 521 l 521 521 l 521 434 l 434 434 l 434 347 l 694 347 l 694 -87 m 347 174 l 347 260 l 260 260 l 260 174 l 347 174 m 521 87 l 521 174 l 434 174 l 434 87 l 521 87 m 434 260 l 434 347 l 347 347 l 347 260 l 434 260 m 347 434 l 347 521 l 260 521 l 260 434 l 347 434 z "},"¿":{"ha":694,"x_min":87,"x_max":608,"o":"m 608 -174 l 521 -174 l 521 -260 l 174 -260 l 174 -174 l 87 -174 l 87 0 l 174 0 l 174 87 l 260 87 l 260 260 l 434 260 l 434 87 l 347 87 l 347 0 l 260 0 l 260 -174 l 434 -174 l 434 0 l 608 0 l 608 -174 m 434 347 l 260 347 l 260 521 l 434 521 l 434 347 z "},"À":{"ha":694,"x_min":87,"x_max":608,"o":"m 608 0 l 434 0 l 434 260 l 260 260 l 260 0 l 87 0 l 87 608 l 174 608 l 174 694 l 260 694 l 260 781 l 434 781 l 434 694 l 521 694 l 521 608 l 608 608 l 608 0 m 434 347 l 434 608 l 260 608 l 260 347 l 434 347 m 434 868 l 260 868 l 260 955 l 174 955 l 174 1042 l 347 1042 l 347 955 l 434 955 l 434 868 z "},"Á":{"ha":694,"x_min":87,"x_max":608,"o":"m 608 0 l 434 0 l 434 260 l 260 260 l 260 0 l 87 0 l 87 608 l 174 608 l 174 694 l 260 694 l 260 781 l 434 781 l 434 694 l 521 694 l 521 608 l 608 608 l 608 0 m 434 347 l 434 608 l 260 608 l 260 347 l 434 347 m 521 955 l 434 955 l 434 868 l 260 868 l 260 955 l 347 955 l 347 1042 l 521 1042 l 521 955 z "},"Â":{"ha":694,"x_min":87,"x_max":608,"o":"m 260 781 l 434 781 l 434 694 l 521 694 l 521 608 l 608 608 l 608 0 l 434 0 l 434 260 l 260 260 l 260 0 l 87 0 l 87 608 l 174 608 l 174 694 l 260 694 l 260 781 m 434 347 l 434 608 l 260 608 l 260 347 l 434 347 m 434 955 l 260 955 l 260 868 l 87 868 l 87 955 l 174 955 l 174 1042 l 260 1042 l 260 1128 l 434 1128 l 434 1042 l 521 1042 l 521 955 l 608 955 l 608 868 l 434 868 l 434 955 z "},"Ã":{"ha":694,"x_min":87,"x_max":694,"o":"m 608 0 l 434 0 l 434 260 l 260 260 l 260 0 l 87 0 l 87 608 l 174 608 l 174 694 l 260 694 l 260 781 l 434 781 l 434 694 l 521 694 l 521 608 l 608 608 l 608 0 m 694 955 l 608 955 l 608 868 l 347 868 l 347 955 l 260 955 l 260 868 l 87 868 l 87 955 l 174 955 l 174 1042 l 434 1042 l 434 955 l 521 955 l 521 1042 l 694 1042 l 694 955 m 434 347 l 434 608 l 260 608 l 260 347 l 434 347 z "},"Ä":{"ha":694,"x_min":87,"x_max":608,"o":"m 608 0 l 434 0 l 434 260 l 260 260 l 260 0 l 87 0 l 87 608 l 174 608 l 174 694 l 260 694 l 260 781 l 434 781 l 434 694 l 521 694 l 521 608 l 608 608 l 608 0 m 434 347 l 434 608 l 260 608 l 260 347 l 434 347 m 608 868 l 434 868 l 434 1042 l 608 1042 l 608 868 m 260 868 l 87 868 l 87 1042 l 260 1042 l 260 868 z "},"Å":{"ha":694,"x_min":87,"x_max":608,"o":"m 608 0 l 434 0 l 434 260 l 260 260 l 260 0 l 87 0 l 87 608 l 174 608 l 174 694 l 260 694 l 260 781 l 434 781 l 434 694 l 521 694 l 521 608 l 608 608 l 608 0 m 174 868 l 174 955 l 87 955 l 87 1042 l 174 1042 l 174 1128 l 521 1128 l 521 1042 l 608 1042 l 608 955 l 521 955 l 521 868 l 174 868 m 434 347 l 434 608 l 260 608 l 260 347 l 434 347 m 434 955 l 434 1042 l 260 1042 l 260 955 l 434 955 z "},"Æ":{"ha":694,"x_min":87,"x_max":694,"o":"m 694 0 l 347 0 l 347 260 l 260 260 l 260 0 l 87 0 l 87 608 l 174 608 l 174 694 l 260 694 l 260 781 l 694 781 l 694 694 l 521 694 l 521 434 l 694 434 l 694 347 l 521 347 l 521 87 l 694 87 l 694 0 m 347 347 l 347 608 l 260 608 l 260 347 l 347 347 z "},"Ç":{"ha":694,"x_min":87,"x_max":608,"o":"m 608 87 l 521 87 l 521 0 l 434 0 l 434 -87 l 521 -87 l 521 -174 l 434 -174 l 434 -260 l 174 -260 l 174 -174 l 347 -174 l 347 -87 l 260 -87 l 260 0 l 174 0 l 174 87 l 87 87 l 87 694 l 174 694 l 174 781 l 521 781 l 521 694 l 608 694 l 608 521 l 434 521 l 434 694 l 260 694 l 260 87 l 434 87 l 434 260 l 608 260 l 608 87 z "},"È":{"ha":694,"x_min":87,"x_max":608,"o":"m 608 0 l 87 0 l 87 781 l 608 781 l 608 694 l 260 694 l 260 434 l 521 434 l 521 347 l 260 347 l 260 87 l 608 87 l 608 0 m 434 868 l 260 868 l 260 955 l 174 955 l 174 1042 l 347 1042 l 347 955 l 434 955 l 434 868 z "},"É":{"ha":694,"x_min":87,"x_max":608,"o":"m 608 0 l 87 0 l 87 781 l 608 781 l 608 694 l 260 694 l 260 434 l 521 434 l 521 347 l 260 347 l 260 87 l 608 87 l 608 0 m 521 955 l 434 955 l 434 868 l 260 868 l 260 955 l 347 955 l 347 1042 l 521 1042 l 521 955 z "},"Ê":{"ha":694,"x_min":87,"x_max":608,"o":"m 608 0 l 87 0 l 87 781 l 608 781 l 608 694 l 260 694 l 260 434 l 521 434 l 521 347 l 260 347 l 260 87 l 608 87 l 608 0 m 434 955 l 260 955 l 260 868 l 87 868 l 87 955 l 174 955 l 174 1042 l 260 1042 l 260 1128 l 434 1128 l 434 1042 l 521 1042 l 521 955 l 608 955 l 608 868 l 434 868 l 434 955 z "},"Ë":{"ha":694,"x_min":87,"x_max":608,"o":"m 608 0 l 87 0 l 87 781 l 608 781 l 608 694 l 260 694 l 260 434 l 521 434 l 521 347 l 260 347 l 260 87 l 608 87 l 608 0 m 608 868 l 434 868 l 434 1042 l 608 1042 l 608 868 m 260 868 l 87 868 l 87 1042 l 260 1042 l 260 868 z "},"Ì":{"ha":694,"x_min":174,"x_max":521,"o":"m 521 0 l 174 0 l 174 87 l 260 87 l 260 694 l 174 694 l 174 781 l 521 781 l 521 694 l 434 694 l 434 87 l 521 87 l 521 0 m 434 868 l 260 868 l 260 955 l 174 955 l 174 1042 l 347 1042 l 347 955 l 434 955 l 434 868 z "},"Í":{"ha":694,"x_min":174,"x_max":521,"o":"m 521 0 l 174 0 l 174 87 l 260 87 l 260 694 l 174 694 l 174 781 l 521 781 l 521 694 l 434 694 l 434 87 l 521 87 l 521 0 m 521 955 l 434 955 l 434 868 l 260 868 l 260 955 l 347 955 l 347 1042 l 521 1042 l 521 955 z "},"Î":{"ha":694,"x_min":87,"x_max":608,"o":"m 521 0 l 174 0 l 174 87 l 260 87 l 260 694 l 174 694 l 174 781 l 521 781 l 521 694 l 434 694 l 434 87 l 521 87 l 521 0 m 434 955 l 260 955 l 260 868 l 87 868 l 87 955 l 174 955 l 174 1042 l 260 1042 l 260 1128 l 434 1128 l 434 1042 l 521 1042 l 521 955 l 608 955 l 608 868 l 434 868 l 434 955 z "},"Ï":{"ha":694,"x_min":87,"x_max":608,"o":"m 521 0 l 174 0 l 174 87 l 260 87 l 260 694 l 174 694 l 174 781 l 521 781 l 521 694 l 434 694 l 434 87 l 521 87 l 521 0 m 608 868 l 434 868 l 434 1042 l 608 1042 l 608 868 m 260 868 l 87 868 l 87 1042 l 260 1042 l 260 868 z "},"Ð":{"ha":694,"x_min":0,"x_max":608,"o":"m 608 174 l 521 174 l 521 87 l 434 87 l 434 0 l 87 0 l 87 347 l 0 347 l 0 434 l 87 434 l 87 781 l 434 781 l 434 694 l 521 694 l 521 608 l 608 608 l 608 174 m 434 174 l 434 608 l 347 608 l 347 694 l 260 694 l 260 434 l 347 434 l 347 347 l 260 347 l 260 87 l 347 87 l 347 174 l 434 174 z "},"Ñ":{"ha":694,"x_min":87,"x_max":694,"o":"m 694 0 l 521 0 l 521 260 l 434 260 l 434 347 l 347 347 l 347 434 l 260 434 l 260 0 l 87 0 l 87 781 l 260 781 l 260 608 l 347 608 l 347 521 l 434 521 l 434 434 l 521 434 l 521 781 l 694 781 l 694 0 m 694 955 l 608 955 l 608 868 l 347 868 l 347 955 l 260 955 l 260 868 l 87 868 l 87 955 l 174 955 l 174 1042 l 434 1042 l 434 955 l 521 955 l 521 1042 l 694 1042 l 694 955 z "},"Ò":{"ha":694,"x_min":87,"x_max":608,"o":"m 608 87 l 521 87 l 521 0 l 174 0 l 174 87 l 87 87 l 87 694 l 174 694 l 174 781 l 521 781 l 521 694 l 608 694 l 608 87 m 434 87 l 434 694 l 260 694 l 260 87 l 434 87 m 434 868 l 260 868 l 260 955 l 174 955 l 174 1042 l 347 1042 l 347 955 l 434 955 l 434 868 z "},"Ó":{"ha":694,"x_min":87,"x_max":608,"o":"m 608 87 l 521 87 l 521 0 l 174 0 l 174 87 l 87 87 l 87 694 l 174 694 l 174 781 l 521 781 l 521 694 l 608 694 l 608 87 m 434 87 l 434 694 l 260 694 l 260 87 l 434 87 m 521 955 l 434 955 l 434 868 l 260 868 l 260 955 l 347 955 l 347 1042 l 521 1042 l 521 955 z "},"Ô":{"ha":694,"x_min":87,"x_max":608,"o":"m 608 87 l 521 87 l 521 0 l 174 0 l 174 87 l 87 87 l 87 694 l 174 694 l 174 781 l 521 781 l 521 694 l 608 694 l 608 87 m 434 87 l 434 694 l 260 694 l 260 87 l 434 87 m 434 955 l 260 955 l 260 868 l 87 868 l 87 955 l 174 955 l 174 1042 l 260 1042 l 260 1128 l 434 1128 l 434 1042 l 521 1042 l 521 955 l 608 955 l 608 868 l 434 868 l 434 955 z "},"Õ":{"ha":694,"x_min":87,"x_max":694,"o":"m 608 87 l 521 87 l 521 0 l 174 0 l 174 87 l 87 87 l 87 694 l 174 694 l 174 781 l 521 781 l 521 694 l 608 694 l 608 87 m 434 87 l 434 694 l 260 694 l 260 87 l 434 87 m 694 955 l 608 955 l 608 868 l 347 868 l 347 955 l 260 955 l 260 868 l 87 868 l 87 955 l 174 955 l 174 1042 l 434 1042 l 434 955 l 521 955 l 521 1042 l 694 1042 l 694 955 z "},"Ö":{"ha":694,"x_min":87,"x_max":608,"o":"m 608 87 l 521 87 l 521 0 l 174 0 l 174 87 l 87 87 l 87 694 l 174 694 l 174 781 l 521 781 l 521 694 l 608 694 l 608 87 m 434 87 l 434 694 l 260 694 l 260 87 l 434 87 m 608 868 l 434 868 l 434 1042 l 608 1042 l 608 868 m 260 868 l 87 868 l 87 1042 l 260 1042 l 260 868 z "},"×":{"ha":694,"x_min":87,"x_max":608,"o":"m 608 87 l 521 87 l 521 174 l 434 174 l 434 260 l 260 260 l 260 174 l 174 174 l 174 87 l 87 87 l 87 260 l 174 260 l 174 347 l 260 347 l 260 434 l 174 434 l 174 521 l 87 521 l 87 694 l 174 694 l 174 608 l 260 608 l 260 521 l 434 521 l 434 608 l 521 608 l 521 694 l 608 694 l 608 521 l 521 521 l 521 434 l 434 434 l 434 347 l 521 347 l 521 260 l 608 260 l 608 87 z "},"Ø":{"ha":694,"x_min":87,"x_max":608,"o":"m 608 87 l 521 87 l 521 0 l 87 0 l 87 694 l 174 694 l 174 781 l 608 781 l 608 87 m 434 87 l 434 347 l 347 347 l 347 174 l 260 174 l 260 87 l 434 87 m 434 608 l 434 694 l 260 694 l 260 434 l 347 434 l 347 608 l 434 608 z "},"Ù":{"ha":694,"x_min":87,"x_max":608,"o":"m 608 87 l 521 87 l 521 0 l 174 0 l 174 87 l 87 87 l 87 781 l 260 781 l 260 87 l 434 87 l 434 781 l 608 781 l 608 87 m 434 868 l 260 868 l 260 955 l 174 955 l 174 1042 l 347 1042 l 347 955 l 434 955 l 434 868 z "},"Ú":{"ha":694,"x_min":87,"x_max":608,"o":"m 608 87 l 521 87 l 521 0 l 174 0 l 174 87 l 87 87 l 87 781 l 260 781 l 260 87 l 434 87 l 434 781 l 608 781 l 608 87 m 521 955 l 434 955 l 434 868 l 260 868 l 260 955 l 347 955 l 347 1042 l 521 1042 l 521 955 z "},"Û":{"ha":694,"x_min":87,"x_max":608,"o":"m 608 87 l 521 87 l 521 0 l 174 0 l 174 87 l 87 87 l 87 781 l 260 781 l 260 87 l 434 87 l 434 781 l 608 781 l 608 87 m 434 955 l 260 955 l 260 868 l 87 868 l 87 955 l 174 955 l 174 1042 l 260 1042 l 260 1128 l 434 1128 l 434 1042 l 521 1042 l 521 955 l 608 955 l 608 868 l 434 868 l 434 955 z "},"Ü":{"ha":694,"x_min":87,"x_max":608,"o":"m 608 87 l 521 87 l 521 0 l 174 0 l 174 87 l 87 87 l 87 781 l 260 781 l 260 87 l 434 87 l 434 781 l 608 781 l 608 87 m 608 868 l 434 868 l 434 1042 l 608 1042 l 608 868 m 260 868 l 87 868 l 87 1042 l 260 1042 l 260 868 z "},"Ý":{"ha":694,"x_min":87,"x_max":608,"o":"m 608 434 l 521 434 l 521 347 l 434 347 l 434 0 l 260 0 l 260 347 l 174 347 l 174 434 l 87 434 l 87 781 l 260 781 l 260 434 l 434 434 l 434 781 l 608 781 l 608 434 m 521 955 l 434 955 l 434 868 l 260 868 l 260 955 l 347 955 l 347 1042 l 521 1042 l 521 955 z "},"Þ":{"ha":694,"x_min":87,"x_max":608,"o":"m 608 260 l 521 260 l 521 174 l 260 174 l 260 0 l 87 0 l 87 781 l 260 781 l 260 608 l 521 608 l 521 521 l 608 521 l 608 260 m 434 260 l 434 521 l 260 521 l 260 260 l 434 260 z "},"ß":{"ha":694,"x_min":87,"x_max":608,"o":"m 608 87 l 521 87 l 521 0 l 347 0 l 347 87 l 434 87 l 434 434 l 347 434 l 347 694 l 260 694 l 260 0 l 87 0 l 87 694 l 174 694 l 174 781 l 434 781 l 434 694 l 521 694 l 521 434 l 608 434 l 608 87 z "},"à":{"ha":694,"x_min":87,"x_max":608,"o":"m 608 0 l 174 0 l 174 87 l 87 87 l 87 260 l 174 260 l 174 347 l 434 347 l 434 521 l 174 521 l 174 608 l 521 608 l 521 521 l 608 521 l 608 0 m 434 694 l 260 694 l 260 781 l 174 781 l 174 868 l 87 868 l 87 955 l 347 955 l 347 781 l 434 781 l 434 694 m 434 87 l 434 260 l 260 260 l 260 87 l 434 87 z "},"á":{"ha":694,"x_min":87,"x_max":608,"o":"m 608 0 l 174 0 l 174 87 l 87 87 l 87 260 l 174 260 l 174 347 l 434 347 l 434 521 l 174 521 l 174 608 l 521 608 l 521 521 l 608 521 l 608 0 m 608 868 l 521 868 l 521 781 l 434 781 l 434 694 l 260 694 l 260 781 l 347 781 l 347 955 l 608 955 l 608 868 m 434 87 l 434 260 l 260 260 l 260 87 l 434 87 z "},"â":{"ha":694,"x_min":87,"x_max":608,"o":"m 608 0 l 174 0 l 174 87 l 87 87 l 87 260 l 174 260 l 174 347 l 434 347 l 434 521 l 174 521 l 174 608 l 521 608 l 521 521 l 608 521 l 608 0 m 608 694 l 434 694 l 434 781 l 260 781 l 260 694 l 87 694 l 87 781 l 174 781 l 174 868 l 260 868 l 260 955 l 434 955 l 434 868 l 521 868 l 521 781 l 608 781 l 608 694 m 434 87 l 434 260 l 260 260 l 260 87 l 434 87 z "},"ã":{"ha":694,"x_min":87,"x_max":694,"o":"m 608 0 l 174 0 l 174 87 l 87 87 l 87 260 l 174 260 l 174 347 l 434 347 l 434 521 l 174 521 l 174 608 l 521 608 l 521 521 l 608 521 l 608 0 m 434 87 l 434 260 l 260 260 l 260 87 l 434 87 m 694 781 l 608 781 l 608 694 l 347 694 l 347 781 l 260 781 l 260 694 l 87 694 l 87 781 l 174 781 l 174 868 l 434 868 l 434 781 l 521 781 l 521 868 l 694 868 l 694 781 z "},"ä":{"ha":694,"x_min":87,"x_max":608,"o":"m 608 0 l 174 0 l 174 87 l 87 87 l 87 260 l 174 260 l 174 347 l 434 347 l 434 521 l 174 521 l 174 608 l 521 608 l 521 521 l 608 521 l 608 0 m 434 87 l 434 260 l 260 260 l 260 87 l 434 87 m 608 694 l 434 694 l 434 868 l 608 868 l 608 694 m 260 694 l 87 694 l 87 868 l 260 868 l 260 694 z "},"å":{"ha":694,"x_min":87,"x_max":608,"o":"m 608 0 l 174 0 l 174 87 l 87 87 l 87 260 l 174 260 l 174 347 l 434 347 l 434 521 l 174 521 l 174 608 l 521 608 l 521 521 l 608 521 l 608 0 m 608 781 l 521 781 l 521 694 l 174 694 l 174 781 l 87 781 l 87 868 l 174 868 l 174 955 l 521 955 l 521 868 l 608 868 l 608 781 m 434 87 l 434 260 l 260 260 l 260 87 l 434 87 m 434 781 l 434 868 l 260 868 l 260 781 l 434 781 z "},"æ":{"ha":694,"x_min":0,"x_max":694,"o":"m 694 0 l 434 0 l 434 87 l 347 87 l 347 0 l 87 0 l 87 87 l 0 87 l 0 260 l 87 260 l 87 347 l 260 347 l 260 521 l 87 521 l 87 608 l 260 608 l 260 521 l 347 521 l 347 608 l 608 608 l 608 521 l 694 521 l 694 260 l 434 260 l 434 87 l 694 87 l 694 0 m 260 87 l 260 260 l 174 260 l 174 87 l 260 87 m 521 347 l 521 521 l 434 521 l 434 347 l 521 347 z "},"ç":{"ha":694,"x_min":87,"x_max":608,"o":"m 608 87 l 521 87 l 521 0 l 434 0 l 434 -87 l 521 -87 l 521 -174 l 434 -174 l 434 -260 l 174 -260 l 174 -174 l 347 -174 l 347 -87 l 260 -87 l 260 0 l 174 0 l 174 87 l 87 87 l 87 521 l 174 521 l 174 608 l 521 608 l 521 521 l 608 521 l 608 434 l 434 434 l 434 521 l 260 521 l 260 87 l 434 87 l 434 174 l 608 174 l 608 87 z "},"è":{"ha":694,"x_min":87,"x_max":608,"o":"m 608 260 l 260 260 l 260 87 l 521 87 l 521 0 l 174 0 l 174 87 l 87 87 l 87 521 l 174 521 l 174 608 l 521 608 l 521 521 l 608 521 l 608 260 m 434 694 l 260 694 l 260 781 l 174 781 l 174 868 l 87 868 l 87 955 l 347 955 l 347 781 l 434 781 l 434 694 m 434 347 l 434 521 l 260 521 l 260 347 l 434 347 z "},"é":{"ha":694,"x_min":87,"x_max":608,"o":"m 608 260 l 260 260 l 260 87 l 521 87 l 521 0 l 174 0 l 174 87 l 87 87 l 87 521 l 174 521 l 174 608 l 521 608 l 521 521 l 608 521 l 608 260 m 608 868 l 521 868 l 521 781 l 434 781 l 434 694 l 260 694 l 260 781 l 347 781 l 347 955 l 608 955 l 608 868 m 434 347 l 434 521 l 260 521 l 260 347 l 434 347 z "},"ê":{"ha":694,"x_min":87,"x_max":608,"o":"m 608 260 l 260 260 l 260 87 l 521 87 l 521 0 l 174 0 l 174 87 l 87 87 l 87 521 l 174 521 l 174 608 l 521 608 l 521 521 l 608 521 l 608 260 m 434 347 l 434 521 l 260 521 l 260 347 l 434 347 m 608 694 l 434 694 l 434 781 l 260 781 l 260 694 l 87 694 l 87 781 l 174 781 l 174 868 l 260 868 l 260 955 l 434 955 l 434 868 l 521 868 l 521 781 l 608 781 l 608 694 z "},"ë":{"ha":694,"x_min":87,"x_max":608,"o":"m 608 260 l 260 260 l 260 87 l 521 87 l 521 0 l 174 0 l 174 87 l 87 87 l 87 521 l 174 521 l 174 608 l 521 608 l 521 521 l 608 521 l 608 260 m 434 347 l 434 521 l 260 521 l 260 347 l 434 347 m 608 694 l 434 694 l 434 868 l 608 868 l 608 694 m 260 694 l 87 694 l 87 868 l 260 868 l 260 694 z "},"ì":{"ha":694,"x_min":87,"x_max":608,"o":"m 608 0 l 87 0 l 87 87 l 260 87 l 260 521 l 87 521 l 87 608 l 434 608 l 434 87 l 608 87 l 608 0 m 434 694 l 260 694 l 260 781 l 174 781 l 174 868 l 87 868 l 87 955 l 347 955 l 347 781 l 434 781 l 434 694 z "},"í":{"ha":694,"x_min":87,"x_max":608,"o":"m 608 0 l 87 0 l 87 87 l 260 87 l 260 521 l 87 521 l 87 608 l 434 608 l 434 87 l 608 87 l 608 0 m 608 868 l 521 868 l 521 781 l 434 781 l 434 694 l 260 694 l 260 781 l 347 781 l 347 955 l 608 955 l 608 868 z "},"î":{"ha":694,"x_min":87,"x_max":608,"o":"m 608 0 l 87 0 l 87 87 l 260 87 l 260 521 l 87 521 l 87 608 l 434 608 l 434 87 l 608 87 l 608 0 m 608 694 l 434 694 l 434 781 l 260 781 l 260 694 l 87 694 l 87 781 l 174 781 l 174 868 l 260 868 l 260 955 l 434 955 l 434 868 l 521 868 l 521 781 l 608 781 l 608 694 z "},"ï":{"ha":694,"x_min":87,"x_max":608,"o":"m 608 0 l 87 0 l 87 87 l 260 87 l 260 521 l 87 521 l 87 608 l 434 608 l 434 87 l 608 87 l 608 0 m 608 694 l 434 694 l 434 868 l 608 868 l 608 694 m 260 694 l 87 694 l 87 868 l 260 868 l 260 694 z "},"ð":{"ha":694,"x_min":87,"x_max":608,"o":"m 434 87 l 434 434 l 260 434 l 260 521 l 87 521 l 87 608 l 260 608 l 260 521 l 347 521 l 347 608 l 260 608 l 260 694 l 174 694 l 174 781 l 347 781 l 347 694 l 434 694 l 434 608 l 521 608 l 521 521 l 608 521 l 608 87 l 521 87 l 521 0 l 174 0 l 174 87 l 87 87 l 87 434 l 260 434 l 260 87 l 434 87 m 434 781 l 608 781 l 608 694 l 434 694 l 434 781 z "},"ñ":{"ha":694,"x_min":87,"x_max":694,"o":"m 608 0 l 434 0 l 434 521 l 260 521 l 260 0 l 87 0 l 87 608 l 521 608 l 521 521 l 608 521 l 608 0 m 694 781 l 608 781 l 608 694 l 347 694 l 347 781 l 260 781 l 260 694 l 87 694 l 87 781 l 174 781 l 174 868 l 434 868 l 434 781 l 521 781 l 521 868 l 694 868 l 694 781 z "},"ò":{"ha":694,"x_min":87,"x_max":608,"o":"m 608 87 l 521 87 l 521 0 l 174 0 l 174 87 l 87 87 l 87 521 l 174 521 l 174 608 l 521 608 l 521 521 l 608 521 l 608 87 m 434 87 l 434 521 l 260 521 l 260 87 l 434 87 m 434 694 l 260 694 l 260 781 l 174 781 l 174 868 l 87 868 l 87 955 l 347 955 l 347 781 l 434 781 l 434 694 z "},"ó":{"ha":694,"x_min":87,"x_max":608,"o":"m 608 87 l 521 87 l 521 0 l 174 0 l 174 87 l 87 87 l 87 521 l 174 521 l 174 608 l 521 608 l 521 521 l 608 521 l 608 87 m 434 87 l 434 521 l 260 521 l 260 87 l 434 87 m 608 868 l 521 868 l 521 781 l 434 781 l 434 694 l 260 694 l 260 781 l 347 781 l 347 955 l 608 955 l 608 868 z "},"ô":{"ha":694,"x_min":87,"x_max":608,"o":"m 608 87 l 521 87 l 521 0 l 174 0 l 174 87 l 87 87 l 87 521 l 174 521 l 174 608 l 521 608 l 521 521 l 608 521 l 608 87 m 434 87 l 434 521 l 260 521 l 260 87 l 434 87 m 608 694 l 434 694 l 434 781 l 260 781 l 260 694 l 87 694 l 87 781 l 174 781 l 174 868 l 260 868 l 260 955 l 434 955 l 434 868 l 521 868 l 521 781 l 608 781 l 608 694 z "},"õ":{"ha":694,"x_min":87,"x_max":694,"o":"m 608 87 l 521 87 l 521 0 l 174 0 l 174 87 l 87 87 l 87 521 l 174 521 l 174 608 l 521 608 l 521 521 l 608 521 l 608 87 m 434 87 l 434 521 l 260 521 l 260 87 l 434 87 m 694 781 l 608 781 l 608 694 l 347 694 l 347 781 l 260 781 l 260 694 l 87 694 l 87 781 l 174 781 l 174 868 l 434 868 l 434 781 l 521 781 l 521 868 l 694 868 l 694 781 z "},"ö":{"ha":694,"x_min":87,"x_max":608,"o":"m 608 87 l 521 87 l 521 0 l 174 0 l 174 87 l 87 87 l 87 521 l 174 521 l 174 608 l 521 608 l 521 521 l 608 521 l 608 87 m 434 87 l 434 521 l 260 521 l 260 87 l 434 87 m 608 694 l 434 694 l 434 868 l 608 868 l 608 694 m 260 694 l 87 694 l 87 868 l 260 868 l 260 694 z "},"÷":{"ha":694,"x_min":87,"x_max":608,"o":"m 608 347 l 87 347 l 87 434 l 608 434 l 608 347 m 434 87 l 260 87 l 260 260 l 434 260 l 434 87 m 434 521 l 260 521 l 260 694 l 434 694 l 434 521 z "},"ø":{"ha":694,"x_min":87,"x_max":608,"o":"m 608 87 l 521 87 l 521 0 l 87 0 l 87 521 l 174 521 l 174 608 l 608 608 l 608 87 m 434 87 l 434 260 l 347 260 l 347 174 l 260 174 l 260 87 l 434 87 m 434 434 l 434 521 l 260 521 l 260 347 l 347 347 l 347 434 l 434 434 z "},"ù":{"ha":694,"x_min":87,"x_max":608,"o":"m 608 0 l 174 0 l 174 87 l 87 87 l 87 608 l 260 608 l 260 87 l 434 87 l 434 608 l 608 608 l 608 0 m 434 694 l 260 694 l 260 781 l 174 781 l 174 868 l 87 868 l 87 955 l 347 955 l 347 781 l 434 781 l 434 694 z "},"ú":{"ha":694,"x_min":87,"x_max":608,"o":"m 608 0 l 174 0 l 174 87 l 87 87 l 87 608 l 260 608 l 260 87 l 434 87 l 434 608 l 608 608 l 608 0 m 608 868 l 521 868 l 521 781 l 434 781 l 434 694 l 260 694 l 260 781 l 347 781 l 347 955 l 608 955 l 608 868 z "},"û":{"ha":694,"x_min":87,"x_max":608,"o":"m 608 0 l 174 0 l 174 87 l 87 87 l 87 608 l 260 608 l 260 87 l 434 87 l 434 608 l 608 608 l 608 0 m 608 694 l 434 694 l 434 781 l 260 781 l 260 694 l 87 694 l 87 781 l 174 781 l 174 868 l 260 868 l 260 955 l 434 955 l 434 868 l 521 868 l 521 781 l 608 781 l 608 694 z "},"ü":{"ha":694,"x_min":87,"x_max":608,"o":"m 608 0 l 174 0 l 174 87 l 87 87 l 87 608 l 260 608 l 260 87 l 434 87 l 434 608 l 608 608 l 608 0 m 608 694 l 434 694 l 434 868 l 608 868 l 608 694 m 260 694 l 87 694 l 87 868 l 260 868 l 260 694 z "},"ý":{"ha":694,"x_min":0,"x_max":608,"o":"m 608 87 l 521 87 l 521 -87 l 434 -87 l 434 -174 l 347 -174 l 347 -260 l 0 -260 l 0 -174 l 260 -174 l 260 -87 l 347 -87 l 347 0 l 174 0 l 174 87 l 87 87 l 87 608 l 260 608 l 260 87 l 434 87 l 434 608 l 608 608 l 608 87 m 608 868 l 521 868 l 521 781 l 434 781 l 434 694 l 260 694 l 260 781 l 347 781 l 347 955 l 608 955 l 608 868 z "},"þ":{"ha":694,"x_min":87,"x_max":608,"o":"m 608 87 l 521 87 l 521 0 l 260 0 l 260 -260 l 87 -260 l 87 781 l 260 781 l 260 608 l 521 608 l 521 521 l 608 521 l 608 87 m 434 87 l 434 521 l 260 521 l 260 87 l 434 87 z "},"ÿ":{"ha":694,"x_min":0,"x_max":608,"o":"m 608 87 l 521 87 l 521 -87 l 434 -87 l 434 -174 l 347 -174 l 347 -260 l 0 -260 l 0 -174 l 260 -174 l 260 -87 l 347 -87 l 347 0 l 174 0 l 174 87 l 87 87 l 87 608 l 260 608 l 260 87 l 434 87 l 434 608 l 608 608 l 608 87 m 608 694 l 434 694 l 434 868 l 608 868 l 608 694 m 260 694 l 87 694 l 87 868 l 260 868 l 260 694 z "},"Ā":{"ha":694,"x_min":87,"x_max":608,"o":"m 608 0 l 434 0 l 434 260 l 260 260 l 260 0 l 87 0 l 87 608 l 174 608 l 174 694 l 260 694 l 260 781 l 434 781 l 434 694 l 521 694 l 521 608 l 608 608 l 608 0 m 434 347 l 434 608 l 260 608 l 260 347 l 434 347 m 608 868 l 87 868 l 87 955 l 608 955 l 608 868 z "},"ā":{"ha":694,"x_min":87,"x_max":608,"o":"m 608 0 l 174 0 l 174 87 l 87 87 l 87 260 l 174 260 l 174 347 l 434 347 l 434 521 l 174 521 l 174 608 l 521 608 l 521 521 l 608 521 l 608 0 m 608 694 l 87 694 l 87 781 l 608 781 l 608 694 m 434 87 l 434 260 l 260 260 l 260 87 l 434 87 z "},"Ă":{"ha":694,"x_min":87,"x_max":608,"o":"m 608 0 l 434 0 l 434 260 l 260 260 l 260 0 l 87 0 l 87 608 l 174 608 l 174 694 l 260 694 l 260 781 l 434 781 l 434 694 l 521 694 l 521 608 l 608 608 l 608 0 m 608 955 l 521 955 l 521 868 l 174 868 l 174 955 l 87 955 l 87 1042 l 260 1042 l 260 955 l 434 955 l 434 1042 l 608 1042 l 608 955 m 434 347 l 434 608 l 260 608 l 260 347 l 434 347 z "},"ă":{"ha":694,"x_min":87,"x_max":608,"o":"m 608 0 l 174 0 l 174 87 l 87 87 l 87 260 l 174 260 l 174 347 l 434 347 l 434 521 l 174 521 l 174 608 l 521 608 l 521 521 l 608 521 l 608 0 m 608 781 l 521 781 l 521 694 l 174 694 l 174 781 l 87 781 l 87 868 l 260 868 l 260 781 l 434 781 l 434 868 l 608 868 l 608 781 m 434 87 l 434 260 l 260 260 l 260 87 l 434 87 z "},"Ą":{"ha":694,"x_min":87,"x_max":694,"o":"m 694 -260 l 434 -260 l 434 -174 l 347 -174 l 347 0 l 434 0 l 434 260 l 260 260 l 260 0 l 87 0 l 87 608 l 174 608 l 174 694 l 260 694 l 260 781 l 434 781 l 434 694 l 521 694 l 521 608 l 608 608 l 608 0 l 521 0 l 521 -174 l 694 -174 l 694 -260 m 434 347 l 434 608 l 260 608 l 260 347 l 434 347 z "},"ą":{"ha":694,"x_min":87,"x_max":694,"o":"m 694 -260 l 434 -260 l 434 -174 l 347 -174 l 347 0 l 174 0 l 174 87 l 87 87 l 87 260 l 174 260 l 174 347 l 434 347 l 434 521 l 174 521 l 174 608 l 521 608 l 521 521 l 608 521 l 608 0 l 521 0 l 521 -174 l 694 -174 l 694 -260 m 434 87 l 434 260 l 260 260 l 260 87 l 434 87 z "},"Ć":{"ha":694,"x_min":87,"x_max":608,"o":"m 608 87 l 521 87 l 521 0 l 174 0 l 174 87 l 87 87 l 87 694 l 174 694 l 174 781 l 521 781 l 521 694 l 608 694 l 608 521 l 434 521 l 434 694 l 260 694 l 260 87 l 434 87 l 434 260 l 608 260 l 608 87 m 521 955 l 434 955 l 434 868 l 260 868 l 260 955 l 347 955 l 347 1042 l 521 1042 l 521 955 z "},"ć":{"ha":694,"x_min":87,"x_max":608,"o":"m 608 87 l 521 87 l 521 0 l 174 0 l 174 87 l 87 87 l 87 521 l 174 521 l 174 608 l 521 608 l 521 521 l 608 521 l 608 434 l 434 434 l 434 521 l 260 521 l 260 87 l 434 87 l 434 174 l 608 174 l 608 87 m 608 868 l 521 868 l 521 781 l 434 781 l 434 694 l 260 694 l 260 781 l 347 781 l 347 955 l 608 955 l 608 868 z "},"Ĉ":{"ha":694,"x_min":87,"x_max":608,"o":"m 608 87 l 521 87 l 521 0 l 174 0 l 174 87 l 87 87 l 87 694 l 174 694 l 174 781 l 521 781 l 521 694 l 608 694 l 608 521 l 434 521 l 434 694 l 260 694 l 260 87 l 434 87 l 434 260 l 608 260 l 608 87 m 608 868 l 434 868 l 434 955 l 260 955 l 260 868 l 87 868 l 87 955 l 174 955 l 174 1042 l 260 1042 l 260 1128 l 434 1128 l 434 1042 l 521 1042 l 521 955 l 608 955 l 608 868 z "},"ĉ":{"ha":694,"x_min":87,"x_max":608,"o":"m 608 87 l 521 87 l 521 0 l 174 0 l 174 87 l 87 87 l 87 521 l 174 521 l 174 608 l 521 608 l 521 521 l 608 521 l 608 434 l 434 434 l 434 521 l 260 521 l 260 87 l 434 87 l 434 174 l 608 174 l 608 87 m 608 694 l 434 694 l 434 781 l 260 781 l 260 694 l 87 694 l 87 781 l 174 781 l 174 868 l 260 868 l 260 955 l 434 955 l 434 868 l 521 868 l 521 781 l 608 781 l 608 694 z "},"Ċ":{"ha":694,"x_min":87,"x_max":608,"o":"m 608 87 l 521 87 l 521 0 l 174 0 l 174 87 l 87 87 l 87 694 l 174 694 l 174 781 l 521 781 l 521 694 l 608 694 l 608 521 l 434 521 l 434 694 l 260 694 l 260 87 l 434 87 l 434 260 l 608 260 l 608 87 m 434 868 l 260 868 l 260 1042 l 434 1042 l 434 868 z "},"ċ":{"ha":694,"x_min":87,"x_max":608,"o":"m 608 87 l 521 87 l 521 0 l 174 0 l 174 87 l 87 87 l 87 521 l 174 521 l 174 608 l 521 608 l 521 521 l 608 521 l 608 434 l 434 434 l 434 521 l 260 521 l 260 87 l 434 87 l 434 174 l 608 174 l 608 87 m 434 694 l 260 694 l 260 868 l 434 868 l 434 694 z "},"Č":{"ha":694,"x_min":87,"x_max":608,"o":"m 608 87 l 521 87 l 521 0 l 174 0 l 174 87 l 87 87 l 87 694 l 174 694 l 174 781 l 521 781 l 521 694 l 608 694 l 608 521 l 434 521 l 434 694 l 260 694 l 260 87 l 434 87 l 434 260 l 608 260 l 608 87 m 608 1042 l 521 1042 l 521 955 l 434 955 l 434 868 l 260 868 l 260 955 l 174 955 l 174 1042 l 87 1042 l 87 1128 l 260 1128 l 260 1042 l 434 1042 l 434 1128 l 608 1128 l 608 1042 z "},"č":{"ha":694,"x_min":87,"x_max":608,"o":"m 608 87 l 521 87 l 521 0 l 174 0 l 174 87 l 87 87 l 87 521 l 174 521 l 174 608 l 521 608 l 521 521 l 608 521 l 608 434 l 434 434 l 434 521 l 260 521 l 260 87 l 434 87 l 434 174 l 608 174 l 608 87 m 608 868 l 521 868 l 521 781 l 434 781 l 434 694 l 260 694 l 260 781 l 174 781 l 174 868 l 87 868 l 87 955 l 260 955 l 260 868 l 434 868 l 434 955 l 608 955 l 608 868 z "},"Ď":{"ha":694,"x_min":87,"x_max":608,"o":"m 608 174 l 521 174 l 521 87 l 434 87 l 434 0 l 87 0 l 87 781 l 434 781 l 434 694 l 521 694 l 521 608 l 608 608 l 608 174 m 434 174 l 434 608 l 347 608 l 347 694 l 260 694 l 260 87 l 347 87 l 347 174 l 434 174 m 608 1042 l 521 1042 l 521 955 l 434 955 l 434 868 l 260 868 l 260 955 l 174 955 l 174 1042 l 87 1042 l 87 1128 l 260 1128 l 260 1042 l 434 1042 l 434 1128 l 608 1128 l 608 1042 z "},"ď":{"ha":694,"x_min":87,"x_max":694,"o":"m 521 0 l 174 0 l 174 87 l 87 87 l 87 521 l 174 521 l 174 608 l 347 608 l 347 781 l 521 781 l 521 0 m 347 87 l 347 521 l 260 521 l 260 87 l 347 87 m 694 521 l 608 521 l 608 781 l 694 781 l 694 521 z "},"Đ":{"ha":694,"x_min":0,"x_max":608,"o":"m 608 174 l 521 174 l 521 87 l 434 87 l 434 0 l 87 0 l 87 347 l 0 347 l 0 434 l 87 434 l 87 781 l 434 781 l 434 694 l 521 694 l 521 608 l 608 608 l 608 174 m 434 174 l 434 608 l 347 608 l 347 694 l 260 694 l 260 434 l 347 434 l 347 347 l 260 347 l 260 87 l 347 87 l 347 174 l 434 174 z "},"đ":{"ha":694,"x_min":87,"x_max":694,"o":"m 694 694 l 608 694 l 608 0 l 174 0 l 174 87 l 87 87 l 87 521 l 174 521 l 174 608 l 434 608 l 434 694 l 260 694 l 260 781 l 434 781 l 434 868 l 608 868 l 608 781 l 694 781 l 694 694 m 434 87 l 434 521 l 260 521 l 260 87 l 434 87 z "},"Ē":{"ha":694,"x_min":87,"x_max":608,"o":"m 608 0 l 87 0 l 87 781 l 608 781 l 608 694 l 260 694 l 260 434 l 521 434 l 521 347 l 260 347 l 260 87 l 608 87 l 608 0 m 608 868 l 87 868 l 87 955 l 608 955 l 608 868 z "},"ē":{"ha":694,"x_min":87,"x_max":608,"o":"m 608 260 l 260 260 l 260 87 l 521 87 l 521 0 l 174 0 l 174 87 l 87 87 l 87 521 l 174 521 l 174 608 l 521 608 l 521 521 l 608 521 l 608 260 m 608 694 l 87 694 l 87 781 l 608 781 l 608 694 m 434 347 l 434 521 l 260 521 l 260 347 l 434 347 z "},"Ĕ":{"ha":694,"x_min":87,"x_max":608,"o":"m 608 0 l 87 0 l 87 781 l 608 781 l 608 694 l 260 694 l 260 434 l 521 434 l 521 347 l 260 347 l 260 87 l 608 87 l 608 0 m 608 955 l 521 955 l 521 868 l 174 868 l 174 955 l 87 955 l 87 1042 l 260 1042 l 260 955 l 434 955 l 434 1042 l 608 1042 l 608 955 z "},"ĕ":{"ha":694,"x_min":87,"x_max":608,"o":"m 608 260 l 260 260 l 260 87 l 521 87 l 521 0 l 174 0 l 174 87 l 87 87 l 87 521 l 174 521 l 174 608 l 521 608 l 521 521 l 608 521 l 608 260 m 608 781 l 521 781 l 521 694 l 174 694 l 174 781 l 87 781 l 87 868 l 260 868 l 260 781 l 434 781 l 434 868 l 608 868 l 608 781 m 434 347 l 434 521 l 260 521 l 260 347 l 434 347 z "},"Ė":{"ha":694,"x_min":87,"x_max":608,"o":"m 608 0 l 87 0 l 87 781 l 608 781 l 608 694 l 260 694 l 260 434 l 521 434 l 521 347 l 260 347 l 260 87 l 608 87 l 608 0 m 434 868 l 260 868 l 260 1042 l 434 1042 l 434 868 z "},"ė":{"ha":694,"x_min":87,"x_max":608,"o":"m 608 260 l 260 260 l 260 87 l 521 87 l 521 0 l 174 0 l 174 87 l 87 87 l 87 521 l 174 521 l 174 608 l 521 608 l 521 521 l 608 521 l 608 260 m 434 347 l 434 521 l 260 521 l 260 347 l 434 347 m 434 694 l 260 694 l 260 868 l 434 868 l 434 694 z "},"Ę":{"ha":694,"x_min":87,"x_max":694,"o":"m 694 -260 l 434 -260 l 434 -174 l 347 -174 l 347 0 l 87 0 l 87 781 l 608 781 l 608 694 l 260 694 l 260 434 l 521 434 l 521 347 l 260 347 l 260 87 l 608 87 l 608 0 l 521 0 l 521 -174 l 694 -174 l 694 -260 z "},"ę":{"ha":694,"x_min":87,"x_max":694,"o":"m 694 -260 l 434 -260 l 434 -174 l 347 -174 l 347 0 l 174 0 l 174 87 l 87 87 l 87 521 l 174 521 l 174 608 l 521 608 l 521 521 l 608 521 l 608 260 l 260 260 l 260 87 l 521 87 l 521 -174 l 694 -174 l 694 -260 m 434 347 l 434 521 l 260 521 l 260 347 l 434 347 m 521 174 l 608 174 l 608 87 l 521 87 l 521 174 z "},"Ě":{"ha":694,"x_min":87,"x_max":608,"o":"m 608 0 l 87 0 l 87 781 l 608 781 l 608 694 l 260 694 l 260 434 l 521 434 l 521 347 l 260 347 l 260 87 l 608 87 l 608 0 m 608 1042 l 521 1042 l 521 955 l 434 955 l 434 868 l 260 868 l 260 955 l 174 955 l 174 1042 l 87 1042 l 87 1128 l 260 1128 l 260 1042 l 434 1042 l 434 1128 l 608 1128 l 608 1042 z "},"ě":{"ha":694,"x_min":87,"x_max":608,"o":"m 608 260 l 260 260 l 260 87 l 521 87 l 521 0 l 174 0 l 174 87 l 87 87 l 87 521 l 174 521 l 174 608 l 521 608 l 521 521 l 608 521 l 608 260 m 608 868 l 521 868 l 521 781 l 434 781 l 434 694 l 260 694 l 260 781 l 174 781 l 174 868 l 87 868 l 87 955 l 260 955 l 260 868 l 434 868 l 434 955 l 608 955 l 608 868 m 434 347 l 434 521 l 260 521 l 260 347 l 434 347 z "},"Ĝ":{"ha":694,"x_min":87,"x_max":608,"o":"m 608 0 l 174 0 l 174 87 l 87 87 l 87 694 l 174 694 l 174 781 l 521 781 l 521 694 l 608 694 l 608 521 l 434 521 l 434 694 l 260 694 l 260 87 l 434 87 l 434 260 l 347 260 l 347 347 l 608 347 l 608 0 m 608 868 l 434 868 l 434 955 l 260 955 l 260 868 l 87 868 l 87 955 l 174 955 l 174 1042 l 260 1042 l 260 1128 l 434 1128 l 434 1042 l 521 1042 l 521 955 l 608 955 l 608 868 z "},"ĝ":{"ha":694,"x_min":87,"x_max":608,"o":"m 608 -174 l 521 -174 l 521 -260 l 87 -260 l 87 -174 l 434 -174 l 434 0 l 174 0 l 174 87 l 87 87 l 87 521 l 174 521 l 174 608 l 608 608 l 608 -174 m 434 87 l 434 521 l 260 521 l 260 87 l 434 87 m 608 694 l 434 694 l 434 781 l 260 781 l 260 694 l 87 694 l 87 781 l 174 781 l 174 868 l 260 868 l 260 955 l 434 955 l 434 868 l 521 868 l 521 781 l 608 781 l 608 694 z "},"Ğ":{"ha":694,"x_min":87,"x_max":608,"o":"m 608 0 l 174 0 l 174 87 l 87 87 l 87 694 l 174 694 l 174 781 l 521 781 l 521 694 l 608 694 l 608 521 l 434 521 l 434 694 l 260 694 l 260 87 l 434 87 l 434 260 l 347 260 l 347 347 l 608 347 l 608 0 m 608 955 l 521 955 l 521 868 l 174 868 l 174 955 l 87 955 l 87 1042 l 260 1042 l 260 955 l 434 955 l 434 1042 l 608 1042 l 608 955 z "},"ğ":{"ha":694,"x_min":87,"x_max":608,"o":"m 608 -174 l 521 -174 l 521 -260 l 87 -260 l 87 -174 l 434 -174 l 434 0 l 174 0 l 174 87 l 87 87 l 87 521 l 174 521 l 174 608 l 608 608 l 608 -174 m 434 87 l 434 521 l 260 521 l 260 87 l 434 87 m 608 781 l 521 781 l 521 694 l 174 694 l 174 781 l 87 781 l 87 868 l 260 868 l 260 781 l 434 781 l 434 868 l 608 868 l 608 781 z "},"Ġ":{"ha":694,"x_min":87,"x_max":608,"o":"m 608 0 l 174 0 l 174 87 l 87 87 l 87 694 l 174 694 l 174 781 l 521 781 l 521 694 l 608 694 l 608 521 l 434 521 l 434 694 l 260 694 l 260 87 l 434 87 l 434 260 l 347 260 l 347 347 l 608 347 l 608 0 m 434 868 l 260 868 l 260 1042 l 434 1042 l 434 868 z "},"ġ":{"ha":694,"x_min":87,"x_max":608,"o":"m 608 -174 l 521 -174 l 521 -260 l 87 -260 l 87 -174 l 434 -174 l 434 0 l 174 0 l 174 87 l 87 87 l 87 521 l 174 521 l 174 608 l 608 608 l 608 -174 m 434 87 l 434 521 l 260 521 l 260 87 l 434 87 m 434 694 l 260 694 l 260 868 l 434 868 l 434 694 z "},"Ģ":{"ha":694,"x_min":87,"x_max":608,"o":"m 608 0 l 174 0 l 174 87 l 87 87 l 87 694 l 174 694 l 174 781 l 521 781 l 521 694 l 608 694 l 608 521 l 434 521 l 434 694 l 260 694 l 260 87 l 434 87 l 434 260 l 347 260 l 347 347 l 608 347 l 608 0 m 260 -174 l 260 -87 l 434 -87 l 434 -174 l 347 -174 l 347 -260 l 174 -260 l 174 -174 l 260 -174 z "},"ģ":{"ha":694,"x_min":87,"x_max":608,"o":"m 608 -174 l 521 -174 l 521 -260 l 87 -260 l 87 -174 l 434 -174 l 434 0 l 174 0 l 174 87 l 87 87 l 87 521 l 174 521 l 174 608 l 608 608 l 608 -174 m 434 87 l 434 521 l 260 521 l 260 87 l 434 87 m 260 694 l 260 868 l 347 868 l 347 955 l 521 955 l 521 868 l 434 868 l 434 694 l 260 694 z "},"Ĥ":{"ha":694,"x_min":87,"x_max":608,"o":"m 608 0 l 434 0 l 434 347 l 260 347 l 260 0 l 87 0 l 87 781 l 260 781 l 260 434 l 434 434 l 434 781 l 608 781 l 608 0 m 608 868 l 434 868 l 434 955 l 260 955 l 260 868 l 87 868 l 87 955 l 174 955 l 174 1042 l 260 1042 l 260 1128 l 434 1128 l 434 1042 l 521 1042 l 521 955 l 608 955 l 608 868 z "},"ĥ":{"ha":694,"x_min":87,"x_max":608,"o":"m 608 0 l 434 0 l 434 521 l 260 521 l 260 0 l 87 0 l 87 781 l 260 781 l 260 608 l 521 608 l 521 521 l 608 521 l 608 0 m 608 868 l 434 868 l 434 955 l 260 955 l 260 868 l 87 868 l 87 955 l 174 955 l 174 1042 l 260 1042 l 260 1128 l 434 1128 l 434 1042 l 521 1042 l 521 955 l 608 955 l 608 868 z "},"Ħ":{"ha":694,"x_min":0,"x_max":694,"o":"m 694 521 l 608 521 l 608 0 l 434 0 l 434 347 l 260 347 l 260 0 l 87 0 l 87 521 l 0 521 l 0 608 l 87 608 l 87 781 l 260 781 l 260 608 l 434 608 l 434 781 l 608 781 l 608 608 l 694 608 l 694 521 m 434 434 l 434 521 l 260 521 l 260 434 l 434 434 z "},"ħ":{"ha":694,"x_min":0,"x_max":608,"o":"m 608 0 l 434 0 l 434 521 l 260 521 l 260 0 l 87 0 l 87 694 l 0 694 l 0 781 l 87 781 l 87 868 l 260 868 l 260 781 l 434 781 l 434 694 l 260 694 l 260 608 l 521 608 l 521 521 l 608 521 l 608 0 z "},"Ĩ":{"ha":694,"x_min":87,"x_max":694,"o":"m 521 0 l 174 0 l 174 87 l 260 87 l 260 694 l 174 694 l 174 781 l 521 781 l 521 694 l 434 694 l 434 87 l 521 87 l 521 0 m 694 955 l 608 955 l 608 868 l 347 868 l 347 955 l 260 955 l 260 868 l 87 868 l 87 955 l 174 955 l 174 1042 l 434 1042 l 434 955 l 521 955 l 521 1042 l 694 1042 l 694 955 z "},"ĩ":{"ha":694,"x_min":0,"x_max":608,"o":"m 608 0 l 87 0 l 87 87 l 260 87 l 260 521 l 87 521 l 87 608 l 434 608 l 434 87 l 608 87 l 608 0 m 608 781 l 521 781 l 521 694 l 260 694 l 260 781 l 174 781 l 174 694 l 0 694 l 0 781 l 87 781 l 87 868 l 347 868 l 347 781 l 434 781 l 434 868 l 608 868 l 608 781 z "},"Ī":{"ha":694,"x_min":87,"x_max":608,"o":"m 521 0 l 174 0 l 174 87 l 260 87 l 260 694 l 174 694 l 174 781 l 521 781 l 521 694 l 434 694 l 434 87 l 521 87 l 521 0 m 608 868 l 87 868 l 87 955 l 608 955 l 608 868 z "},"ī":{"ha":694,"x_min":87,"x_max":608,"o":"m 608 0 l 87 0 l 87 87 l 260 87 l 260 521 l 87 521 l 87 608 l 434 608 l 434 87 l 608 87 l 608 0 m 521 694 l 87 694 l 87 781 l 521 781 l 521 694 z "},"Ĭ":{"ha":694,"x_min":87,"x_max":608,"o":"m 521 0 l 174 0 l 174 87 l 260 87 l 260 694 l 174 694 l 174 781 l 521 781 l 521 694 l 434 694 l 434 87 l 521 87 l 521 0 m 608 955 l 521 955 l 521 868 l 174 868 l 174 955 l 87 955 l 87 1042 l 260 1042 l 260 955 l 434 955 l 434 1042 l 608 1042 l 608 955 z "},"ĭ":{"ha":694,"x_min":87,"x_max":608,"o":"m 608 0 l 87 0 l 87 87 l 260 87 l 260 521 l 87 521 l 87 608 l 434 608 l 434 87 l 608 87 l 608 0 m 608 781 l 521 781 l 521 694 l 174 694 l 174 781 l 87 781 l 87 868 l 260 868 l 260 781 l 434 781 l 434 868 l 608 868 l 608 781 z "},"Į":{"ha":694,"x_min":174,"x_max":608,"o":"m 608 -260 l 347 -260 l 347 -174 l 260 -174 l 260 0 l 174 0 l 174 87 l 260 87 l 260 694 l 174 694 l 174 781 l 521 781 l 521 694 l 434 694 l 434 87 l 521 87 l 521 0 l 434 0 l 434 -174 l 608 -174 l 608 -260 z "},"į":{"ha":694,"x_min":87,"x_max":608,"o":"m 608 -260 l 347 -260 l 347 -174 l 260 -174 l 260 0 l 87 0 l 87 87 l 260 87 l 260 521 l 87 521 l 87 608 l 434 608 l 434 87 l 608 87 l 608 0 l 434 0 l 434 -174 l 608 -174 l 608 -260 m 434 694 l 260 694 l 260 868 l 434 868 l 434 694 z "},"İ":{"ha":694,"x_min":174,"x_max":521,"o":"m 521 0 l 174 0 l 174 87 l 260 87 l 260 694 l 174 694 l 174 781 l 521 781 l 521 694 l 434 694 l 434 87 l 521 87 l 521 0 m 434 868 l 260 868 l 260 1042 l 434 1042 l 434 868 z "},"ı":{"ha":694,"x_min":87,"x_max":608,"o":"m 608 0 l 87 0 l 87 87 l 260 87 l 260 521 l 87 521 l 87 608 l 434 608 l 434 87 l 608 87 l 608 0 z "},"Ĳ":{"ha":694,"x_min":0,"x_max":694,"o":"m 694 87 l 608 87 l 608 0 l 347 0 l 347 87 l 260 87 l 260 260 l 434 260 l 434 87 l 521 87 l 521 781 l 694 781 l 694 87 m 0 781 l 174 781 l 174 0 l 0 0 l 0 781 z "},"ĳ":{"ha":694,"x_min":87,"x_max":694,"o":"m 694 -174 l 608 -174 l 608 -260 l 260 -260 l 260 -174 l 521 -174 l 521 521 l 434 521 l 434 608 l 694 608 l 694 -174 m 434 0 l 87 0 l 87 87 l 174 87 l 174 521 l 87 521 l 87 608 l 347 608 l 347 87 l 434 87 l 434 0 m 694 694 l 521 694 l 521 868 l 694 868 l 694 694 m 347 694 l 174 694 l 174 868 l 347 868 l 347 694 z "},"Ĵ":{"ha":694,"x_min":87,"x_max":694,"o":"m 608 87 l 521 87 l 521 0 l 174 0 l 174 87 l 87 87 l 87 260 l 260 260 l 260 87 l 434 87 l 434 781 l 608 781 l 608 87 m 694 868 l 521 868 l 521 955 l 347 955 l 347 868 l 174 868 l 174 955 l 260 955 l 260 1042 l 347 1042 l 347 1128 l 521 1128 l 521 1042 l 608 1042 l 608 955 l 694 955 l 694 868 z "},"ĵ":{"ha":694,"x_min":87,"x_max":608,"o":"m 521 -174 l 434 -174 l 434 -260 l 87 -260 l 87 -174 l 347 -174 l 347 521 l 174 521 l 174 608 l 521 608 l 521 -174 m 608 694 l 434 694 l 434 781 l 260 781 l 260 694 l 87 694 l 87 781 l 174 781 l 174 868 l 260 868 l 260 955 l 434 955 l 434 868 l 521 868 l 521 781 l 608 781 l 608 694 z "},"Ķ":{"ha":694,"x_min":87,"x_max":608,"o":"m 434 0 l 434 174 l 347 174 l 347 347 l 260 347 l 260 0 l 87 0 l 87 781 l 260 781 l 260 434 l 347 434 l 347 608 l 434 608 l 434 781 l 608 781 l 608 608 l 521 608 l 521 434 l 434 434 l 434 347 l 521 347 l 521 174 l 608 174 l 608 0 l 434 0 m 260 -87 l 434 -87 l 434 -174 l 347 -174 l 347 -260 l 174 -260 l 174 -174 l 260 -174 l 260 -87 z "},"ķ":{"ha":694,"x_min":87,"x_max":608,"o":"m 434 0 l 434 174 l 347 174 l 347 260 l 260 260 l 260 0 l 87 0 l 87 781 l 260 781 l 260 347 l 347 347 l 347 434 l 434 434 l 434 608 l 608 608 l 608 434 l 521 434 l 521 347 l 434 347 l 434 260 l 521 260 l 521 174 l 608 174 l 608 0 l 434 0 m 260 -174 l 260 -87 l 434 -87 l 434 -174 l 347 -174 l 347 -260 l 174 -260 l 174 -174 l 260 -174 z "},"ĸ":{"ha":694,"x_min":87,"x_max":608,"o":"m 608 0 l 434 0 l 434 174 l 347 174 l 347 260 l 260 260 l 260 0 l 87 0 l 87 608 l 260 608 l 260 347 l 347 347 l 347 434 l 434 434 l 434 608 l 608 608 l 608 434 l 521 434 l 521 347 l 434 347 l 434 260 l 521 260 l 521 174 l 608 174 l 608 0 z "},"Ĺ":{"ha":694,"x_min":87,"x_max":608,"o":"m 608 0 l 87 0 l 87 781 l 260 781 l 260 87 l 608 87 l 608 0 m 434 955 l 347 955 l 347 868 l 174 868 l 174 955 l 260 955 l 260 1042 l 434 1042 l 434 955 z "},"ĺ":{"ha":694,"x_min":87,"x_max":608,"o":"m 608 0 l 87 0 l 87 87 l 260 87 l 260 694 l 87 694 l 87 781 l 434 781 l 434 87 l 608 87 l 608 0 m 521 955 l 434 955 l 434 868 l 260 868 l 260 955 l 347 955 l 347 1042 l 521 1042 l 521 955 z "},"Ļ":{"ha":694,"x_min":87,"x_max":608,"o":"m 608 0 l 87 0 l 87 781 l 260 781 l 260 87 l 608 87 l 608 0 m 260 -174 l 260 -87 l 434 -87 l 434 -174 l 347 -174 l 347 -260 l 174 -260 l 174 -174 l 260 -174 z "},"ļ":{"ha":694,"x_min":87,"x_max":608,"o":"m 608 0 l 87 0 l 87 87 l 260 87 l 260 694 l 87 694 l 87 781 l 434 781 l 434 87 l 608 87 l 608 0 m 260 -174 l 260 -87 l 434 -87 l 434 -174 l 347 -174 l 347 -260 l 174 -260 l 174 -174 l 260 -174 z "},"Ľ":{"ha":694,"x_min":87,"x_max":608,"o":"m 608 0 l 87 0 l 87 781 l 260 781 l 260 87 l 608 87 l 608 0 m 608 521 l 521 521 l 521 608 l 434 608 l 434 781 l 608 781 l 608 521 m 521 434 l 434 434 l 434 521 l 521 521 l 521 434 z "},"ľ":{"ha":694,"x_min":87,"x_max":694,"o":"m 608 0 l 87 0 l 87 87 l 260 87 l 260 694 l 87 694 l 87 781 l 434 781 l 434 87 l 608 87 l 608 0 m 694 521 l 608 521 l 608 608 l 521 608 l 521 781 l 694 781 l 694 521 m 608 434 l 521 434 l 521 521 l 608 521 l 608 434 z "},"Ŀ":{"ha":694,"x_min":87,"x_max":608,"o":"m 608 0 l 87 0 l 87 781 l 260 781 l 260 87 l 608 87 l 608 0 m 608 434 l 434 434 l 434 608 l 608 608 l 608 434 z "},"ŀ":{"ha":694,"x_min":87,"x_max":694,"o":"m 608 0 l 87 0 l 87 87 l 260 87 l 260 694 l 87 694 l 87 781 l 434 781 l 434 87 l 608 87 l 608 0 m 694 347 l 521 347 l 521 521 l 694 521 l 694 347 z "},"Ł":{"ha":694,"x_min":0,"x_max":608,"o":"m 608 0 l 87 0 l 87 174 l 0 174 l 0 347 l 87 347 l 87 781 l 260 781 l 260 608 l 347 608 l 347 694 l 434 694 l 434 521 l 347 521 l 347 434 l 260 434 l 260 87 l 608 87 l 608 0 z "},"ł":{"ha":694,"x_min":87,"x_max":608,"o":"m 87 347 l 174 347 l 174 434 l 260 434 l 260 694 l 87 694 l 87 781 l 434 781 l 434 608 l 521 608 l 521 694 l 608 694 l 608 521 l 521 521 l 521 434 l 434 434 l 434 87 l 608 87 l 608 0 l 87 0 l 87 87 l 260 87 l 260 260 l 174 260 l 174 174 l 87 174 l 87 347 z "},"Ń":{"ha":694,"x_min":87,"x_max":694,"o":"m 694 0 l 521 0 l 521 260 l 434 260 l 434 347 l 347 347 l 347 434 l 260 434 l 260 0 l 87 0 l 87 781 l 260 781 l 260 608 l 347 608 l 347 521 l 434 521 l 434 434 l 521 434 l 521 781 l 694 781 l 694 0 m 521 955 l 434 955 l 434 868 l 260 868 l 260 955 l 347 955 l 347 1042 l 521 1042 l 521 955 z "},"ń":{"ha":694,"x_min":87,"x_max":608,"o":"m 608 0 l 434 0 l 434 521 l 260 521 l 260 0 l 87 0 l 87 608 l 521 608 l 521 521 l 608 521 l 608 0 m 608 868 l 521 868 l 521 781 l 434 781 l 434 694 l 260 694 l 260 781 l 347 781 l 347 955 l 608 955 l 608 868 z "},"Ņ":{"ha":694,"x_min":87,"x_max":694,"o":"m 87 781 l 260 781 l 260 608 l 347 608 l 347 521 l 434 521 l 434 434 l 521 434 l 521 781 l 694 781 l 694 0 l 521 0 l 521 260 l 434 260 l 434 347 l 347 347 l 347 434 l 260 434 l 260 0 l 87 0 l 87 781 m 347 -87 l 521 -87 l 521 -174 l 434 -174 l 434 -260 l 260 -260 l 260 -174 l 347 -174 l 347 -87 z "},"ņ":{"ha":694,"x_min":87,"x_max":608,"o":"m 434 0 l 434 521 l 260 521 l 260 0 l 87 0 l 87 608 l 521 608 l 521 521 l 608 521 l 608 0 l 434 0 m 260 -174 l 260 -87 l 434 -87 l 434 -174 l 347 -174 l 347 -260 l 174 -260 l 174 -174 l 260 -174 z "},"Ň":{"ha":694,"x_min":87,"x_max":694,"o":"m 694 0 l 521 0 l 521 260 l 434 260 l 434 347 l 347 347 l 347 434 l 260 434 l 260 0 l 87 0 l 87 781 l 260 781 l 260 608 l 347 608 l 347 521 l 434 521 l 434 434 l 521 434 l 521 781 l 694 781 l 694 0 m 694 1042 l 608 1042 l 608 955 l 521 955 l 521 868 l 347 868 l 347 955 l 260 955 l 260 1042 l 174 1042 l 174 1128 l 347 1128 l 347 1042 l 521 1042 l 521 1128 l 694 1128 l 694 1042 z "},"ň":{"ha":694,"x_min":87,"x_max":608,"o":"m 608 0 l 434 0 l 434 521 l 260 521 l 260 0 l 87 0 l 87 608 l 521 608 l 521 521 l 608 521 l 608 0 m 608 868 l 521 868 l 521 781 l 434 781 l 434 694 l 260 694 l 260 781 l 174 781 l 174 868 l 87 868 l 87 955 l 260 955 l 260 868 l 434 868 l 434 955 l 608 955 l 608 868 z "},"ŉ":{"ha":694,"x_min":0,"x_max":694,"o":"m 87 608 l 0 608 l 0 781 l 174 781 l 174 608 l 608 608 l 608 521 l 694 521 l 694 0 l 521 0 l 521 521 l 347 521 l 347 0 l 174 0 l 174 521 l 87 521 l 87 608 m 87 521 l 87 434 l 0 434 l 0 521 l 87 521 z "},"Ŋ":{"ha":694,"x_min":87,"x_max":608,"o":"m 608 -174 l 521 -174 l 521 -260 l 174 -260 l 174 -174 l 434 -174 l 434 694 l 260 694 l 260 0 l 87 0 l 87 781 l 521 781 l 521 694 l 608 694 l 608 -174 z "},"ŋ":{"ha":694,"x_min":87,"x_max":608,"o":"m 608 -174 l 521 -174 l 521 -260 l 260 -260 l 260 -174 l 434 -174 l 434 521 l 260 521 l 260 0 l 87 0 l 87 608 l 521 608 l 521 521 l 608 521 l 608 -174 z "},"Ō":{"ha":694,"x_min":87,"x_max":608,"o":"m 608 87 l 521 87 l 521 0 l 174 0 l 174 87 l 87 87 l 87 694 l 174 694 l 174 781 l 521 781 l 521 694 l 608 694 l 608 87 m 434 87 l 434 694 l 260 694 l 260 87 l 434 87 m 608 868 l 87 868 l 87 955 l 608 955 l 608 868 z "},"ō":{"ha":694,"x_min":87,"x_max":608,"o":"m 608 87 l 521 87 l 521 0 l 174 0 l 174 87 l 87 87 l 87 521 l 174 521 l 174 608 l 521 608 l 521 521 l 608 521 l 608 87 m 434 87 l 434 521 l 260 521 l 260 87 l 434 87 m 608 694 l 87 694 l 87 781 l 608 781 l 608 694 z "},"Ŏ":{"ha":694,"x_min":87,"x_max":608,"o":"m 608 87 l 521 87 l 521 0 l 174 0 l 174 87 l 87 87 l 87 694 l 174 694 l 174 781 l 521 781 l 521 694 l 608 694 l 608 87 m 434 87 l 434 694 l 260 694 l 260 87 l 434 87 m 608 955 l 521 955 l 521 868 l 174 868 l 174 955 l 87 955 l 87 1042 l 260 1042 l 260 955 l 434 955 l 434 1042 l 608 1042 l 608 955 z "},"ŏ":{"ha":694,"x_min":87,"x_max":608,"o":"m 608 87 l 521 87 l 521 0 l 174 0 l 174 87 l 87 87 l 87 521 l 174 521 l 174 608 l 521 608 l 521 521 l 608 521 l 608 87 m 434 87 l 434 521 l 260 521 l 260 87 l 434 87 m 608 781 l 521 781 l 521 694 l 174 694 l 174 781 l 87 781 l 87 868 l 260 868 l 260 781 l 434 781 l 434 868 l 608 868 l 608 781 z "},"Ő":{"ha":694,"x_min":87,"x_max":694,"o":"m 608 87 l 521 87 l 521 0 l 174 0 l 174 87 l 87 87 l 87 694 l 174 694 l 174 781 l 521 781 l 521 694 l 608 694 l 608 87 m 434 87 l 434 694 l 260 694 l 260 87 l 434 87 m 694 955 l 608 955 l 608 868 l 434 868 l 434 955 l 521 955 l 521 1042 l 694 1042 l 694 955 m 347 955 l 260 955 l 260 868 l 87 868 l 87 955 l 174 955 l 174 1042 l 347 1042 l 347 955 z "},"ő":{"ha":694,"x_min":87,"x_max":694,"o":"m 608 87 l 521 87 l 521 0 l 174 0 l 174 87 l 87 87 l 87 521 l 174 521 l 174 608 l 521 608 l 521 521 l 608 521 l 608 87 m 434 87 l 434 521 l 260 521 l 260 87 l 434 87 m 694 781 l 608 781 l 608 694 l 434 694 l 434 781 l 521 781 l 521 868 l 694 868 l 694 781 m 347 781 l 260 781 l 260 694 l 87 694 l 87 781 l 174 781 l 174 868 l 347 868 l 347 781 z "},"Œ":{"ha":694,"x_min":87,"x_max":694,"o":"m 694 0 l 174 0 l 174 87 l 87 87 l 87 694 l 174 694 l 174 781 l 694 781 l 694 694 l 521 694 l 521 434 l 694 434 l 694 347 l 521 347 l 521 87 l 694 87 l 694 0 m 347 87 l 347 694 l 260 694 l 260 87 l 347 87 z "},"œ":{"ha":694,"x_min":0,"x_max":694,"o":"m 260 87 l 260 521 l 347 521 l 347 608 l 608 608 l 608 521 l 694 521 l 694 260 l 434 260 l 434 87 l 694 87 l 694 0 l 434 0 l 434 87 l 356 87 l 356 0 l 87 0 l 87 87 l 0 87 l 0 521 l 87 521 l 87 608 l 260 608 l 260 521 l 174 521 l 174 87 l 260 87 m 521 347 l 521 521 l 434 521 l 434 347 l 521 347 z "},"Ŕ":{"ha":694,"x_min":87,"x_max":608,"o":"m 608 0 l 434 0 l 434 260 l 347 260 l 347 347 l 260 347 l 260 0 l 87 0 l 87 781 l 521 781 l 521 694 l 608 694 l 608 434 l 521 434 l 521 260 l 608 260 l 608 0 m 434 434 l 434 694 l 260 694 l 260 434 l 434 434 m 521 955 l 434 955 l 434 868 l 260 868 l 260 955 l 347 955 l 347 1042 l 521 1042 l 521 955 z "},"ŕ":{"ha":694,"x_min":87,"x_max":608,"o":"m 347 347 l 260 347 l 260 0 l 87 0 l 87 608 l 260 608 l 260 434 l 347 434 l 347 347 m 608 868 l 521 868 l 521 781 l 434 781 l 434 694 l 260 694 l 260 781 l 347 781 l 347 955 l 608 955 l 608 868 m 608 434 l 347 434 l 347 521 l 434 521 l 434 608 l 608 608 l 608 434 z "},"Ŗ":{"ha":694,"x_min":87,"x_max":608,"o":"m 434 0 l 434 260 l 347 260 l 347 347 l 260 347 l 260 0 l 87 0 l 87 781 l 521 781 l 521 694 l 608 694 l 608 434 l 521 434 l 521 260 l 608 260 l 608 0 l 434 0 m 434 434 l 434 694 l 260 694 l 260 434 l 434 434 m 260 -174 l 260 -87 l 434 -87 l 434 -174 l 347 -174 l 347 -260 l 174 -260 l 174 -174 l 260 -174 z "},"ŗ":{"ha":694,"x_min":87,"x_max":608,"o":"m 260 0 l 87 0 l 87 608 l 260 608 l 260 434 l 347 434 l 347 347 l 260 347 l 260 0 m 608 434 l 347 434 l 347 521 l 434 521 l 434 608 l 608 608 l 608 434 m 174 -174 l 174 -87 l 347 -87 l 347 -174 l 260 -174 l 260 -260 l 87 -260 l 87 -174 l 174 -174 z "},"Ř":{"ha":694,"x_min":87,"x_max":608,"o":"m 608 0 l 434 0 l 434 260 l 347 260 l 347 347 l 260 347 l 260 0 l 87 0 l 87 781 l 521 781 l 521 694 l 608 694 l 608 434 l 521 434 l 521 260 l 608 260 l 608 0 m 434 434 l 434 694 l 260 694 l 260 434 l 434 434 m 608 1042 l 521 1042 l 521 955 l 434 955 l 434 868 l 260 868 l 260 955 l 174 955 l 174 1042 l 87 1042 l 87 1128 l 260 1128 l 260 1042 l 434 1042 l 434 1128 l 608 1128 l 608 1042 z "},"ř":{"ha":694,"x_min":87,"x_max":608,"o":"m 347 347 l 260 347 l 260 0 l 87 0 l 87 608 l 260 608 l 260 434 l 347 434 l 347 347 m 608 868 l 521 868 l 521 781 l 434 781 l 434 694 l 260 694 l 260 781 l 174 781 l 174 868 l 87 868 l 87 955 l 260 955 l 260 868 l 434 868 l 434 955 l 608 955 l 608 868 m 608 434 l 347 434 l 347 521 l 434 521 l 434 608 l 608 608 l 608 434 z "},"Ś":{"ha":694,"x_min":87,"x_max":608,"o":"m 608 87 l 521 87 l 521 0 l 174 0 l 174 87 l 87 87 l 87 174 l 260 174 l 260 87 l 434 87 l 434 260 l 347 260 l 347 347 l 260 347 l 260 434 l 174 434 l 174 521 l 87 521 l 87 694 l 174 694 l 174 781 l 521 781 l 521 694 l 608 694 l 608 608 l 434 608 l 434 694 l 260 694 l 260 521 l 347 521 l 347 434 l 434 434 l 434 347 l 521 347 l 521 260 l 608 260 l 608 87 m 521 955 l 434 955 l 434 868 l 260 868 l 260 955 l 347 955 l 347 1042 l 521 1042 l 521 955 z "},"ś":{"ha":694,"x_min":87,"x_max":608,"o":"m 608 87 l 521 87 l 521 0 l 87 0 l 87 87 l 434 87 l 434 260 l 174 260 l 174 347 l 87 347 l 87 521 l 174 521 l 174 608 l 608 608 l 608 521 l 260 521 l 260 347 l 521 347 l 521 260 l 608 260 l 608 87 m 608 868 l 521 868 l 521 781 l 434 781 l 434 694 l 260 694 l 260 781 l 347 781 l 347 955 l 608 955 l 608 868 z "},"Ŝ":{"ha":694,"x_min":87,"x_max":608,"o":"m 608 87 l 521 87 l 521 0 l 174 0 l 174 87 l 87 87 l 87 174 l 260 174 l 260 87 l 434 87 l 434 260 l 347 260 l 347 347 l 260 347 l 260 434 l 174 434 l 174 521 l 87 521 l 87 694 l 174 694 l 174 781 l 521 781 l 521 694 l 608 694 l 608 608 l 434 608 l 434 694 l 260 694 l 260 521 l 347 521 l 347 434 l 434 434 l 434 347 l 521 347 l 521 260 l 608 260 l 608 87 m 260 1128 l 434 1128 l 434 1042 l 521 1042 l 521 955 l 608 955 l 608 868 l 434 868 l 434 955 l 260 955 l 260 868 l 87 868 l 87 955 l 174 955 l 174 1042 l 260 1042 l 260 1128 z "},"ŝ":{"ha":694,"x_min":87,"x_max":608,"o":"m 608 87 l 521 87 l 521 0 l 87 0 l 87 87 l 434 87 l 434 260 l 174 260 l 174 347 l 87 347 l 87 521 l 174 521 l 174 608 l 608 608 l 608 521 l 260 521 l 260 347 l 521 347 l 521 260 l 608 260 l 608 87 m 608 694 l 434 694 l 434 781 l 260 781 l 260 694 l 87 694 l 87 781 l 174 781 l 174 868 l 260 868 l 260 955 l 434 955 l 434 868 l 521 868 l 521 781 l 608 781 l 608 694 z "},"Ş":{"ha":694,"x_min":87,"x_max":608,"o":"m 608 87 l 521 87 l 521 0 l 434 0 l 434 -87 l 521 -87 l 521 -174 l 434 -174 l 434 -260 l 174 -260 l 174 -174 l 347 -174 l 347 -87 l 260 -87 l 260 0 l 174 0 l 174 87 l 87 87 l 87 174 l 260 174 l 260 87 l 434 87 l 434 260 l 347 260 l 347 347 l 260 347 l 260 434 l 174 434 l 174 521 l 87 521 l 87 694 l 174 694 l 174 781 l 521 781 l 521 694 l 608 694 l 608 608 l 434 608 l 434 694 l 260 694 l 260 521 l 347 521 l 347 434 l 434 434 l 434 347 l 521 347 l 521 260 l 608 260 l 608 87 z "},"ş":{"ha":694,"x_min":87,"x_max":608,"o":"m 608 87 l 521 87 l 521 0 l 434 0 l 434 -87 l 521 -87 l 521 -174 l 434 -174 l 434 -260 l 174 -260 l 174 -174 l 347 -174 l 347 -87 l 260 -87 l 260 0 l 87 0 l 87 87 l 434 87 l 434 260 l 174 260 l 174 347 l 87 347 l 87 521 l 174 521 l 174 608 l 608 608 l 608 521 l 260 521 l 260 347 l 521 347 l 521 260 l 608 260 l 608 87 z "},"Š":{"ha":694,"x_min":87,"x_max":608,"o":"m 608 87 l 521 87 l 521 0 l 174 0 l 174 87 l 87 87 l 87 174 l 260 174 l 260 87 l 434 87 l 434 260 l 347 260 l 347 347 l 260 347 l 260 434 l 174 434 l 174 521 l 87 521 l 87 694 l 174 694 l 174 781 l 521 781 l 521 694 l 608 694 l 608 608 l 434 608 l 434 694 l 260 694 l 260 521 l 347 521 l 347 434 l 434 434 l 434 347 l 521 347 l 521 260 l 608 260 l 608 87 m 608 1042 l 521 1042 l 521 955 l 434 955 l 434 868 l 260 868 l 260 955 l 174 955 l 174 1042 l 87 1042 l 87 1128 l 260 1128 l 260 1042 l 434 1042 l 434 1128 l 608 1128 l 608 1042 z "},"š":{"ha":694,"x_min":87,"x_max":608,"o":"m 608 87 l 521 87 l 521 0 l 87 0 l 87 87 l 434 87 l 434 260 l 174 260 l 174 347 l 87 347 l 87 521 l 174 521 l 174 608 l 608 608 l 608 521 l 260 521 l 260 347 l 521 347 l 521 260 l 608 260 l 608 87 m 608 868 l 521 868 l 521 781 l 434 781 l 434 694 l 260 694 l 260 781 l 174 781 l 174 868 l 87 868 l 87 955 l 260 955 l 260 868 l 434 868 l 434 955 l 608 955 l 608 868 z "},"Ţ":{"ha":694,"x_min":87,"x_max":608,"o":"m 608 694 l 434 694 l 434 -87 l 521 -87 l 521 -174 l 434 -174 l 434 -260 l 174 -260 l 174 -174 l 347 -174 l 347 -87 l 260 -87 l 260 694 l 87 694 l 87 781 l 608 781 l 608 694 z "},"ţ":{"ha":694,"x_min":87,"x_max":608,"o":"m 608 0 l 434 0 l 434 -87 l 521 -87 l 521 -174 l 434 -174 l 434 -260 l 174 -260 l 174 -174 l 347 -174 l 347 -87 l 260 -87 l 260 87 l 174 87 l 174 521 l 87 521 l 87 608 l 174 608 l 174 781 l 347 781 l 347 608 l 608 608 l 608 521 l 347 521 l 347 87 l 608 87 l 608 0 z "},"Ť":{"ha":694,"x_min":87,"x_max":608,"o":"m 608 694 l 434 694 l 434 0 l 260 0 l 260 694 l 87 694 l 87 781 l 608 781 l 608 694 m 608 1042 l 521 1042 l 521 955 l 434 955 l 434 868 l 260 868 l 260 955 l 174 955 l 174 1042 l 87 1042 l 87 1128 l 260 1128 l 260 1042 l 434 1042 l 434 1128 l 608 1128 l 608 1042 z "},"ť":{"ha":694,"x_min":0,"x_max":694,"o":"m 434 0 l 174 0 l 174 87 l 87 87 l 87 521 l 0 521 l 0 608 l 87 608 l 87 781 l 260 781 l 260 608 l 434 608 l 434 521 l 260 521 l 260 87 l 434 87 l 434 0 m 694 521 l 608 521 l 608 608 l 521 608 l 521 781 l 694 781 l 694 521 m 608 434 l 521 434 l 521 521 l 608 521 l 608 434 z "},"Ŧ":{"ha":694,"x_min":87,"x_max":608,"o":"m 608 694 l 434 694 l 434 434 l 521 434 l 521 347 l 434 347 l 434 0 l 260 0 l 260 347 l 174 347 l 174 434 l 260 434 l 260 694 l 87 694 l 87 781 l 608 781 l 608 694 z "},"ŧ":{"ha":694,"x_min":87,"x_max":608,"o":"m 608 0 l 260 0 l 260 87 l 174 87 l 174 347 l 87 347 l 87 434 l 174 434 l 174 521 l 87 521 l 87 608 l 174 608 l 174 781 l 347 781 l 347 608 l 608 608 l 608 521 l 347 521 l 347 434 l 521 434 l 521 347 l 347 347 l 347 87 l 608 87 l 608 0 z "},"Ũ":{"ha":694,"x_min":87,"x_max":694,"o":"m 608 87 l 521 87 l 521 0 l 174 0 l 174 87 l 87 87 l 87 781 l 260 781 l 260 87 l 434 87 l 434 781 l 608 781 l 608 87 m 694 955 l 608 955 l 608 868 l 347 868 l 347 955 l 260 955 l 260 868 l 87 868 l 87 955 l 174 955 l 174 1042 l 434 1042 l 434 955 l 521 955 l 521 1042 l 694 1042 l 694 955 z "},"ũ":{"ha":694,"x_min":87,"x_max":694,"o":"m 608 0 l 174 0 l 174 87 l 87 87 l 87 608 l 260 608 l 260 87 l 434 87 l 434 608 l 608 608 l 608 0 m 694 781 l 608 781 l 608 694 l 347 694 l 347 781 l 260 781 l 260 694 l 87 694 l 87 781 l 174 781 l 174 868 l 434 868 l 434 781 l 521 781 l 521 868 l 694 868 l 694 781 z "},"Ū":{"ha":694,"x_min":87,"x_max":608,"o":"m 608 87 l 521 87 l 521 0 l 174 0 l 174 87 l 87 87 l 87 781 l 260 781 l 260 87 l 434 87 l 434 781 l 608 781 l 608 87 m 608 868 l 87 868 l 87 955 l 608 955 l 608 868 z "},"ū":{"ha":694,"x_min":87,"x_max":608,"o":"m 608 0 l 174 0 l 174 87 l 87 87 l 87 608 l 260 608 l 260 87 l 434 87 l 434 608 l 608 608 l 608 0 m 608 694 l 87 694 l 87 781 l 608 781 l 608 694 z "},"Ŭ":{"ha":694,"x_min":87,"x_max":608,"o":"m 608 87 l 521 87 l 521 0 l 174 0 l 174 87 l 87 87 l 87 781 l 260 781 l 260 87 l 434 87 l 434 781 l 608 781 l 608 87 m 608 955 l 521 955 l 521 868 l 174 868 l 174 955 l 87 955 l 87 1042 l 260 1042 l 260 955 l 434 955 l 434 1042 l 608 1042 l 608 955 z "},"ŭ":{"ha":694,"x_min":87,"x_max":608,"o":"m 608 0 l 174 0 l 174 87 l 87 87 l 87 608 l 260 608 l 260 87 l 434 87 l 434 608 l 608 608 l 608 0 m 608 781 l 521 781 l 521 694 l 174 694 l 174 781 l 87 781 l 87 868 l 260 868 l 260 781 l 434 781 l 434 868 l 608 868 l 608 781 z "},"Ů":{"ha":694,"x_min":87,"x_max":608,"o":"m 608 87 l 521 87 l 521 0 l 174 0 l 174 87 l 87 87 l 87 781 l 260 781 l 260 87 l 434 87 l 434 781 l 608 781 l 608 87 m 608 955 l 521 955 l 521 868 l 174 868 l 174 955 l 87 955 l 87 1042 l 174 1042 l 174 1128 l 521 1128 l 521 1042 l 608 1042 l 608 955 m 434 955 l 434 1042 l 260 1042 l 260 955 l 434 955 z "},"ů":{"ha":694,"x_min":87,"x_max":608,"o":"m 608 0 l 174 0 l 174 87 l 87 87 l 87 608 l 260 608 l 260 87 l 434 87 l 434 608 l 608 608 l 608 0 m 608 781 l 521 781 l 521 694 l 174 694 l 174 781 l 87 781 l 87 868 l 174 868 l 174 955 l 521 955 l 521 868 l 608 868 l 608 781 m 434 781 l 434 868 l 260 868 l 260 781 l 434 781 z "},"Ű":{"ha":694,"x_min":87,"x_max":694,"o":"m 608 87 l 521 87 l 521 0 l 174 0 l 174 87 l 87 87 l 87 781 l 260 781 l 260 87 l 434 87 l 434 781 l 608 781 l 608 87 m 694 955 l 608 955 l 608 868 l 434 868 l 434 955 l 521 955 l 521 1042 l 694 1042 l 694 955 m 347 955 l 260 955 l 260 868 l 87 868 l 87 955 l 174 955 l 174 1042 l 347 1042 l 347 955 z "},"ű":{"ha":694,"x_min":87,"x_max":694,"o":"m 608 0 l 174 0 l 174 87 l 87 87 l 87 608 l 260 608 l 260 87 l 434 87 l 434 608 l 608 608 l 608 0 m 694 781 l 608 781 l 608 694 l 434 694 l 434 781 l 521 781 l 521 868 l 694 868 l 694 781 m 347 781 l 260 781 l 260 694 l 87 694 l 87 781 l 174 781 l 174 868 l 347 868 l 347 781 z "},"Ų":{"ha":694,"x_min":87,"x_max":608,"o":"m 608 -174 l 608 -260 l 347 -260 l 347 -174 l 260 -174 l 260 0 l 174 0 l 174 87 l 87 87 l 87 781 l 260 781 l 260 87 l 434 87 l 434 781 l 608 781 l 608 87 l 521 87 l 521 0 l 434 0 l 434 -174 l 608 -174 z "},"ų":{"ha":694,"x_min":87,"x_max":694,"o":"m 694 -260 l 434 -260 l 434 -174 l 347 -174 l 347 0 l 174 0 l 174 87 l 87 87 l 87 608 l 260 608 l 260 87 l 434 87 l 434 608 l 608 608 l 608 0 l 521 0 l 521 -174 l 694 -174 l 694 -260 z "},"Ŵ":{"ha":694,"x_min":87,"x_max":694,"o":"m 694 260 l 608 260 l 608 0 l 434 0 l 434 260 l 347 260 l 347 521 l 434 521 l 434 260 l 521 260 l 521 781 l 694 781 l 694 260 m 347 0 l 174 0 l 174 260 l 87 260 l 87 781 l 260 781 l 260 260 l 347 260 l 347 0 m 608 868 l 434 868 l 434 955 l 260 955 l 260 868 l 87 868 l 87 955 l 174 955 l 174 1042 l 260 1042 l 260 1128 l 434 1128 l 434 1042 l 521 1042 l 521 955 l 608 955 l 608 868 z "},"ŵ":{"ha":694,"x_min":87,"x_max":694,"o":"m 694 174 l 608 174 l 608 0 l 434 0 l 434 174 l 347 174 l 347 521 l 434 521 l 434 174 l 521 174 l 521 608 l 694 608 l 694 174 m 347 0 l 174 0 l 174 174 l 87 174 l 87 608 l 260 608 l 260 174 l 347 174 l 347 0 m 608 694 l 434 694 l 434 781 l 260 781 l 260 694 l 87 694 l 87 781 l 174 781 l 174 868 l 260 868 l 260 955 l 434 955 l 434 868 l 521 868 l 521 781 l 608 781 l 608 694 z "},"Ŷ":{"ha":694,"x_min":87,"x_max":608,"o":"m 608 434 l 521 434 l 521 347 l 434 347 l 434 0 l 260 0 l 260 347 l 174 347 l 174 434 l 87 434 l 87 781 l 260 781 l 260 434 l 434 434 l 434 781 l 608 781 l 608 434 m 260 1128 l 434 1128 l 434 1042 l 521 1042 l 521 955 l 608 955 l 608 868 l 434 868 l 434 955 l 260 955 l 260 868 l 87 868 l 87 955 l 174 955 l 174 1042 l 260 1042 l 260 1128 z "},"ŷ":{"ha":694,"x_min":0,"x_max":608,"o":"m 608 87 l 521 87 l 521 -87 l 434 -87 l 434 -174 l 347 -174 l 347 -260 l 0 -260 l 0 -174 l 260 -174 l 260 -87 l 347 -87 l 347 0 l 174 0 l 174 87 l 87 87 l 87 608 l 260 608 l 260 87 l 434 87 l 434 608 l 608 608 l 608 87 m 608 694 l 434 694 l 434 781 l 260 781 l 260 694 l 87 694 l 87 781 l 174 781 l 174 868 l 260 868 l 260 955 l 434 955 l 434 868 l 521 868 l 521 781 l 608 781 l 608 694 z "},"Ÿ":{"ha":694,"x_min":87,"x_max":608,"o":"m 608 434 l 521 434 l 521 347 l 434 347 l 434 0 l 260 0 l 260 347 l 174 347 l 174 434 l 87 434 l 87 781 l 260 781 l 260 434 l 434 434 l 434 781 l 608 781 l 608 434 m 608 868 l 434 868 l 434 1042 l 608 1042 l 608 868 m 260 868 l 87 868 l 87 1042 l 260 1042 l 260 868 z "},"Ź":{"ha":694,"x_min":87,"x_max":608,"o":"m 608 0 l 87 0 l 87 260 l 174 260 l 174 347 l 260 347 l 260 434 l 347 434 l 347 521 l 434 521 l 434 694 l 87 694 l 87 781 l 608 781 l 608 521 l 521 521 l 521 434 l 434 434 l 434 347 l 347 347 l 347 260 l 260 260 l 260 87 l 608 87 l 608 0 m 521 955 l 434 955 l 434 868 l 260 868 l 260 955 l 347 955 l 347 1042 l 521 1042 l 521 955 z "},"ź":{"ha":694,"x_min":87,"x_max":608,"o":"m 608 0 l 87 0 l 87 174 l 174 174 l 174 260 l 260 260 l 260 347 l 347 347 l 347 434 l 434 434 l 434 521 l 87 521 l 87 608 l 608 608 l 608 434 l 521 434 l 521 347 l 434 347 l 434 260 l 347 260 l 347 174 l 260 174 l 260 87 l 608 87 l 608 0 m 608 868 l 521 868 l 521 781 l 434 781 l 434 694 l 260 694 l 260 781 l 347 781 l 347 955 l 608 955 l 608 868 z "},"Ż":{"ha":694,"x_min":87,"x_max":608,"o":"m 608 0 l 87 0 l 87 260 l 174 260 l 174 347 l 260 347 l 260 434 l 347 434 l 347 521 l 434 521 l 434 694 l 87 694 l 87 781 l 608 781 l 608 521 l 521 521 l 521 434 l 434 434 l 434 347 l 347 347 l 347 260 l 260 260 l 260 87 l 608 87 l 608 0 m 434 868 l 260 868 l 260 1042 l 434 1042 l 434 868 z "},"ż":{"ha":694,"x_min":87,"x_max":608,"o":"m 608 0 l 87 0 l 87 174 l 174 174 l 174 260 l 260 260 l 260 347 l 347 347 l 347 434 l 434 434 l 434 521 l 87 521 l 87 608 l 608 608 l 608 434 l 521 434 l 521 347 l 434 347 l 434 260 l 347 260 l 347 174 l 260 174 l 260 87 l 608 87 l 608 0 m 434 694 l 260 694 l 260 868 l 434 868 l 434 694 z "},"Ž":{"ha":694,"x_min":87,"x_max":608,"o":"m 608 0 l 87 0 l 87 260 l 174 260 l 174 347 l 260 347 l 260 434 l 347 434 l 347 521 l 434 521 l 434 694 l 87 694 l 87 781 l 608 781 l 608 521 l 521 521 l 521 434 l 434 434 l 434 347 l 347 347 l 347 260 l 260 260 l 260 87 l 608 87 l 608 0 m 608 1042 l 521 1042 l 521 955 l 434 955 l 434 868 l 260 868 l 260 955 l 174 955 l 174 1042 l 87 1042 l 87 1128 l 260 1128 l 260 1042 l 434 1042 l 434 1128 l 608 1128 l 608 1042 z "},"ž":{"ha":694,"x_min":87,"x_max":608,"o":"m 608 0 l 87 0 l 87 174 l 174 174 l 174 260 l 260 260 l 260 347 l 347 347 l 347 434 l 434 434 l 434 521 l 87 521 l 87 608 l 608 608 l 608 434 l 521 434 l 521 347 l 434 347 l 434 260 l 347 260 l 347 174 l 260 174 l 260 87 l 608 87 l 608 0 m 608 868 l 521 868 l 521 781 l 434 781 l 434 694 l 260 694 l 260 781 l 174 781 l 174 868 l 87 868 l 87 955 l 260 955 l 260 868 l 434 868 l 434 955 l 608 955 l 608 868 z "},"ſ":{"ha":694,"x_min":174,"x_max":694,"o":"m 174 434 l 260 434 l 260 694 l 347 694 l 347 781 l 694 781 l 694 694 l 434 694 l 434 0 l 260 0 l 260 347 l 174 347 l 174 434 z "},"ƀ":{"ha":694,"x_min":0,"x_max":608,"o":"m 608 87 l 521 87 l 521 0 l 87 0 l 87 694 l 0 694 l 0 781 l 87 781 l 87 868 l 260 868 l 260 781 l 434 781 l 434 694 l 260 694 l 260 608 l 521 608 l 521 521 l 608 521 l 608 87 m 434 87 l 434 521 l 260 521 l 260 87 l 434 87 z "},"Ɓ":{"ha":694,"x_min":-87,"x_max":608,"o":"m -87 955 l -87 1042 l 174 1042 l 174 955 l 260 955 l 260 781 l 521 781 l 521 694 l 608 694 l 608 434 l 521 434 l 521 347 l 608 347 l 608 87 l 521 87 l 521 0 l 87 0 l 87 955 l -87 955 m 434 434 l 434 694 l 260 694 l 260 434 l 434 434 m 434 87 l 434 347 l 260 347 l 260 87 l 434 87 z "},"Ƃ":{"ha":694,"x_min":87,"x_max":608,"o":"m 608 87 l 521 87 l 521 0 l 87 0 l 87 781 l 608 781 l 608 694 l 260 694 l 260 434 l 521 434 l 521 347 l 608 347 l 608 87 m 434 87 l 434 347 l 260 347 l 260 87 l 434 87 z "},"ƃ":{"ha":694,"x_min":87,"x_max":608,"o":"m 608 87 l 521 87 l 521 0 l 87 0 l 87 781 l 521 781 l 521 694 l 260 694 l 260 608 l 521 608 l 521 521 l 608 521 l 608 87 m 434 87 l 434 521 l 260 521 l 260 87 l 434 87 z "},"Ƅ":{"ha":694,"x_min":0,"x_max":608,"o":"m 87 608 l 0 608 l 0 694 l 87 694 l 87 781 l 260 781 l 260 434 l 521 434 l 521 347 l 608 347 l 608 87 l 521 87 l 521 0 l 87 0 l 87 608 m 434 87 l 434 347 l 260 347 l 260 87 l 434 87 z "},"ƅ":{"ha":694,"x_min":0,"x_max":608,"o":"m 608 87 l 521 87 l 521 0 l 174 0 l 174 87 l 87 87 l 87 608 l 0 608 l 0 694 l 87 694 l 87 781 l 260 781 l 260 608 l 521 608 l 521 521 l 608 521 l 608 87 m 434 87 l 434 521 l 260 521 l 260 87 l 434 87 z "},"Ɔ":{"ha":694,"x_min":87,"x_max":608,"o":"m 608 87 l 521 87 l 521 0 l 174 0 l 174 87 l 87 87 l 87 260 l 260 260 l 260 87 l 434 87 l 434 694 l 260 694 l 260 521 l 87 521 l 87 694 l 174 694 l 174 781 l 521 781 l 521 694 l 608 694 l 608 87 z "},"Ƈ":{"ha":694,"x_min":87,"x_max":694,"o":"m 608 521 l 434 521 l 434 694 l 260 694 l 260 87 l 434 87 l 434 260 l 608 260 l 608 87 l 521 87 l 521 0 l 174 0 l 174 87 l 87 87 l 87 694 l 174 694 l 174 781 l 434 781 l 434 868 l 608 868 l 608 521 m 521 955 l 694 955 l 694 868 l 521 868 l 521 955 z "},"ƈ":{"ha":694,"x_min":87,"x_max":694,"o":"m 608 434 l 434 434 l 434 521 l 260 521 l 260 87 l 434 87 l 434 174 l 608 174 l 608 87 l 521 87 l 521 0 l 174 0 l 174 87 l 87 87 l 87 521 l 174 521 l 174 608 l 434 608 l 434 694 l 521 694 l 521 781 l 694 781 l 694 694 l 608 694 l 608 434 z "},"Ɖ":{"ha":694,"x_min":0,"x_max":608,"o":"m 608 174 l 521 174 l 521 87 l 434 87 l 434 0 l 87 0 l 87 347 l 0 347 l 0 434 l 87 434 l 87 781 l 434 781 l 434 694 l 521 694 l 521 608 l 608 608 l 608 174 m 434 174 l 434 608 l 347 608 l 347 694 l 260 694 l 260 434 l 347 434 l 347 347 l 260 347 l 260 87 l 347 87 l 347 174 l 434 174 z "},"Ɗ":{"ha":694,"x_min":-174,"x_max":608,"o":"m -174 868 l -87 868 l -87 955 l 174 955 l 174 868 l 260 868 l 260 781 l 434 781 l 434 694 l 521 694 l 521 608 l 608 608 l 608 174 l 521 174 l 521 87 l 434 87 l 434 0 l 87 0 l 87 868 l 0 868 l 0 781 l -174 781 l -174 868 m 434 174 l 434 608 l 347 608 l 347 694 l 260 694 l 260 87 l 347 87 l 347 174 l 434 174 z "},"Ƌ":{"ha":694,"x_min":87,"x_max":608,"o":"m 608 0 l 174 0 l 174 87 l 87 87 l 87 347 l 174 347 l 174 434 l 434 434 l 434 694 l 174 694 l 174 781 l 608 781 l 608 0 m 434 87 l 434 347 l 260 347 l 260 87 l 434 87 z "},"ƌ":{"ha":694,"x_min":87,"x_max":608,"o":"m 608 0 l 174 0 l 174 87 l 87 87 l 87 521 l 174 521 l 174 608 l 434 608 l 434 694 l 174 694 l 174 781 l 608 781 l 608 0 m 434 87 l 434 521 l 260 521 l 260 87 l 434 87 z "},"ƍ":{"ha":694,"x_min":87,"x_max":608,"o":"m 174 -260 l 174 -174 l 347 -174 l 347 0 l 174 0 l 174 87 l 87 87 l 87 521 l 174 521 l 174 608 l 521 608 l 521 521 l 608 521 l 608 87 l 521 87 l 521 -174 l 434 -174 l 434 -260 l 174 -260 m 434 521 l 260 521 l 260 87 l 434 87 l 434 521 z "},"Ǝ":{"ha":694,"x_min":87,"x_max":608,"o":"m 608 0 l 87 0 l 87 87 l 434 87 l 434 347 l 174 347 l 174 434 l 434 434 l 434 694 l 87 694 l 87 781 l 608 781 l 608 0 z "},"Ə":{"ha":694,"x_min":87,"x_max":608,"o":"m 608 87 l 521 87 l 521 0 l 174 0 l 174 87 l 87 87 l 87 434 l 434 434 l 434 694 l 260 694 l 260 521 l 87 521 l 87 694 l 174 694 l 174 781 l 521 781 l 521 694 l 608 694 l 608 87 m 434 87 l 434 347 l 260 347 l 260 87 l 434 87 z "},"Ɛ":{"ha":694,"x_min":87,"x_max":608,"o":"m 608 87 l 521 87 l 521 0 l 174 0 l 174 87 l 87 87 l 87 347 l 174 347 l 174 434 l 87 434 l 87 694 l 174 694 l 174 781 l 521 781 l 521 694 l 608 694 l 608 521 l 434 521 l 434 694 l 260 694 l 260 434 l 434 434 l 434 347 l 260 347 l 260 87 l 434 87 l 434 260 l 608 260 l 608 87 z "},"Ƒ":{"ha":694,"x_min":0,"x_max":608,"o":"m 608 694 l 260 694 l 260 434 l 521 434 l 521 347 l 260 347 l 260 -174 l 174 -174 l 174 -260 l 0 -260 l 0 -174 l 87 -174 l 87 781 l 608 781 l 608 694 z "},"ƒ":{"ha":694,"x_min":0,"x_max":608,"o":"m 608 694 l 347 694 l 347 434 l 608 434 l 608 347 l 347 347 l 347 -174 l 260 -174 l 260 -260 l 0 -260 l 0 -174 l 174 -174 l 174 347 l 87 347 l 87 434 l 174 434 l 174 694 l 260 694 l 260 781 l 608 781 l 608 694 z "},"Ɠ":{"ha":694,"x_min":87,"x_max":694,"o":"m 521 955 l 694 955 l 694 868 l 608 868 l 608 521 l 434 521 l 434 694 l 260 694 l 260 87 l 434 87 l 434 260 l 347 260 l 347 347 l 608 347 l 608 0 l 174 0 l 174 87 l 87 87 l 87 694 l 174 694 l 174 781 l 434 781 l 434 868 l 521 868 l 521 955 z "},"Ɣ":{"ha":694,"x_min":87,"x_max":608,"o":"m 521 87 l 521 0 l 608 0 l 608 -174 l 521 -174 l 521 -260 l 174 -260 l 174 -174 l 87 -174 l 87 0 l 174 0 l 174 87 l 260 87 l 260 174 l 174 174 l 174 260 l 87 260 l 87 781 l 260 781 l 260 260 l 434 260 l 434 781 l 608 781 l 608 260 l 521 260 l 521 174 l 434 174 l 434 87 l 521 87 m 434 -174 l 434 0 l 260 0 l 260 -174 l 434 -174 z "},"ƕ":{"ha":694,"x_min":0,"x_max":694,"o":"m 521 87 l 521 608 l 694 608 l 694 87 l 608 87 l 608 0 l 347 0 l 347 87 l 260 87 l 260 521 l 174 521 l 174 0 l 0 0 l 0 781 l 174 781 l 174 608 l 347 608 l 347 521 l 434 521 l 434 87 l 521 87 z "},"Ɩ":{"ha":694,"x_min":174,"x_max":608,"o":"m 521 0 l 260 0 l 260 87 l 174 87 l 174 781 l 347 781 l 347 87 l 434 87 l 434 174 l 608 174 l 608 87 l 521 87 l 521 0 z "},"Ɨ":{"ha":694,"x_min":87,"x_max":608,"o":"m 608 347 l 434 347 l 434 87 l 521 87 l 521 0 l 174 0 l 174 87 l 260 87 l 260 347 l 87 347 l 87 434 l 260 434 l 260 694 l 174 694 l 174 781 l 521 781 l 521 694 l 434 694 l 434 434 l 608 434 l 608 347 z "},"Ƙ":{"ha":694,"x_min":87,"x_max":781,"o":"m 608 781 l 521 781 l 521 434 l 434 434 l 434 347 l 521 347 l 521 174 l 608 174 l 608 0 l 434 0 l 434 174 l 347 174 l 347 347 l 260 347 l 260 0 l 87 0 l 87 781 l 260 781 l 260 434 l 347 434 l 347 781 l 434 781 l 434 868 l 694 868 l 694 781 l 781 781 l 781 608 l 608 608 l 608 781 z "},"ƙ":{"ha":694,"x_min":87,"x_max":608,"o":"m 608 0 l 434 0 l 434 174 l 347 174 l 347 260 l 260 260 l 260 0 l 87 0 l 87 781 l 174 781 l 174 868 l 434 868 l 434 781 l 260 781 l 260 347 l 347 347 l 347 434 l 434 434 l 434 608 l 608 608 l 608 434 l 521 434 l 521 347 l 434 347 l 434 260 l 521 260 l 521 174 l 608 174 l 608 0 z "},"ƚ":{"ha":694,"x_min":87,"x_max":608,"o":"m 608 0 l 87 0 l 87 87 l 260 87 l 260 347 l 87 347 l 87 434 l 260 434 l 260 694 l 87 694 l 87 781 l 434 781 l 434 434 l 608 434 l 608 347 l 434 347 l 434 87 l 608 87 l 608 0 z "},"ƛ":{"ha":694,"x_min":87,"x_max":608,"o":"m 608 0 l 434 0 l 434 347 l 260 347 l 260 0 l 87 0 l 87 347 l 174 347 l 174 434 l 87 434 l 87 608 l 174 608 l 174 781 l 347 781 l 347 694 l 434 694 l 434 781 l 521 781 l 521 608 l 434 608 l 434 434 l 521 434 l 521 347 l 608 347 l 608 0 m 260 434 l 260 521 l 174 521 l 174 434 l 260 434 z "},"Ɯ":{"ha":694,"x_min":87,"x_max":694,"o":"m 694 0 l 174 0 l 174 87 l 87 87 l 87 781 l 260 781 l 260 87 l 347 87 l 347 781 l 434 781 l 434 87 l 521 87 l 521 781 l 694 781 l 694 0 z "},"Ɲ":{"ha":694,"x_min":0,"x_max":694,"o":"m 694 0 l 521 0 l 521 260 l 434 260 l 434 347 l 347 347 l 347 434 l 260 434 l 260 -174 l 174 -174 l 174 -260 l 0 -260 l 0 -174 l 87 -174 l 87 781 l 260 781 l 260 608 l 347 608 l 347 521 l 434 521 l 434 434 l 521 434 l 521 781 l 694 781 l 694 0 z "},"ƞ":{"ha":694,"x_min":87,"x_max":608,"o":"m 608 -260 l 434 -260 l 434 521 l 260 521 l 260 0 l 87 0 l 87 608 l 521 608 l 521 521 l 608 521 l 608 -260 z "},"Ɵ":{"ha":694,"x_min":87,"x_max":608,"o":"m 608 87 l 521 87 l 521 0 l 174 0 l 174 87 l 87 87 l 87 694 l 174 694 l 174 781 l 521 781 l 521 694 l 608 694 l 608 87 m 434 87 l 434 347 l 260 347 l 260 87 l 434 87 m 434 434 l 434 694 l 260 694 l 260 434 l 434 434 z "},"Ơ":{"ha":694,"x_min":87,"x_max":694,"o":"m 608 87 l 521 87 l 521 0 l 174 0 l 174 87 l 87 87 l 87 694 l 174 694 l 174 781 l 521 781 l 521 694 l 608 694 l 608 781 l 521 781 l 521 955 l 694 955 l 694 608 l 608 608 l 608 87 m 434 694 l 260 694 l 260 87 l 434 87 l 434 694 z "},"ơ":{"ha":694,"x_min":87,"x_max":694,"o":"m 521 781 l 694 781 l 694 434 l 608 434 l 608 87 l 521 87 l 521 0 l 174 0 l 174 87 l 87 87 l 87 521 l 174 521 l 174 608 l 521 608 l 521 521 l 608 521 l 608 608 l 521 608 l 521 781 m 434 521 l 260 521 l 260 87 l 434 87 l 434 521 z "},"Ƣ":{"ha":694,"x_min":87,"x_max":694,"o":"m 694 -260 l 521 -260 l 521 694 l 434 694 l 434 0 l 174 0 l 174 87 l 87 87 l 87 694 l 174 694 l 174 781 l 694 781 l 694 -260 m 347 87 l 347 694 l 260 694 l 260 87 l 347 87 z "},"ƣ":{"ha":694,"x_min":87,"x_max":694,"o":"m 694 -260 l 521 -260 l 521 521 l 434 521 l 434 0 l 174 0 l 174 87 l 87 87 l 87 521 l 174 521 l 174 608 l 608 608 l 608 521 l 694 521 l 694 -260 m 347 87 l 347 521 l 260 521 l 260 87 l 347 87 z "},"Ƥ":{"ha":694,"x_min":-174,"x_max":608,"o":"m -174 868 l -87 868 l -87 955 l 174 955 l 174 868 l 260 868 l 260 781 l 521 781 l 521 694 l 608 694 l 608 434 l 521 434 l 521 347 l 260 347 l 260 0 l 87 0 l 87 868 l 0 868 l 0 781 l -174 781 l -174 868 m 434 434 l 434 694 l 260 694 l 260 434 l 434 434 z "},"ƥ":{"ha":694,"x_min":87,"x_max":608,"o":"m 608 87 l 521 87 l 521 0 l 260 0 l 260 -260 l 87 -260 l 87 781 l 174 781 l 174 868 l 434 868 l 434 781 l 260 781 l 260 608 l 521 608 l 521 521 l 608 521 l 608 87 m 434 87 l 434 521 l 260 521 l 260 87 l 434 87 z "},"Ʀ":{"ha":694,"x_min":87,"x_max":694,"o":"m 694 -260 l 521 -260 l 521 -174 l 434 -174 l 434 174 l 347 174 l 347 260 l 260 260 l 260 0 l 87 0 l 87 781 l 260 781 l 260 694 l 521 694 l 521 608 l 608 608 l 608 347 l 521 347 l 521 174 l 608 174 l 608 -174 l 694 -174 l 694 -260 m 434 347 l 434 608 l 260 608 l 260 347 l 434 347 z "},"Ƨ":{"ha":694,"x_min":87,"x_max":608,"o":"m 608 87 l 521 87 l 521 0 l 174 0 l 174 87 l 87 87 l 87 260 l 174 260 l 174 347 l 260 347 l 260 434 l 347 434 l 347 521 l 434 521 l 434 694 l 260 694 l 260 608 l 87 608 l 87 694 l 174 694 l 174 781 l 521 781 l 521 694 l 608 694 l 608 521 l 521 521 l 521 434 l 434 434 l 434 347 l 347 347 l 347 260 l 260 260 l 260 87 l 434 87 l 434 174 l 608 174 l 608 87 z "},"ƨ":{"ha":694,"x_min":87,"x_max":608,"o":"m 608 0 l 174 0 l 174 87 l 87 87 l 87 260 l 174 260 l 174 347 l 434 347 l 434 521 l 87 521 l 87 608 l 521 608 l 521 521 l 608 521 l 608 347 l 521 347 l 521 260 l 260 260 l 260 87 l 608 87 l 608 0 z "},"Ʃ":{"ha":694,"x_min":87,"x_max":608,"o":"m 608 0 l 87 0 l 87 260 l 174 260 l 174 347 l 260 347 l 260 434 l 174 434 l 174 521 l 87 521 l 87 781 l 608 781 l 608 694 l 260 694 l 260 521 l 347 521 l 347 434 l 434 434 l 434 347 l 347 347 l 347 260 l 260 260 l 260 87 l 608 87 l 608 0 z "},"ƪ":{"ha":694,"x_min":87,"x_max":694,"o":"m 694 -260 l 434 -260 l 434 -174 l 347 -174 l 347 521 l 174 521 l 174 608 l 87 608 l 87 781 l 174 781 l 174 868 l 434 868 l 434 781 l 521 781 l 521 -174 l 694 -174 l 694 -260 m 347 608 l 347 781 l 260 781 l 260 608 l 347 608 z "},"ƫ":{"ha":694,"x_min":87,"x_max":608,"o":"m 608 -174 l 521 -174 l 521 -260 l 174 -260 l 174 -174 l 87 -174 l 87 -87 l 260 -87 l 260 -174 l 434 -174 l 434 0 l 260 0 l 260 87 l 174 87 l 174 521 l 87 521 l 87 608 l 174 608 l 174 781 l 347 781 l 347 608 l 608 608 l 608 521 l 347 521 l 347 87 l 608 87 l 608 -174 z "},"Ƭ":{"ha":694,"x_min":87,"x_max":694,"o":"m 694 694 l 521 694 l 521 0 l 347 0 l 347 694 l 260 694 l 260 521 l 87 521 l 87 694 l 174 694 l 174 781 l 694 781 l 694 694 z "},"ƭ":{"ha":694,"x_min":87,"x_max":608,"o":"m 608 0 l 260 0 l 260 87 l 174 87 l 174 521 l 87 521 l 87 608 l 174 608 l 174 781 l 260 781 l 260 868 l 521 868 l 521 781 l 347 781 l 347 608 l 608 608 l 608 521 l 347 521 l 347 87 l 608 87 l 608 0 z "},"Ʈ":{"ha":694,"x_min":87,"x_max":608,"o":"m 608 -260 l 347 -260 l 347 -174 l 260 -174 l 260 694 l 87 694 l 87 781 l 608 781 l 608 694 l 434 694 l 434 -174 l 608 -174 l 608 -260 z "},"Ư":{"ha":694,"x_min":87,"x_max":694,"o":"m 608 694 l 608 781 l 521 781 l 521 955 l 694 955 l 694 608 l 608 608 l 608 87 l 521 87 l 521 0 l 174 0 l 174 87 l 87 87 l 87 781 l 260 781 l 260 87 l 434 87 l 434 781 l 521 781 l 521 694 l 608 694 z "},"ư":{"ha":694,"x_min":87,"x_max":694,"o":"m 521 781 l 694 781 l 694 434 l 608 434 l 608 0 l 174 0 l 174 87 l 87 87 l 87 608 l 260 608 l 260 87 l 434 87 l 434 608 l 521 608 l 521 781 m 608 521 l 608 608 l 521 608 l 521 521 l 608 521 z "},"Ʊ":{"ha":694,"x_min":87,"x_max":694,"o":"m 694 87 l 608 87 l 608 0 l 174 0 l 174 87 l 87 87 l 87 608 l 174 608 l 174 694 l 87 694 l 87 781 l 347 781 l 347 608 l 260 608 l 260 87 l 521 87 l 521 608 l 434 608 l 434 781 l 694 781 l 694 694 l 608 694 l 608 608 l 694 608 l 694 87 z "},"Ʋ":{"ha":694,"x_min":87,"x_max":608,"o":"m 608 174 l 521 174 l 521 87 l 434 87 l 434 0 l 260 0 l 260 87 l 174 87 l 174 174 l 87 174 l 87 781 l 260 781 l 260 174 l 434 174 l 434 781 l 347 781 l 347 868 l 521 868 l 521 781 l 608 781 l 608 174 z "},"Ƴ":{"ha":694,"x_min":87,"x_max":781,"o":"m 521 868 l 781 868 l 781 781 l 608 781 l 608 434 l 521 434 l 521 347 l 434 347 l 434 0 l 260 0 l 260 347 l 174 347 l 174 434 l 87 434 l 87 781 l 260 781 l 260 434 l 434 434 l 434 781 l 521 781 l 521 868 z "},"ƴ":{"ha":694,"x_min":0,"x_max":781,"o":"m 781 694 l 608 694 l 608 87 l 521 87 l 521 -87 l 434 -87 l 434 -174 l 347 -174 l 347 -260 l 0 -260 l 0 -174 l 260 -174 l 260 -87 l 347 -87 l 347 0 l 174 0 l 174 87 l 87 87 l 87 608 l 260 608 l 260 87 l 434 87 l 434 694 l 521 694 l 521 781 l 781 781 l 781 694 z "},"Ƶ":{"ha":694,"x_min":87,"x_max":608,"o":"m 608 0 l 87 0 l 87 260 l 174 260 l 174 347 l 87 347 l 87 434 l 347 434 l 347 521 l 434 521 l 434 694 l 87 694 l 87 781 l 608 781 l 608 521 l 521 521 l 521 434 l 608 434 l 608 347 l 347 347 l 347 260 l 260 260 l 260 87 l 608 87 l 608 0 z "},"ƶ":{"ha":694,"x_min":87,"x_max":608,"o":"m 608 0 l 87 0 l 87 174 l 174 174 l 174 260 l 87 260 l 87 347 l 347 347 l 347 434 l 434 434 l 434 521 l 87 521 l 87 608 l 608 608 l 608 434 l 521 434 l 521 347 l 608 347 l 608 260 l 347 260 l 347 174 l 260 174 l 260 87 l 608 87 l 608 0 z "},"Ʒ":{"ha":694,"x_min":87,"x_max":608,"o":"m 608 87 l 521 87 l 521 0 l 174 0 l 174 87 l 87 87 l 87 174 l 260 174 l 260 87 l 434 87 l 434 434 l 260 434 l 260 521 l 347 521 l 347 608 l 434 608 l 434 694 l 87 694 l 87 781 l 608 781 l 608 608 l 521 608 l 521 434 l 608 434 l 608 87 z "},"Ƹ":{"ha":694,"x_min":87,"x_max":608,"o":"m 608 87 l 521 87 l 521 0 l 174 0 l 174 87 l 87 87 l 87 434 l 174 434 l 174 608 l 87 608 l 87 781 l 608 781 l 608 694 l 260 694 l 260 608 l 347 608 l 347 521 l 434 521 l 434 434 l 260 434 l 260 87 l 434 87 l 434 174 l 608 174 l 608 87 z "},"ƹ":{"ha":694,"x_min":87,"x_max":608,"o":"m 608 -174 l 521 -174 l 521 -260 l 174 -260 l 174 -174 l 87 -174 l 87 174 l 174 174 l 174 260 l 260 260 l 260 347 l 174 347 l 174 434 l 87 434 l 87 608 l 608 608 l 608 521 l 260 521 l 260 434 l 347 434 l 347 347 l 434 347 l 434 260 l 521 260 l 521 174 l 260 174 l 260 -174 l 434 -174 l 434 -87 l 608 -87 l 608 -174 z "},"ƺ":{"ha":694,"x_min":87,"x_max":608,"o":"m 608 -174 l 521 -174 l 521 -260 l 174 -260 l 174 -174 l 87 -174 l 87 0 l 174 0 l 174 87 l 347 87 l 347 260 l 174 260 l 174 347 l 260 347 l 260 434 l 347 434 l 347 521 l 87 521 l 87 608 l 608 608 l 608 521 l 521 521 l 521 434 l 434 434 l 434 260 l 521 260 l 521 87 l 434 87 l 434 0 l 260 0 l 260 -174 l 434 -174 l 434 -87 l 608 -87 l 608 -174 z "},"ƻ":{"ha":694,"x_min":87,"x_max":608,"o":"m 608 0 l 87 0 l 87 174 l 174 174 l 174 260 l 87 260 l 87 347 l 347 347 l 347 434 l 434 434 l 434 694 l 260 694 l 260 521 l 87 521 l 87 694 l 174 694 l 174 781 l 521 781 l 521 694 l 608 694 l 608 434 l 521 434 l 521 347 l 608 347 l 608 260 l 347 260 l 347 174 l 260 174 l 260 87 l 608 87 l 608 0 z "},"Ƽ":{"ha":694,"x_min":87,"x_max":608,"o":"m 87 781 l 608 781 l 608 694 l 347 694 l 347 434 l 521 434 l 521 347 l 608 347 l 608 174 l 521 174 l 521 87 l 434 87 l 434 0 l 87 0 l 87 87 l 347 87 l 347 174 l 434 174 l 434 347 l 174 347 l 174 694 l 87 694 l 87 781 z "},"ƽ":{"ha":694,"x_min":87,"x_max":608,"o":"m 608 87 l 521 87 l 521 0 l 174 0 l 174 87 l 434 87 l 434 260 l 174 260 l 174 521 l 87 521 l 87 608 l 608 608 l 608 521 l 347 521 l 347 347 l 521 347 l 521 260 l 608 260 l 608 87 z "},"ƾ":{"ha":694,"x_min":87,"x_max":608,"o":"m 608 87 l 521 87 l 521 0 l 87 0 l 87 87 l 434 87 l 434 260 l 260 260 l 260 347 l 174 347 l 174 521 l 87 521 l 87 608 l 174 608 l 174 781 l 347 781 l 347 608 l 608 608 l 608 521 l 347 521 l 347 347 l 521 347 l 521 260 l 608 260 l 608 87 z "},"ƿ":{"ha":694,"x_min":87,"x_max":608,"o":"m 608 260 l 521 260 l 521 174 l 434 174 l 434 87 l 347 87 l 347 0 l 260 0 l 260 -260 l 87 -260 l 87 608 l 521 608 l 521 521 l 608 521 l 608 260 m 434 260 l 434 521 l 260 521 l 260 174 l 347 174 l 347 260 l 434 260 z "},"ǀ":{"ha":694,"x_min":260,"x_max":434,"o":"m 434 0 l 260 0 l 260 781 l 434 781 l 434 0 z "},"ǁ":{"ha":694,"x_min":174,"x_max":608,"o":"m 608 0 l 434 0 l 434 781 l 608 781 l 608 0 m 347 0 l 174 0 l 174 781 l 347 781 l 347 0 z "},"ǂ":{"ha":694,"x_min":87,"x_max":608,"o":"m 608 260 l 434 260 l 434 0 l 260 0 l 260 260 l 87 260 l 87 347 l 260 347 l 260 434 l 87 434 l 87 521 l 260 521 l 260 781 l 434 781 l 434 521 l 608 521 l 608 434 l 434 434 l 434 347 l 608 347 l 608 260 z "},"ǃ":{"ha":694,"x_min":174,"x_max":521,"o":"m 521 434 l 434 434 l 434 260 l 260 260 l 260 434 l 174 434 l 174 694 l 260 694 l 260 781 l 434 781 l 434 694 l 521 694 l 521 434 m 434 0 l 260 0 l 260 174 l 434 174 l 434 0 z "},"Ǆ":{"ha":694,"x_min":0,"x_max":694,"o":"m 347 781 l 694 781 l 694 521 l 608 521 l 608 260 l 521 260 l 521 87 l 694 87 l 694 0 l 347 0 l 347 87 l 260 87 l 260 694 l 174 694 l 174 87 l 260 87 l 260 0 l 0 0 l 0 781 l 260 781 l 260 694 l 347 694 l 347 781 m 347 260 l 434 260 l 434 521 l 521 521 l 521 694 l 347 694 l 347 260 m 347 1042 l 521 1042 l 521 955 l 608 955 l 608 868 l 434 868 l 434 955 l 347 955 l 347 1042 m 608 1042 l 694 1042 l 694 955 l 608 955 l 608 1042 z "},"ǅ":{"ha":694,"x_min":0,"x_max":694,"o":"m 608 434 l 608 260 l 521 260 l 521 87 l 694 87 l 694 0 l 347 0 l 347 87 l 260 87 l 260 694 l 174 694 l 174 87 l 260 87 l 260 0 l 0 0 l 0 781 l 260 781 l 260 694 l 347 694 l 347 608 l 694 608 l 694 434 l 608 434 m 521 521 l 347 521 l 347 260 l 434 260 l 434 434 l 521 434 l 521 521 m 347 868 l 521 868 l 521 781 l 608 781 l 608 694 l 434 694 l 434 781 l 347 781 l 347 868 m 608 868 l 694 868 l 694 781 l 608 781 l 608 868 z "},"ǆ":{"ha":694,"x_min":0,"x_max":694,"o":"m 87 87 l 174 87 l 174 521 l 87 521 l 87 608 l 174 608 l 174 781 l 347 781 l 347 608 l 694 608 l 694 434 l 608 434 l 608 260 l 521 260 l 521 87 l 694 87 l 694 0 l 87 0 l 87 87 m 87 87 l 0 87 l 0 521 l 87 521 l 87 87 m 347 868 l 521 868 l 521 781 l 608 781 l 608 694 l 434 694 l 434 781 l 347 781 l 347 868 m 521 521 l 347 521 l 347 260 l 434 260 l 434 434 l 521 434 l 521 521 m 608 868 l 694 868 l 694 781 l 608 781 l 608 868 z "},"Ǉ":{"ha":694,"x_min":0,"x_max":694,"o":"m 0 781 l 174 781 l 174 87 l 260 87 l 260 260 l 434 260 l 434 87 l 521 87 l 521 781 l 694 781 l 694 87 l 608 87 l 608 0 l 0 0 l 0 781 z "},"ǈ":{"ha":694,"x_min":0,"x_max":694,"o":"m 694 -174 l 608 -174 l 608 -260 l 260 -260 l 260 -174 l 521 -174 l 521 521 l 347 521 l 347 608 l 694 608 l 694 -174 m 434 0 l 0 0 l 0 781 l 174 781 l 174 87 l 434 87 l 434 0 m 694 694 l 521 694 l 521 868 l 694 868 l 694 694 z "},"ǉ":{"ha":694,"x_min":87,"x_max":694,"o":"m 694 -174 l 608 -174 l 608 -260 l 347 -260 l 347 -174 l 521 -174 l 521 521 l 434 521 l 434 608 l 694 608 l 694 -174 m 434 0 l 87 0 l 87 87 l 174 87 l 174 694 l 87 694 l 87 781 l 347 781 l 347 87 l 434 87 l 434 0 m 694 694 l 521 694 l 521 868 l 694 868 l 694 694 z "},"Ǌ":{"ha":694,"x_min":0,"x_max":694,"o":"m 174 0 l 0 0 l 0 781 l 174 781 l 174 608 l 260 608 l 260 781 l 347 781 l 347 260 l 434 260 l 434 87 l 521 87 l 521 781 l 694 781 l 694 87 l 608 87 l 608 0 l 434 0 l 434 87 l 347 87 l 347 0 l 260 0 l 260 347 l 174 347 l 174 0 z "},"ǋ":{"ha":694,"x_min":0,"x_max":694,"o":"m 174 0 l 0 0 l 0 781 l 174 781 l 174 608 l 260 608 l 260 434 l 347 434 l 347 781 l 434 781 l 434 608 l 694 608 l 694 -174 l 608 -174 l 608 -260 l 347 -260 l 347 -174 l 521 -174 l 521 521 l 434 521 l 434 0 l 347 0 l 347 260 l 260 260 l 260 434 l 174 434 l 174 0 m 694 694 l 521 694 l 521 868 l 694 868 l 694 694 z "},"ǌ":{"ha":694,"x_min":0,"x_max":694,"o":"m 434 0 l 260 0 l 260 521 l 174 521 l 174 0 l 0 0 l 0 608 l 347 608 l 347 521 l 434 521 l 434 0 m 694 -174 l 608 -174 l 608 -260 l 347 -260 l 347 -174 l 521 -174 l 521 521 l 434 521 l 434 608 l 694 608 l 694 -174 m 694 694 l 521 694 l 521 868 l 694 868 l 694 694 z "},"Ǎ":{"ha":694,"x_min":87,"x_max":608,"o":"m 608 0 l 434 0 l 434 260 l 260 260 l 260 0 l 87 0 l 87 608 l 174 608 l 174 694 l 260 694 l 260 781 l 434 781 l 434 694 l 521 694 l 521 608 l 608 608 l 608 0 m 260 955 l 174 955 l 174 1042 l 87 1042 l 87 1128 l 260 1128 l 260 1042 l 434 1042 l 434 1128 l 608 1128 l 608 1042 l 521 1042 l 521 955 l 434 955 l 434 868 l 260 868 l 260 955 m 434 347 l 434 608 l 260 608 l 260 347 l 434 347 z "},"ǎ":{"ha":694,"x_min":87,"x_max":608,"o":"m 608 0 l 174 0 l 174 87 l 87 87 l 87 260 l 174 260 l 174 347 l 434 347 l 434 521 l 174 521 l 174 608 l 521 608 l 521 521 l 608 521 l 608 0 m 608 868 l 521 868 l 521 781 l 434 781 l 434 694 l 260 694 l 260 781 l 174 781 l 174 868 l 87 868 l 87 955 l 260 955 l 260 868 l 434 868 l 434 955 l 608 955 l 608 868 m 434 87 l 434 260 l 260 260 l 260 87 l 434 87 z "},"Ǐ":{"ha":694,"x_min":87,"x_max":608,"o":"m 521 0 l 174 0 l 174 87 l 260 87 l 260 694 l 174 694 l 174 781 l 521 781 l 521 694 l 434 694 l 434 87 l 521 87 l 521 0 m 260 955 l 174 955 l 174 1042 l 87 1042 l 87 1128 l 260 1128 l 260 1042 l 434 1042 l 434 1128 l 608 1128 l 608 1042 l 521 1042 l 521 955 l 434 955 l 434 868 l 260 868 l 260 955 z "},"ǐ":{"ha":694,"x_min":87,"x_max":608,"o":"m 608 0 l 87 0 l 87 87 l 260 87 l 260 521 l 87 521 l 87 608 l 434 608 l 434 87 l 608 87 l 608 0 m 608 868 l 521 868 l 521 781 l 434 781 l 434 694 l 260 694 l 260 781 l 174 781 l 174 868 l 87 868 l 87 955 l 260 955 l 260 868 l 434 868 l 434 955 l 608 955 l 608 868 z "},"Ǒ":{"ha":694,"x_min":87,"x_max":608,"o":"m 608 87 l 521 87 l 521 0 l 174 0 l 174 87 l 87 87 l 87 694 l 174 694 l 174 781 l 521 781 l 521 694 l 608 694 l 608 87 m 434 87 l 434 694 l 260 694 l 260 87 l 434 87 m 260 955 l 174 955 l 174 1042 l 87 1042 l 87 1128 l 260 1128 l 260 1042 l 434 1042 l 434 1128 l 608 1128 l 608 1042 l 521 1042 l 521 955 l 434 955 l 434 868 l 260 868 l 260 955 z "},"ǒ":{"ha":694,"x_min":87,"x_max":608,"o":"m 608 87 l 521 87 l 521 0 l 174 0 l 174 87 l 87 87 l 87 521 l 174 521 l 174 608 l 521 608 l 521 521 l 608 521 l 608 87 m 608 868 l 521 868 l 521 781 l 434 781 l 434 694 l 260 694 l 260 781 l 174 781 l 174 868 l 87 868 l 87 955 l 260 955 l 260 868 l 434 868 l 434 955 l 608 955 l 608 868 m 434 87 l 434 521 l 260 521 l 260 87 l 434 87 z "},"Ǔ":{"ha":694,"x_min":87,"x_max":608,"o":"m 608 87 l 521 87 l 521 0 l 174 0 l 174 87 l 87 87 l 87 781 l 260 781 l 260 87 l 434 87 l 434 781 l 608 781 l 608 87 m 260 955 l 174 955 l 174 1042 l 87 1042 l 87 1128 l 260 1128 l 260 1042 l 434 1042 l 434 1128 l 608 1128 l 608 1042 l 521 1042 l 521 955 l 434 955 l 434 868 l 260 868 l 260 955 z "},"ǔ":{"ha":694,"x_min":87,"x_max":608,"o":"m 608 0 l 174 0 l 174 87 l 87 87 l 87 608 l 260 608 l 260 87 l 434 87 l 434 608 l 608 608 l 608 0 m 608 868 l 521 868 l 521 781 l 434 781 l 434 694 l 260 694 l 260 781 l 174 781 l 174 868 l 87 868 l 87 955 l 260 955 l 260 868 l 434 868 l 434 955 l 608 955 l 608 868 z "},"Ǖ":{"ha":694,"x_min":87,"x_max":608,"o":"m 608 87 l 521 87 l 521 0 l 174 0 l 174 87 l 87 87 l 87 781 l 260 781 l 260 87 l 434 87 l 434 781 l 608 781 l 608 87 m 608 1042 l 87 1042 l 87 1128 l 608 1128 l 608 1042 m 260 868 l 87 868 l 87 955 l 260 955 l 260 868 m 608 868 l 434 868 l 434 955 l 608 955 l 608 868 z "},"ǖ":{"ha":694,"x_min":87,"x_max":608,"o":"m 608 0 l 174 0 l 174 87 l 87 87 l 87 608 l 260 608 l 260 87 l 434 87 l 434 608 l 608 608 l 608 0 m 608 955 l 87 955 l 87 1042 l 608 1042 l 608 955 m 260 694 l 87 694 l 87 868 l 260 868 l 260 694 m 608 694 l 434 694 l 434 868 l 608 868 l 608 694 z "},"Ǘ":{"ha":694,"x_min":87,"x_max":608,"o":"m 608 87 l 521 87 l 521 0 l 174 0 l 174 87 l 87 87 l 87 781 l 260 781 l 260 87 l 434 87 l 434 781 l 608 781 l 608 87 m 608 868 l 434 868 l 434 955 l 608 955 l 608 868 m 260 868 l 87 868 l 87 955 l 260 955 l 260 868 m 347 1128 l 521 1128 l 521 1042 l 434 1042 l 434 955 l 260 955 l 260 1042 l 347 1042 l 347 1128 z "},"ǘ":{"ha":694,"x_min":87,"x_max":608,"o":"m 608 0 l 174 0 l 174 87 l 87 87 l 87 608 l 260 608 l 260 87 l 434 87 l 434 608 l 608 608 l 608 0 m 347 1128 l 608 1128 l 608 1042 l 521 1042 l 521 955 l 434 955 l 434 868 l 260 868 l 260 955 l 347 955 l 347 1128 m 87 868 l 260 868 l 260 694 l 87 694 l 87 868 m 434 868 l 608 868 l 608 694 l 434 694 l 434 868 z "},"Ǚ":{"ha":694,"x_min":78,"x_max":608,"o":"m 608 87 l 521 87 l 521 0 l 174 0 l 174 87 l 87 87 l 78 781 l 252 781 l 260 87 l 434 87 l 425 781 l 599 781 l 608 87 m 174 955 l 174 1042 l 78 1042 l 78 1128 l 252 1128 l 252 1042 l 425 1042 l 425 1128 l 599 1128 l 599 1042 l 521 1042 l 521 955 l 425 955 l 425 868 l 252 868 l 252 955 l 174 955 m 78 955 l 174 955 l 174 868 l 78 868 l 78 955 m 521 868 l 521 955 l 599 955 l 599 868 l 521 868 z "},"ǚ":{"ha":694,"x_min":87,"x_max":608,"o":"m 608 0 l 174 0 l 174 87 l 87 87 l 87 608 l 260 608 l 260 87 l 434 87 l 434 608 l 608 608 l 608 0 m 434 1128 l 608 1128 l 608 1042 l 521 1042 l 521 955 l 434 955 l 434 868 l 608 868 l 608 694 l 434 694 l 434 868 l 260 868 l 260 955 l 174 955 l 174 1042 l 87 1042 l 87 1128 l 260 1128 l 260 1042 l 434 1042 l 434 1128 m 260 694 l 87 694 l 87 868 l 260 868 l 260 694 z "},"Ǜ":{"ha":694,"x_min":87,"x_max":608,"o":"m 608 87 l 521 87 l 521 0 l 174 0 l 174 87 l 87 87 l 87 781 l 260 781 l 260 87 l 434 87 l 434 781 l 608 781 l 608 87 m 434 955 l 260 955 l 260 1042 l 174 1042 l 174 1128 l 347 1128 l 347 1042 l 434 1042 l 434 955 m 260 868 l 87 868 l 87 955 l 260 955 l 260 868 m 608 868 l 434 868 l 434 955 l 608 955 l 608 868 z "},"ǜ":{"ha":694,"x_min":87,"x_max":608,"o":"m 608 0 l 174 0 l 174 87 l 87 87 l 87 608 l 260 608 l 260 87 l 434 87 l 434 608 l 608 608 l 608 0 m 87 1128 l 347 1128 l 347 955 l 434 955 l 434 868 l 608 868 l 608 694 l 434 694 l 434 868 l 260 868 l 260 955 l 174 955 l 174 1042 l 87 1042 l 87 1128 m 87 868 l 260 868 l 260 694 l 87 694 l 87 868 z "},"ǝ":{"ha":694,"x_min":87,"x_max":608,"o":"m 608 87 l 521 87 l 521 0 l 174 0 l 174 87 l 87 87 l 87 347 l 434 347 l 434 521 l 174 521 l 174 608 l 521 608 l 521 521 l 608 521 l 608 87 m 434 87 l 434 260 l 260 260 l 260 87 l 434 87 z "},"Ǟ":{"ha":694,"x_min":87,"x_max":608,"o":"m 608 0 l 434 0 l 434 260 l 260 260 l 260 0 l 87 0 l 87 608 l 174 608 l 174 694 l 260 694 l 260 781 l 87 781 l 87 955 l 260 955 l 260 781 l 434 781 l 434 694 l 521 694 l 521 608 l 608 608 l 608 0 m 608 1042 l 87 1042 l 87 1128 l 608 1128 l 608 1042 m 434 955 l 608 955 l 608 781 l 434 781 l 434 955 m 434 347 l 434 608 l 260 608 l 260 347 l 434 347 z "},"ǟ":{"ha":694,"x_min":87,"x_max":608,"o":"m 608 0 l 174 0 l 174 87 l 87 87 l 87 260 l 174 260 l 174 347 l 434 347 l 434 521 l 174 521 l 174 608 l 521 608 l 521 521 l 608 521 l 608 0 m 608 955 l 87 955 l 87 1042 l 608 1042 l 608 955 m 608 694 l 434 694 l 434 868 l 608 868 l 608 694 m 260 694 l 87 694 l 87 868 l 260 868 l 260 694 m 434 87 l 434 260 l 260 260 l 260 87 l 434 87 z "},"Ǡ":{"ha":694,"x_min":87,"x_max":608,"o":"m 608 0 l 434 0 l 434 260 l 260 260 l 260 0 l 87 0 l 87 608 l 174 608 l 174 694 l 260 694 l 260 781 l 434 781 l 434 694 l 521 694 l 521 608 l 608 608 l 608 0 m 608 1042 l 87 1042 l 87 1128 l 608 1128 l 608 1042 m 434 347 l 434 608 l 260 608 l 260 347 l 434 347 m 434 868 l 260 868 l 260 955 l 434 955 l 434 868 z "},"ǡ":{"ha":694,"x_min":87,"x_max":608,"o":"m 608 0 l 174 0 l 174 87 l 87 87 l 87 260 l 174 260 l 174 347 l 434 347 l 434 521 l 174 521 l 174 608 l 521 608 l 521 521 l 608 521 l 608 0 m 608 955 l 87 955 l 87 1042 l 608 1042 l 608 955 m 434 87 l 434 260 l 260 260 l 260 87 l 434 87 m 434 694 l 260 694 l 260 868 l 434 868 l 434 694 z "},"Ǣ":{"ha":694,"x_min":87,"x_max":694,"o":"m 694 0 l 347 0 l 347 260 l 260 260 l 260 0 l 87 0 l 87 608 l 174 608 l 174 694 l 260 694 l 260 781 l 694 781 l 694 694 l 521 694 l 521 434 l 694 434 l 694 347 l 521 347 l 521 87 l 694 87 l 694 0 m 694 868 l 260 868 l 260 955 l 694 955 l 694 868 m 347 347 l 347 608 l 260 608 l 260 347 l 347 347 z "},"ǣ":{"ha":694,"x_min":0,"x_max":694,"o":"m 694 0 l 434 0 l 434 87 l 347 87 l 347 0 l 87 0 l 87 87 l 0 87 l 0 260 l 87 260 l 87 347 l 260 347 l 260 521 l 87 521 l 87 608 l 260 608 l 260 521 l 347 521 l 347 608 l 608 608 l 608 521 l 694 521 l 694 260 l 434 260 l 434 87 l 694 87 l 694 0 m 608 694 l 87 694 l 87 781 l 608 781 l 608 694 m 521 347 l 521 521 l 434 521 l 434 347 l 521 347 m 260 87 l 260 260 l 174 260 l 174 87 l 260 87 z "},"Ǥ":{"ha":694,"x_min":87,"x_max":694,"o":"m 694 174 l 608 174 l 608 0 l 174 0 l 174 87 l 87 87 l 87 694 l 174 694 l 174 781 l 521 781 l 521 694 l 608 694 l 608 521 l 434 521 l 434 694 l 260 694 l 260 87 l 434 87 l 434 174 l 347 174 l 347 260 l 434 260 l 434 347 l 347 347 l 347 434 l 608 434 l 608 260 l 694 260 l 694 174 z "},"ǥ":{"ha":694,"x_min":87,"x_max":694,"o":"m 694 -87 l 608 -87 l 608 -174 l 521 -174 l 521 -260 l 87 -260 l 87 -174 l 434 -174 l 434 -87 l 174 -87 l 174 0 l 434 0 l 434 87 l 174 87 l 174 174 l 87 174 l 87 521 l 174 521 l 174 608 l 608 608 l 608 0 l 694 0 l 694 -87 m 434 174 l 434 521 l 260 521 l 260 174 l 434 174 z "},"Ǧ":{"ha":694,"x_min":87,"x_max":608,"o":"m 608 0 l 174 0 l 174 87 l 87 87 l 87 694 l 174 694 l 174 781 l 521 781 l 521 694 l 608 694 l 608 521 l 434 521 l 434 694 l 260 694 l 260 87 l 434 87 l 434 260 l 347 260 l 347 347 l 608 347 l 608 0 m 434 1128 l 608 1128 l 608 1042 l 521 1042 l 521 955 l 434 955 l 434 868 l 260 868 l 260 955 l 174 955 l 174 1042 l 87 1042 l 87 1128 l 260 1128 l 260 1042 l 434 1042 l 434 1128 z "},"ǧ":{"ha":694,"x_min":87,"x_max":608,"o":"m 608 -174 l 521 -174 l 521 -260 l 87 -260 l 87 -174 l 434 -174 l 434 0 l 174 0 l 174 87 l 87 87 l 87 521 l 174 521 l 174 608 l 608 608 l 608 -174 m 608 868 l 521 868 l 521 781 l 434 781 l 434 694 l 260 694 l 260 781 l 174 781 l 174 868 l 87 868 l 87 955 l 260 955 l 260 868 l 434 868 l 434 955 l 608 955 l 608 868 m 434 87 l 434 521 l 260 521 l 260 87 l 434 87 z "},"Ǩ":{"ha":694,"x_min":87,"x_max":608,"o":"m 608 0 l 434 0 l 434 174 l 347 174 l 347 347 l 260 347 l 260 0 l 87 0 l 87 781 l 260 781 l 260 434 l 347 434 l 347 608 l 434 608 l 434 781 l 608 781 l 608 608 l 521 608 l 521 434 l 434 434 l 434 347 l 521 347 l 521 174 l 608 174 l 608 0 m 434 1128 l 608 1128 l 608 1042 l 521 1042 l 521 955 l 434 955 l 434 868 l 260 868 l 260 955 l 174 955 l 174 1042 l 87 1042 l 87 1128 l 260 1128 l 260 1042 l 434 1042 l 434 1128 z "},"ǩ":{"ha":694,"x_min":87,"x_max":608,"o":"m 608 0 l 434 0 l 434 174 l 347 174 l 347 260 l 260 260 l 260 0 l 87 0 l 87 781 l 260 781 l 260 347 l 347 347 l 347 434 l 434 434 l 434 608 l 608 608 l 608 434 l 521 434 l 521 347 l 434 347 l 434 260 l 521 260 l 521 174 l 608 174 l 608 0 m 87 1128 l 260 1128 l 260 1042 l 434 1042 l 434 1128 l 608 1128 l 608 1042 l 521 1042 l 521 955 l 434 955 l 434 868 l 260 868 l 260 955 l 174 955 l 174 1042 l 87 1042 l 87 1128 z "},"Ǫ":{"ha":694,"x_min":87,"x_max":608,"o":"m 608 -174 l 608 -260 l 347 -260 l 347 -174 l 260 -174 l 260 0 l 174 0 l 174 87 l 87 87 l 87 694 l 174 694 l 174 781 l 521 781 l 521 694 l 608 694 l 608 87 l 521 87 l 521 0 l 434 0 l 434 -174 l 608 -174 m 434 87 l 434 694 l 260 694 l 260 87 l 434 87 z "},"ǫ":{"ha":694,"x_min":87,"x_max":608,"o":"m 347 -174 l 260 -174 l 260 0 l 174 0 l 174 87 l 87 87 l 87 521 l 174 521 l 174 608 l 521 608 l 521 521 l 608 521 l 608 87 l 521 87 l 521 0 l 434 0 l 434 -174 l 608 -174 l 608 -260 l 347 -260 l 347 -174 m 434 87 l 434 521 l 260 521 l 260 87 l 434 87 z "},"Ǭ":{"ha":694,"x_min":87,"x_max":608,"o":"m 608 868 l 87 868 l 87 955 l 608 955 l 608 868 m 434 -174 l 434 0 l 521 0 l 521 87 l 608 87 l 608 694 l 521 694 l 521 781 l 174 781 l 174 694 l 87 694 l 87 87 l 174 87 l 174 0 l 260 0 l 260 -174 l 347 -174 l 347 -260 l 608 -260 l 608 -174 l 434 -174 m 260 87 l 260 694 l 434 694 l 434 87 l 260 87 z "},"ǭ":{"ha":694,"x_min":87,"x_max":608,"o":"m 608 694 l 87 694 l 87 781 l 608 781 l 608 694 m 434 -174 l 434 0 l 521 0 l 521 87 l 608 87 l 608 521 l 521 521 l 521 608 l 174 608 l 174 521 l 87 521 l 87 87 l 174 87 l 174 0 l 260 0 l 260 -174 l 347 -174 l 347 -260 l 608 -260 l 608 -174 l 434 -174 m 260 87 l 260 521 l 434 521 l 434 87 l 260 87 z "},"Ǯ":{"ha":694,"x_min":87,"x_max":608,"o":"m 608 87 l 521 87 l 521 0 l 174 0 l 174 87 l 87 87 l 87 174 l 260 174 l 260 87 l 434 87 l 434 434 l 260 434 l 260 521 l 347 521 l 347 608 l 434 608 l 434 694 l 87 694 l 87 781 l 608 781 l 608 608 l 521 608 l 521 434 l 608 434 l 608 87 m 87 1128 l 260 1128 l 260 1042 l 434 1042 l 434 1128 l 608 1128 l 608 1042 l 521 1042 l 521 955 l 434 955 l 434 868 l 260 868 l 260 955 l 174 955 l 174 1042 l 87 1042 l 87 1128 z "},"ǯ":{"ha":694,"x_min":87,"x_max":608,"o":"m 608 -174 l 521 -174 l 521 -260 l 174 -260 l 174 -174 l 87 -174 l 87 -87 l 260 -87 l 260 -174 l 434 -174 l 434 174 l 174 174 l 174 260 l 260 260 l 260 347 l 347 347 l 347 434 l 434 434 l 434 521 l 87 521 l 87 608 l 608 608 l 608 434 l 521 434 l 521 347 l 434 347 l 434 260 l 521 260 l 521 174 l 608 174 l 608 -174 m 608 868 l 521 868 l 521 781 l 434 781 l 434 694 l 260 694 l 260 781 l 174 781 l 174 868 l 87 868 l 87 955 l 260 955 l 260 868 l 434 868 l 434 955 l 608 955 l 608 868 z "},"ǰ":{"ha":694,"x_min":87,"x_max":608,"o":"m 521 -174 l 434 -174 l 434 -260 l 87 -260 l 87 -174 l 347 -174 l 347 521 l 174 521 l 174 608 l 521 608 l 521 -174 m 608 868 l 521 868 l 521 781 l 434 781 l 434 694 l 260 694 l 260 781 l 174 781 l 174 868 l 87 868 l 87 955 l 260 955 l 260 868 l 434 868 l 434 955 l 608 955 l 608 868 z "},"Ǳ":{"ha":1389,"x_min":87,"x_max":1302,"o":"m 608 174 l 521 174 l 521 87 l 434 87 l 434 0 l 87 0 l 87 781 l 434 781 l 434 694 l 521 694 l 521 608 l 608 608 l 608 174 m 1302 0 l 781 0 l 781 260 l 868 260 l 868 347 l 955 347 l 955 434 l 1042 434 l 1042 521 l 1128 521 l 1128 694 l 781 694 l 781 781 l 1302 781 l 1302 521 l 1215 521 l 1215 434 l 1128 434 l 1128 347 l 1042 347 l 1042 260 l 955 260 l 955 87 l 1302 87 l 1302 0 m 434 174 l 434 608 l 347 608 l 347 694 l 260 694 l 260 87 l 347 87 l 347 174 l 434 174 z "},"ǲ":{"ha":1389,"x_min":87,"x_max":1302,"o":"m 608 174 l 521 174 l 521 87 l 434 87 l 434 0 l 87 0 l 87 781 l 434 781 l 434 694 l 521 694 l 521 608 l 608 608 l 608 174 m 1302 0 l 781 0 l 781 174 l 868 174 l 868 260 l 955 260 l 955 347 l 1042 347 l 1042 434 l 1128 434 l 1128 521 l 781 521 l 781 608 l 1302 608 l 1302 434 l 1215 434 l 1215 347 l 1128 347 l 1128 260 l 1042 260 l 1042 174 l 955 174 l 955 87 l 1302 87 l 1302 0 m 434 174 l 434 608 l 347 608 l 347 694 l 260 694 l 260 87 l 347 87 l 347 174 l 434 174 z "},"ǳ":{"ha":1389,"x_min":87,"x_max":1302,"o":"m 608 0 l 174 0 l 174 87 l 87 87 l 87 521 l 174 521 l 174 608 l 434 608 l 434 781 l 608 781 l 608 0 m 1302 0 l 781 0 l 781 174 l 868 174 l 868 260 l 955 260 l 955 347 l 1042 347 l 1042 434 l 1128 434 l 1128 521 l 781 521 l 781 608 l 1302 608 l 1302 434 l 1215 434 l 1215 347 l 1128 347 l 1128 260 l 1042 260 l 1042 174 l 955 174 l 955 87 l 1302 87 l 1302 0 m 434 87 l 434 521 l 260 521 l 260 87 l 434 87 z "},"Ǵ":{"ha":694,"x_min":87,"x_max":608,"o":"m 608 0 l 174 0 l 174 87 l 87 87 l 87 694 l 174 694 l 174 781 l 521 781 l 521 694 l 608 694 l 608 521 l 434 521 l 434 694 l 260 694 l 260 87 l 434 87 l 434 260 l 347 260 l 347 347 l 608 347 l 608 0 m 521 955 l 434 955 l 434 868 l 260 868 l 260 955 l 347 955 l 347 1042 l 521 1042 l 521 955 z "},"ǵ":{"ha":694,"x_min":87,"x_max":608,"o":"m 608 -174 l 521 -174 l 521 -260 l 87 -260 l 87 -174 l 434 -174 l 434 0 l 174 0 l 174 87 l 87 87 l 87 521 l 174 521 l 174 608 l 608 608 l 608 -174 m 434 87 l 434 521 l 260 521 l 260 87 l 434 87 m 608 868 l 521 868 l 521 781 l 434 781 l 434 694 l 260 694 l 260 781 l 347 781 l 347 955 l 608 955 l 608 868 z "},"Ƕ":{"ha":694,"x_min":0,"x_max":694,"o":"m 347 0 l 347 87 l 260 87 l 260 347 l 174 347 l 174 0 l 0 0 l 0 781 l 174 781 l 174 434 l 260 434 l 260 781 l 434 781 l 434 87 l 521 87 l 521 608 l 694 608 l 694 87 l 608 87 l 608 0 l 347 0 z "},"Ƿ":{"ha":694,"x_min":87,"x_max":608,"o":"m 608 347 l 521 347 l 521 260 l 434 260 l 434 174 l 347 174 l 347 87 l 260 87 l 260 -87 l 87 -87 l 87 781 l 521 781 l 521 694 l 608 694 l 608 347 m 434 347 l 434 694 l 260 694 l 260 260 l 347 260 l 347 347 l 434 347 z "},"Ǹ":{"ha":694,"x_min":87,"x_max":694,"o":"m 694 0 l 521 0 l 521 260 l 434 260 l 434 347 l 347 347 l 347 434 l 260 434 l 260 0 l 87 0 l 87 781 l 260 781 l 260 608 l 347 608 l 347 521 l 434 521 l 434 434 l 521 434 l 521 781 l 694 781 l 694 0 m 434 868 l 260 868 l 260 955 l 174 955 l 174 1042 l 347 1042 l 347 955 l 434 955 l 434 868 z "},"ǹ":{"ha":694,"x_min":87,"x_max":608,"o":"m 608 0 l 434 0 l 434 521 l 260 521 l 260 0 l 87 0 l 87 608 l 521 608 l 521 521 l 608 521 l 608 0 m 434 694 l 260 694 l 260 781 l 174 781 l 174 868 l 87 868 l 87 955 l 347 955 l 347 781 l 434 781 l 434 694 z "},"Ǻ":{"ha":694,"x_min":87,"x_max":608,"o":"m 608 0 l 434 0 l 434 260 l 260 260 l 260 0 l 87 0 l 87 608 l 174 608 l 174 781 l 87 781 l 87 868 l 174 868 l 174 955 l 260 955 l 260 1042 l 347 1042 l 347 1128 l 521 1128 l 521 1042 l 434 1042 l 434 955 l 521 955 l 521 868 l 608 868 l 608 781 l 521 781 l 521 608 l 608 608 l 608 0 m 434 347 l 434 608 l 260 608 l 260 347 l 434 347 m 434 781 l 434 868 l 260 868 l 260 781 l 434 781 z "},"ǻ":{"ha":694,"x_min":87,"x_max":608,"o":"m 608 0 l 174 0 l 174 87 l 87 87 l 87 260 l 174 260 l 174 347 l 434 347 l 434 521 l 174 521 l 174 608 l 521 608 l 521 521 l 608 521 l 608 0 m 608 781 l 521 781 l 521 694 l 174 694 l 174 781 l 87 781 l 87 868 l 174 868 l 174 955 l 260 955 l 260 1042 l 347 1042 l 347 1128 l 521 1128 l 521 1042 l 434 1042 l 434 955 l 521 955 l 521 868 l 608 868 l 608 781 m 434 87 l 434 260 l 260 260 l 260 87 l 434 87 m 434 781 l 434 868 l 260 868 l 260 781 l 434 781 z "},"Ǽ":{"ha":694,"x_min":87,"x_max":694,"o":"m 694 0 l 347 0 l 347 260 l 260 260 l 260 0 l 87 0 l 87 608 l 174 608 l 174 694 l 260 694 l 260 781 l 694 781 l 694 694 l 521 694 l 521 434 l 694 434 l 694 347 l 521 347 l 521 87 l 694 87 l 694 0 m 608 955 l 521 955 l 521 868 l 347 868 l 347 955 l 434 955 l 434 1042 l 608 1042 l 608 955 m 347 347 l 347 608 l 260 608 l 260 347 l 347 347 z "},"ǽ":{"ha":694,"x_min":0,"x_max":694,"o":"m 694 0 l 434 0 l 434 87 l 347 87 l 347 0 l 87 0 l 87 87 l 0 87 l 0 260 l 87 260 l 87 347 l 260 347 l 260 521 l 87 521 l 87 608 l 260 608 l 260 521 l 347 521 l 347 608 l 608 608 l 608 521 l 694 521 l 694 260 l 434 260 l 434 87 l 694 87 l 694 0 m 608 868 l 521 868 l 521 781 l 434 781 l 434 694 l 260 694 l 260 781 l 347 781 l 347 955 l 608 955 l 608 868 m 260 87 l 260 260 l 174 260 l 174 87 l 260 87 m 521 347 l 521 521 l 434 521 l 434 347 l 521 347 z "},"Ǿ":{"ha":694,"x_min":87,"x_max":608,"o":"m 608 87 l 521 87 l 521 0 l 87 0 l 87 694 l 174 694 l 174 781 l 608 781 l 608 87 m 521 955 l 434 955 l 434 868 l 260 868 l 260 955 l 347 955 l 347 1042 l 521 1042 l 521 955 m 434 87 l 434 347 l 347 347 l 347 174 l 260 174 l 260 87 l 434 87 m 434 608 l 434 694 l 260 694 l 260 434 l 347 434 l 347 608 l 434 608 z "},"ǿ":{"ha":694,"x_min":87,"x_max":608,"o":"m 608 87 l 521 87 l 521 0 l 87 0 l 87 521 l 174 521 l 174 608 l 608 608 l 608 87 m 608 868 l 521 868 l 521 781 l 434 781 l 434 694 l 260 694 l 260 781 l 347 781 l 347 955 l 608 955 l 608 868 m 434 87 l 434 260 l 347 260 l 347 174 l 260 174 l 260 87 l 434 87 m 434 434 l 434 521 l 260 521 l 260 347 l 347 347 l 347 434 l 434 434 z "},"Ȁ":{"ha":694,"x_min":87,"x_max":608,"o":"m 608 0 l 434 0 l 434 260 l 260 260 l 260 0 l 87 0 l 87 608 l 174 608 l 174 694 l 260 694 l 260 781 l 434 781 l 434 694 l 521 694 l 521 608 l 608 608 l 608 0 m 434 347 l 434 608 l 260 608 l 260 347 l 434 347 m 608 868 l 434 868 l 434 955 l 347 955 l 347 1042 l 521 1042 l 521 955 l 608 955 l 608 868 m 347 868 l 174 868 l 174 955 l 87 955 l 87 1042 l 260 1042 l 260 955 l 347 955 l 347 868 z "},"ȁ":{"ha":694,"x_min":87,"x_max":608,"o":"m 608 0 l 174 0 l 174 87 l 87 87 l 87 260 l 174 260 l 174 347 l 434 347 l 434 521 l 174 521 l 174 608 l 521 608 l 521 521 l 608 521 l 608 0 m 434 87 l 434 260 l 260 260 l 260 87 l 434 87 m 608 694 l 434 694 l 434 781 l 347 781 l 347 868 l 521 868 l 521 781 l 608 781 l 608 694 m 347 694 l 174 694 l 174 781 l 87 781 l 87 868 l 260 868 l 260 781 l 347 781 l 347 694 z "},"Ȃ":{"ha":694,"x_min":87,"x_max":608,"o":"m 608 0 l 434 0 l 434 260 l 260 260 l 260 0 l 87 0 l 87 608 l 174 608 l 174 694 l 260 694 l 260 781 l 434 781 l 434 694 l 521 694 l 521 608 l 608 608 l 608 0 m 608 868 l 434 868 l 434 955 l 260 955 l 260 868 l 87 868 l 87 955 l 174 955 l 174 1042 l 521 1042 l 521 955 l 608 955 l 608 868 m 434 347 l 434 608 l 260 608 l 260 347 l 434 347 z "},"ȃ":{"ha":694,"x_min":87,"x_max":608,"o":"m 608 0 l 174 0 l 174 87 l 87 87 l 87 260 l 174 260 l 174 347 l 434 347 l 434 521 l 174 521 l 174 608 l 521 608 l 521 521 l 608 521 l 608 0 m 608 694 l 434 694 l 434 781 l 260 781 l 260 694 l 87 694 l 87 781 l 174 781 l 174 868 l 521 868 l 521 781 l 608 781 l 608 694 m 434 87 l 434 260 l 260 260 l 260 87 l 434 87 z "},"Ȅ":{"ha":694,"x_min":87,"x_max":608,"o":"m 608 0 l 87 0 l 87 781 l 608 781 l 608 694 l 260 694 l 260 434 l 521 434 l 521 347 l 260 347 l 260 87 l 608 87 l 608 0 m 608 868 l 434 868 l 434 955 l 347 955 l 347 1042 l 521 1042 l 521 955 l 608 955 l 608 868 m 347 868 l 174 868 l 174 955 l 87 955 l 87 1042 l 260 1042 l 260 955 l 347 955 l 347 868 z "},"ȅ":{"ha":694,"x_min":87,"x_max":608,"o":"m 608 260 l 260 260 l 260 87 l 521 87 l 521 0 l 174 0 l 174 87 l 87 87 l 87 521 l 174 521 l 174 608 l 521 608 l 521 521 l 608 521 l 608 260 m 434 347 l 434 521 l 260 521 l 260 347 l 434 347 m 608 694 l 434 694 l 434 781 l 347 781 l 347 868 l 521 868 l 521 781 l 608 781 l 608 694 m 347 694 l 174 694 l 174 781 l 87 781 l 87 868 l 260 868 l 260 781 l 347 781 l 347 694 z "},"Ȇ":{"ha":694,"x_min":87,"x_max":608,"o":"m 608 0 l 87 0 l 87 781 l 608 781 l 608 694 l 260 694 l 260 434 l 521 434 l 521 347 l 260 347 l 260 87 l 608 87 l 608 0 m 608 868 l 434 868 l 434 955 l 260 955 l 260 868 l 87 868 l 87 955 l 174 955 l 174 1042 l 521 1042 l 521 955 l 608 955 l 608 868 z "},"ȇ":{"ha":694,"x_min":87,"x_max":608,"o":"m 608 260 l 260 260 l 260 87 l 521 87 l 521 0 l 174 0 l 174 87 l 87 87 l 87 521 l 174 521 l 174 608 l 521 608 l 521 521 l 608 521 l 608 260 m 608 694 l 434 694 l 434 781 l 260 781 l 260 694 l 87 694 l 87 781 l 174 781 l 174 868 l 521 868 l 521 781 l 608 781 l 608 694 m 434 347 l 434 521 l 260 521 l 260 347 l 434 347 z "},"Ȉ":{"ha":694,"x_min":87,"x_max":608,"o":"m 521 0 l 174 0 l 174 87 l 260 87 l 260 694 l 174 694 l 174 781 l 521 781 l 521 694 l 434 694 l 434 87 l 521 87 l 521 0 m 608 868 l 434 868 l 434 955 l 347 955 l 347 1042 l 521 1042 l 521 955 l 608 955 l 608 868 m 347 868 l 174 868 l 174 955 l 87 955 l 87 1042 l 260 1042 l 260 955 l 347 955 l 347 868 z "},"ȉ":{"ha":694,"x_min":0,"x_max":608,"o":"m 608 0 l 87 0 l 87 87 l 260 87 l 260 521 l 87 521 l 87 608 l 434 608 l 434 87 l 608 87 l 608 0 m 521 694 l 347 694 l 347 781 l 260 781 l 260 868 l 434 868 l 434 781 l 521 781 l 521 694 m 260 694 l 87 694 l 87 781 l 0 781 l 0 868 l 174 868 l 174 781 l 260 781 l 260 694 z "},"Ȋ":{"ha":694,"x_min":87,"x_max":608,"o":"m 521 0 l 174 0 l 174 87 l 260 87 l 260 694 l 174 694 l 174 781 l 521 781 l 521 694 l 434 694 l 434 87 l 521 87 l 521 0 m 608 868 l 434 868 l 434 955 l 260 955 l 260 868 l 87 868 l 87 955 l 174 955 l 174 1042 l 521 1042 l 521 955 l 608 955 l 608 868 z "},"ȋ":{"ha":694,"x_min":87,"x_max":608,"o":"m 608 0 l 87 0 l 87 87 l 260 87 l 260 521 l 87 521 l 87 608 l 434 608 l 434 87 l 608 87 l 608 0 m 608 694 l 434 694 l 434 781 l 260 781 l 260 694 l 87 694 l 87 781 l 174 781 l 174 868 l 521 868 l 521 781 l 608 781 l 608 694 z "},"Ȍ":{"ha":694,"x_min":87,"x_max":608,"o":"m 608 87 l 521 87 l 521 0 l 174 0 l 174 87 l 87 87 l 87 694 l 174 694 l 174 781 l 521 781 l 521 694 l 608 694 l 608 87 m 434 87 l 434 694 l 260 694 l 260 87 l 434 87 m 608 868 l 434 868 l 434 955 l 347 955 l 347 1042 l 521 1042 l 521 955 l 608 955 l 608 868 m 347 868 l 174 868 l 174 955 l 87 955 l 87 1042 l 260 1042 l 260 955 l 347 955 l 347 868 z "},"ȍ":{"ha":694,"x_min":87,"x_max":608,"o":"m 608 87 l 521 87 l 521 0 l 174 0 l 174 87 l 87 87 l 87 521 l 174 521 l 174 608 l 521 608 l 521 521 l 608 521 l 608 87 m 434 87 l 434 521 l 260 521 l 260 87 l 434 87 m 608 694 l 434 694 l 434 781 l 347 781 l 347 868 l 521 868 l 521 781 l 608 781 l 608 694 m 347 694 l 174 694 l 174 781 l 87 781 l 87 868 l 260 868 l 260 781 l 347 781 l 347 694 z "},"Ȏ":{"ha":694,"x_min":87,"x_max":608,"o":"m 608 87 l 521 87 l 521 0 l 174 0 l 174 87 l 87 87 l 87 694 l 174 694 l 174 781 l 521 781 l 521 694 l 608 694 l 608 87 m 434 87 l 434 694 l 260 694 l 260 87 l 434 87 m 608 868 l 434 868 l 434 955 l 260 955 l 260 868 l 87 868 l 87 955 l 174 955 l 174 1042 l 521 1042 l 521 955 l 608 955 l 608 868 z "},"ȏ":{"ha":694,"x_min":87,"x_max":608,"o":"m 608 87 l 521 87 l 521 0 l 174 0 l 174 87 l 87 87 l 87 521 l 174 521 l 174 608 l 521 608 l 521 521 l 608 521 l 608 87 m 434 87 l 434 521 l 260 521 l 260 87 l 434 87 m 608 694 l 434 694 l 434 781 l 260 781 l 260 694 l 87 694 l 87 781 l 174 781 l 174 868 l 521 868 l 521 781 l 608 781 l 608 694 z "},"Ȑ":{"ha":694,"x_min":87,"x_max":608,"o":"m 608 0 l 434 0 l 434 260 l 347 260 l 347 347 l 260 347 l 260 0 l 87 0 l 87 781 l 521 781 l 521 694 l 608 694 l 608 434 l 521 434 l 521 260 l 608 260 l 608 0 m 434 434 l 434 694 l 260 694 l 260 434 l 434 434 m 608 868 l 434 868 l 434 955 l 347 955 l 347 1042 l 521 1042 l 521 955 l 608 955 l 608 868 m 347 868 l 174 868 l 174 955 l 87 955 l 87 1042 l 260 1042 l 260 955 l 347 955 l 347 868 z "},"ȑ":{"ha":694,"x_min":87,"x_max":608,"o":"m 347 347 l 260 347 l 260 0 l 87 0 l 87 608 l 260 608 l 260 434 l 347 434 l 347 347 m 608 434 l 347 434 l 347 521 l 434 521 l 434 608 l 608 608 l 608 434 m 608 694 l 434 694 l 434 781 l 347 781 l 347 868 l 521 868 l 521 781 l 608 781 l 608 694 m 347 694 l 174 694 l 174 781 l 87 781 l 87 868 l 260 868 l 260 781 l 347 781 l 347 694 z "},"Ȓ":{"ha":694,"x_min":87,"x_max":608,"o":"m 608 0 l 434 0 l 434 260 l 347 260 l 347 347 l 260 347 l 260 0 l 87 0 l 87 781 l 521 781 l 521 694 l 608 694 l 608 434 l 521 434 l 521 260 l 608 260 l 608 0 m 608 868 l 434 868 l 434 955 l 260 955 l 260 868 l 87 868 l 87 955 l 174 955 l 174 1042 l 521 1042 l 521 955 l 608 955 l 608 868 m 434 434 l 434 694 l 260 694 l 260 434 l 434 434 z "},"ȓ":{"ha":694,"x_min":87,"x_max":608,"o":"m 347 347 l 260 347 l 260 0 l 87 0 l 87 608 l 260 608 l 260 434 l 347 434 l 347 347 m 608 694 l 434 694 l 434 781 l 260 781 l 260 694 l 87 694 l 87 781 l 174 781 l 174 868 l 521 868 l 521 781 l 608 781 l 608 694 m 608 434 l 347 434 l 347 521 l 434 521 l 434 608 l 608 608 l 608 434 z "},"Ȕ":{"ha":694,"x_min":87,"x_max":608,"o":"m 608 87 l 521 87 l 521 0 l 174 0 l 174 87 l 87 87 l 87 781 l 260 781 l 260 87 l 434 87 l 434 781 l 608 781 l 608 87 m 608 868 l 434 868 l 434 955 l 347 955 l 347 1042 l 521 1042 l 521 955 l 608 955 l 608 868 m 347 868 l 174 868 l 174 955 l 87 955 l 87 1042 l 260 1042 l 260 955 l 347 955 l 347 868 z "},"ȕ":{"ha":694,"x_min":87,"x_max":608,"o":"m 608 0 l 174 0 l 174 87 l 87 87 l 87 608 l 260 608 l 260 87 l 434 87 l 434 608 l 608 608 l 608 0 m 608 694 l 434 694 l 434 781 l 347 781 l 347 868 l 521 868 l 521 781 l 608 781 l 608 694 m 347 694 l 174 694 l 174 781 l 87 781 l 87 868 l 260 868 l 260 781 l 347 781 l 347 694 z "},"Ȗ":{"ha":694,"x_min":87,"x_max":608,"o":"m 608 87 l 521 87 l 521 0 l 174 0 l 174 87 l 87 87 l 87 781 l 260 781 l 260 87 l 434 87 l 434 781 l 608 781 l 608 87 m 608 868 l 434 868 l 434 955 l 260 955 l 260 868 l 87 868 l 87 955 l 174 955 l 174 1042 l 521 1042 l 521 955 l 608 955 l 608 868 z "},"ȗ":{"ha":694,"x_min":87,"x_max":608,"o":"m 608 0 l 174 0 l 174 87 l 87 87 l 87 608 l 260 608 l 260 87 l 434 87 l 434 608 l 608 608 l 608 0 m 608 694 l 434 694 l 434 781 l 260 781 l 260 694 l 87 694 l 87 781 l 174 781 l 174 868 l 521 868 l 521 781 l 608 781 l 608 694 z "},"Ș":{"ha":694,"x_min":87,"x_max":608,"o":"m 174 0 l 174 87 l 87 87 l 87 174 l 260 174 l 260 87 l 434 87 l 434 260 l 347 260 l 347 347 l 260 347 l 260 434 l 174 434 l 174 521 l 87 521 l 87 694 l 174 694 l 174 781 l 521 781 l 521 694 l 608 694 l 608 608 l 434 608 l 434 694 l 260 694 l 260 521 l 347 521 l 347 434 l 434 434 l 434 347 l 521 347 l 521 260 l 608 260 l 608 87 l 521 87 l 521 0 l 174 0 m 174 -174 l 260 -174 l 260 -87 l 434 -87 l 434 -174 l 347 -174 l 347 -260 l 174 -260 l 174 -174 z "},"ș":{"ha":694,"x_min":95,"x_max":616,"o":"m 95 0 l 95 87 l 443 87 l 443 260 l 182 260 l 182 347 l 95 347 l 95 521 l 182 521 l 182 608 l 616 608 l 616 521 l 269 521 l 269 347 l 530 347 l 530 260 l 616 260 l 616 87 l 530 87 l 530 0 l 95 0 m 174 -174 l 260 -174 l 260 -87 l 434 -87 l 434 -174 l 347 -174 l 347 -260 l 174 -260 l 174 -174 z "},"Ț":{"ha":694,"x_min":87,"x_max":608,"o":"m 434 0 l 260 0 l 260 694 l 87 694 l 87 781 l 608 781 l 608 694 l 434 694 l 434 0 m 174 -174 l 260 -174 l 260 -87 l 434 -87 l 434 -174 l 347 -174 l 347 -260 l 174 -260 l 174 -174 z "},"ț":{"ha":694,"x_min":87,"x_max":608,"o":"m 608 0 l 260 0 l 260 87 l 174 87 l 174 521 l 87 521 l 87 608 l 174 608 l 174 781 l 347 781 l 347 608 l 608 608 l 608 521 l 347 521 l 347 87 l 608 87 l 608 0 m 260 -87 l 434 -87 l 434 -174 l 347 -174 l 347 -260 l 174 -260 l 174 -174 l 260 -174 l 260 -87 z "},"Ȝ":{"ha":694,"x_min":87,"x_max":608,"o":"m 608 260 l 608 0 l 521 0 l 521 -87 l 434 -87 l 434 -174 l 87 -174 l 87 -87 l 347 -87 l 347 0 l 434 0 l 434 260 l 174 260 l 174 347 l 347 347 l 347 434 l 434 434 l 434 694 l 260 694 l 260 521 l 87 521 l 87 694 l 174 694 l 174 781 l 521 781 l 521 694 l 608 694 l 608 434 l 521 434 l 521 260 l 608 260 z "},"ȝ":{"ha":694,"x_min":87,"x_max":608,"o":"m 87 -87 l 347 -87 l 347 0 l 434 0 l 434 174 l 260 174 l 260 260 l 347 260 l 347 347 l 434 347 l 434 521 l 260 521 l 260 434 l 87 434 l 87 521 l 174 521 l 174 608 l 521 608 l 521 521 l 608 521 l 608 347 l 521 347 l 521 174 l 608 174 l 608 0 l 521 0 l 521 -87 l 434 -87 l 434 -174 l 87 -174 l 87 -87 z "},"Ȟ":{"ha":694,"x_min":87,"x_max":608,"o":"m 608 0 l 434 0 l 434 347 l 260 347 l 260 0 l 87 0 l 87 781 l 260 781 l 260 434 l 434 434 l 434 781 l 608 781 l 608 0 m 87 1128 l 260 1128 l 260 1042 l 434 1042 l 434 1128 l 608 1128 l 608 1042 l 521 1042 l 521 955 l 434 955 l 434 868 l 260 868 l 260 955 l 174 955 l 174 1042 l 87 1042 l 87 1128 z "},"ȟ":{"ha":694,"x_min":87,"x_max":608,"o":"m 608 0 l 434 0 l 434 521 l 260 521 l 260 0 l 87 0 l 87 781 l 260 781 l 260 608 l 521 608 l 521 521 l 608 521 l 608 0 m 260 955 l 174 955 l 174 1042 l 87 1042 l 87 1128 l 260 1128 l 260 1042 l 434 1042 l 434 1128 l 608 1128 l 608 1042 l 521 1042 l 521 955 l 443 955 l 443 868 l 260 868 l 260 955 z "},"Ƞ":{"ha":694,"x_min":87,"x_max":608,"o":"m 608 -260 l 434 -260 l 434 694 l 260 694 l 260 0 l 87 0 l 87 781 l 521 781 l 521 694 l 608 694 l 608 -260 z "},"ȡ":{"ha":694,"x_min":0,"x_max":694,"o":"m 87 87 l 0 87 l 0 521 l 87 521 l 87 608 l 260 608 l 260 781 l 434 781 l 434 260 l 521 260 l 521 87 l 608 87 l 608 0 l 521 0 l 521 -174 l 434 -174 l 434 0 l 87 0 l 87 87 m 260 521 l 174 521 l 174 87 l 260 87 l 260 521 m 521 347 l 608 347 l 608 260 l 694 260 l 694 87 l 608 87 l 608 260 l 521 260 l 521 347 z "},"Ȣ":{"ha":694,"x_min":87,"x_max":608,"o":"m 608 521 l 521 521 l 521 434 l 608 434 l 608 87 l 521 87 l 521 0 l 174 0 l 174 87 l 87 87 l 87 434 l 174 434 l 174 521 l 87 521 l 87 781 l 260 781 l 260 521 l 434 521 l 434 781 l 608 781 l 608 521 m 434 87 l 434 434 l 260 434 l 260 87 l 434 87 z "},"ȣ":{"ha":694,"x_min":87,"x_max":608,"o":"m 434 434 l 434 608 l 608 608 l 608 434 l 521 434 l 521 347 l 608 347 l 608 87 l 521 87 l 521 0 l 174 0 l 174 87 l 87 87 l 87 347 l 174 347 l 174 434 l 87 434 l 87 608 l 260 608 l 260 434 l 434 434 m 434 87 l 434 347 l 260 347 l 260 87 l 434 87 z "},"Ȥ":{"ha":694,"x_min":87,"x_max":608,"o":"m 608 -174 l 521 -174 l 521 -260 l 260 -260 l 260 -174 l 434 -174 l 434 0 l 87 0 l 87 260 l 174 260 l 174 347 l 260 347 l 260 434 l 347 434 l 347 521 l 434 521 l 434 694 l 87 694 l 87 781 l 608 781 l 608 521 l 521 521 l 521 434 l 434 434 l 434 347 l 347 347 l 347 260 l 260 260 l 260 87 l 608 87 l 608 -174 z "},"ȥ":{"ha":694,"x_min":87,"x_max":608,"o":"m 608 -174 l 521 -174 l 521 -260 l 260 -260 l 260 -174 l 434 -174 l 434 0 l 87 0 l 87 174 l 174 174 l 174 260 l 260 260 l 260 347 l 347 347 l 347 434 l 434 434 l 434 521 l 87 521 l 87 608 l 608 608 l 608 434 l 521 434 l 521 347 l 434 347 l 434 260 l 347 260 l 347 174 l 260 174 l 260 87 l 608 87 l 608 -174 z "},"Ȧ":{"ha":694,"x_min":87,"x_max":608,"o":"m 608 0 l 434 0 l 434 260 l 260 260 l 260 0 l 87 0 l 87 608 l 174 608 l 174 694 l 260 694 l 260 781 l 434 781 l 434 694 l 521 694 l 521 608 l 608 608 l 608 0 m 434 347 l 434 608 l 260 608 l 260 347 l 434 347 m 434 868 l 260 868 l 260 1042 l 434 1042 l 434 868 z "},"ȧ":{"ha":694,"x_min":87,"x_max":608,"o":"m 608 0 l 174 0 l 174 87 l 87 87 l 87 260 l 174 260 l 174 347 l 434 347 l 434 521 l 174 521 l 174 608 l 521 608 l 521 521 l 608 521 l 608 0 m 434 87 l 434 260 l 260 260 l 260 87 l 434 87 m 434 694 l 260 694 l 260 868 l 434 868 l 434 694 z "},"Ȩ":{"ha":694,"x_min":87,"x_max":608,"o":"m 608 0 l 434 0 l 434 -87 l 521 -87 l 521 -174 l 434 -174 l 434 -260 l 174 -260 l 174 -174 l 347 -174 l 347 -87 l 260 -87 l 260 0 l 87 0 l 87 781 l 608 781 l 608 694 l 260 694 l 260 434 l 521 434 l 521 347 l 260 347 l 260 87 l 608 87 l 608 0 z "},"ȩ":{"ha":694,"x_min":87,"x_max":608,"o":"m 608 260 l 260 260 l 260 87 l 521 87 l 521 0 l 434 0 l 434 -87 l 521 -87 l 521 -174 l 434 -174 l 434 -260 l 174 -260 l 174 -174 l 347 -174 l 347 -87 l 260 -87 l 260 0 l 174 0 l 174 87 l 87 87 l 87 521 l 174 521 l 174 608 l 521 608 l 521 521 l 608 521 l 608 260 m 434 347 l 434 521 l 260 521 l 260 347 l 434 347 z "},"Ȫ":{"ha":694,"x_min":87,"x_max":608,"o":"m 608 87 l 521 87 l 521 0 l 174 0 l 174 87 l 87 87 l 87 694 l 174 694 l 174 781 l 521 781 l 521 694 l 608 694 l 608 87 m 434 87 l 434 694 l 260 694 l 260 87 l 434 87 m 608 1042 l 87 1042 l 87 1128 l 608 1128 l 608 1042 m 260 868 l 87 868 l 87 955 l 260 955 l 260 868 m 608 868 l 434 868 l 434 955 l 608 955 l 608 868 z "},"ȫ":{"ha":694,"x_min":87,"x_max":608,"o":"m 608 87 l 521 87 l 521 0 l 174 0 l 174 87 l 87 87 l 87 521 l 174 521 l 174 608 l 521 608 l 521 521 l 608 521 l 608 87 m 434 87 l 434 521 l 260 521 l 260 87 l 434 87 m 608 955 l 87 955 l 87 1042 l 608 1042 l 608 955 m 260 694 l 87 694 l 87 868 l 260 868 l 260 694 m 608 694 l 434 694 l 434 868 l 608 868 l 608 694 z "},"Ȭ":{"ha":694,"x_min":87,"x_max":694,"o":"m 608 87 l 521 87 l 521 0 l 174 0 l 174 87 l 87 87 l 87 694 l 174 694 l 174 781 l 521 781 l 521 694 l 608 694 l 608 87 m 694 955 l 608 955 l 608 868 l 347 868 l 347 955 l 260 955 l 260 868 l 87 868 l 87 955 l 174 955 l 174 1042 l 87 1042 l 87 1128 l 694 1128 l 694 955 m 434 87 l 434 694 l 260 694 l 260 87 l 434 87 m 434 955 l 521 955 l 521 1042 l 434 1042 l 434 955 z "},"ȭ":{"ha":694,"x_min":87,"x_max":694,"o":"m 608 87 l 521 87 l 521 0 l 174 0 l 174 87 l 87 87 l 87 521 l 174 521 l 174 608 l 521 608 l 521 521 l 608 521 l 608 87 m 434 87 l 434 521 l 260 521 l 260 87 l 434 87 m 694 781 l 608 781 l 608 694 l 347 694 l 347 781 l 260 781 l 260 694 l 87 694 l 87 781 l 174 781 l 174 868 l 434 868 l 434 781 l 521 781 l 521 868 l 694 868 l 694 781 m 694 955 l 87 955 l 87 1042 l 694 1042 l 694 955 z "},"Ȯ":{"ha":694,"x_min":87,"x_max":608,"o":"m 608 87 l 521 87 l 521 0 l 174 0 l 174 87 l 87 87 l 87 694 l 174 694 l 174 781 l 521 781 l 521 694 l 608 694 l 608 87 m 434 87 l 434 694 l 260 694 l 260 87 l 434 87 m 434 868 l 260 868 l 260 1042 l 434 1042 l 434 868 z "},"ȯ":{"ha":694,"x_min":87,"x_max":608,"o":"m 608 87 l 521 87 l 521 0 l 174 0 l 174 87 l 87 87 l 87 521 l 174 521 l 174 608 l 521 608 l 521 521 l 608 521 l 608 87 m 434 87 l 434 521 l 260 521 l 260 87 l 434 87 m 434 694 l 260 694 l 260 868 l 434 868 l 434 694 z "},"Ȱ":{"ha":694,"x_min":87,"x_max":608,"o":"m 608 87 l 521 87 l 521 0 l 174 0 l 174 87 l 87 87 l 87 694 l 174 694 l 174 781 l 521 781 l 521 694 l 608 694 l 608 87 m 434 87 l 434 694 l 260 694 l 260 87 l 434 87 m 608 1042 l 87 1042 l 87 1128 l 608 1128 l 608 1042 m 434 868 l 260 868 l 260 955 l 434 955 l 434 868 z "},"ȱ":{"ha":694,"x_min":87,"x_max":608,"o":"m 608 87 l 521 87 l 521 0 l 174 0 l 174 87 l 87 87 l 87 521 l 174 521 l 174 608 l 521 608 l 521 521 l 608 521 l 608 87 m 434 87 l 434 521 l 260 521 l 260 87 l 434 87 m 608 955 l 87 955 l 87 1042 l 608 1042 l 608 955 m 434 694 l 260 694 l 260 868 l 434 868 l 434 694 z "},"Ȳ":{"ha":694,"x_min":87,"x_max":608,"o":"m 608 434 l 521 434 l 521 347 l 434 347 l 434 0 l 260 0 l 260 347 l 174 347 l 174 434 l 87 434 l 87 781 l 260 781 l 260 434 l 434 434 l 434 781 l 608 781 l 608 434 m 608 868 l 87 868 l 87 955 l 608 955 l 608 868 z "},"ȳ":{"ha":694,"x_min":0,"x_max":608,"o":"m 608 87 l 521 87 l 521 -87 l 434 -87 l 434 -174 l 347 -174 l 347 -260 l 0 -260 l 0 -174 l 260 -174 l 260 -87 l 347 -87 l 347 0 l 174 0 l 174 87 l 87 87 l 87 608 l 260 608 l 260 87 l 434 87 l 434 608 l 608 608 l 608 87 m 608 694 l 87 694 l 87 781 l 608 781 l 608 694 z "},"ȴ":{"ha":694,"x_min":87,"x_max":694,"o":"m 434 87 l 434 260 l 521 260 l 521 87 l 608 87 l 608 0 l 521 0 l 521 -174 l 434 -174 l 434 0 l 260 0 l 260 87 l 174 87 l 174 694 l 87 694 l 87 781 l 347 781 l 347 87 l 434 87 m 521 347 l 608 347 l 608 260 l 694 260 l 694 87 l 608 87 l 608 260 l 521 260 l 521 347 z "},"ȵ":{"ha":694,"x_min":0,"x_max":694,"o":"m 347 87 l 260 87 l 260 521 l 174 521 l 174 0 l 0 0 l 0 608 l 347 608 l 347 521 l 434 521 l 434 260 l 521 260 l 521 87 l 608 87 l 608 0 l 521 0 l 521 -174 l 434 -174 l 434 0 l 347 0 l 347 87 m 608 260 l 521 260 l 521 347 l 608 347 l 608 260 l 694 260 l 694 87 l 608 87 l 608 260 z "},"ȶ":{"ha":694,"x_min":87,"x_max":694,"o":"m 434 0 l 260 0 l 260 87 l 174 87 l 174 521 l 87 521 l 87 608 l 174 608 l 174 781 l 347 781 l 347 608 l 608 608 l 608 521 l 347 521 l 347 87 l 434 87 l 434 260 l 521 260 l 521 87 l 608 87 l 608 0 l 521 0 l 521 -174 l 434 -174 l 434 0 m 521 347 l 608 347 l 608 260 l 694 260 l 694 87 l 608 87 l 608 260 l 521 260 l 521 347 z "},"ȷ":{"ha":694,"x_min":87,"x_max":521,"o":"m 521 -174 l 434 -174 l 434 -260 l 87 -260 l 87 -174 l 347 -174 l 347 521 l 174 521 l 174 608 l 521 608 l 521 -174 z "},"ȸ":{"ha":694,"x_min":0,"x_max":694,"o":"m 434 608 l 608 608 l 608 521 l 694 521 l 694 87 l 608 87 l 608 0 l 87 0 l 87 87 l 0 87 l 0 521 l 87 521 l 87 608 l 260 608 l 260 781 l 434 781 l 434 608 m 521 521 l 434 521 l 434 87 l 521 87 l 521 521 m 174 87 l 260 87 l 260 521 l 174 521 l 174 87 z "},"ȹ":{"ha":694,"x_min":0,"x_max":694,"o":"m 0 521 l 87 521 l 87 608 l 608 608 l 608 521 l 694 521 l 694 87 l 608 87 l 608 0 l 434 0 l 434 -260 l 260 -260 l 260 0 l 87 0 l 87 87 l 0 87 l 0 521 m 174 521 l 174 87 l 260 87 l 260 521 l 174 521 m 521 521 l 434 521 l 434 87 l 521 87 l 521 521 z "},"Ⱥ":{"ha":694,"x_min":87,"x_max":694,"o":"m 347 174 l 260 174 l 260 0 l 87 0 l 87 608 l 174 608 l 174 694 l 260 694 l 260 781 l 434 781 l 434 694 l 521 694 l 521 608 l 608 608 l 608 694 l 694 694 l 694 521 l 608 521 l 608 0 l 434 0 l 434 260 l 347 260 l 347 174 m 347 347 l 347 434 l 434 434 l 434 608 l 260 608 l 260 347 l 347 347 z "},"Ȼ":{"ha":694,"x_min":0,"x_max":694,"o":"m 0 87 l 87 87 l 87 694 l 174 694 l 174 781 l 521 781 l 521 694 l 694 694 l 694 608 l 608 608 l 608 521 l 521 521 l 521 434 l 434 434 l 434 347 l 347 347 l 347 260 l 260 260 l 260 87 l 434 87 l 434 260 l 608 260 l 608 87 l 521 87 l 521 0 l 0 0 l 0 87 m 434 694 l 260 694 l 260 434 l 347 434 l 347 521 l 434 521 l 434 694 z "},"ȼ":{"ha":694,"x_min":87,"x_max":608,"o":"m 434 260 l 347 260 l 347 174 l 260 174 l 260 87 l 434 87 l 434 174 l 608 174 l 608 87 l 521 87 l 521 0 l 87 0 l 87 521 l 174 521 l 174 608 l 608 608 l 608 434 l 521 434 l 521 347 l 434 347 l 434 260 m 434 521 l 260 521 l 260 347 l 347 347 l 347 434 l 434 434 l 434 521 z "},"Ƚ":{"ha":694,"x_min":0,"x_max":608,"o":"m 0 521 l 87 521 l 87 781 l 260 781 l 260 521 l 434 521 l 434 434 l 260 434 l 260 87 l 608 87 l 608 0 l 87 0 l 87 434 l 0 434 l 0 521 z "},"Ⱦ":{"ha":694,"x_min":87,"x_max":608,"o":"m 521 347 l 434 347 l 434 0 l 260 0 l 260 174 l 174 174 l 174 87 l 87 87 l 87 260 l 174 260 l 174 347 l 260 347 l 260 694 l 87 694 l 87 781 l 608 781 l 608 694 l 434 694 l 434 521 l 521 521 l 521 608 l 608 608 l 608 434 l 521 434 l 521 347 z "},"ȿ":{"ha":694,"x_min":87,"x_max":608,"o":"m 521 -87 l 521 -174 l 260 -174 l 260 -87 l 174 -87 l 174 0 l 87 0 l 87 87 l 434 87 l 434 260 l 174 260 l 174 347 l 87 347 l 87 521 l 174 521 l 174 608 l 608 608 l 608 521 l 260 521 l 260 347 l 521 347 l 521 260 l 608 260 l 608 87 l 521 87 l 521 0 l 608 0 l 608 -87 l 521 -87 l 521 0 l 347 0 l 347 -87 l 521 -87 z "},"ɀ":{"ha":694,"x_min":87,"x_max":694,"o":"m 608 -174 l 347 -174 l 347 -87 l 260 -87 l 260 0 l 87 0 l 87 174 l 174 174 l 174 260 l 260 260 l 260 347 l 347 347 l 347 434 l 434 434 l 434 521 l 87 521 l 87 608 l 608 608 l 608 434 l 521 434 l 521 347 l 434 347 l 434 260 l 347 260 l 347 174 l 260 174 l 260 87 l 347 87 l 347 0 l 434 0 l 434 -87 l 608 -87 l 608 -174 m 608 0 l 694 0 l 694 -87 l 608 -87 l 608 0 z "},"Ɂ":{"ha":694,"x_min":87,"x_max":608,"o":"m 434 0 l 260 0 l 260 347 l 434 347 l 434 694 l 260 694 l 260 521 l 87 521 l 87 694 l 174 694 l 174 781 l 521 781 l 521 694 l 608 694 l 608 347 l 521 347 l 521 260 l 434 260 l 434 0 z "},"ɂ":{"ha":694,"x_min":87,"x_max":608,"o":"m 434 0 l 260 0 l 260 174 l 347 174 l 347 260 l 434 260 l 434 521 l 260 521 l 260 434 l 87 434 l 87 521 l 174 521 l 174 608 l 521 608 l 521 521 l 608 521 l 608 260 l 521 260 l 521 174 l 434 174 l 434 0 z "},"Ƀ":{"ha":694,"x_min":0,"x_max":694,"o":"m 521 434 l 521 347 l 608 347 l 608 260 l 694 260 l 694 174 l 608 174 l 608 87 l 521 87 l 521 0 l 87 0 l 87 174 l 0 174 l 0 260 l 87 260 l 87 781 l 521 781 l 521 694 l 608 694 l 608 434 l 521 434 m 434 434 l 434 694 l 260 694 l 260 434 l 434 434 m 434 87 l 434 174 l 260 174 l 260 87 l 434 87 m 260 260 l 434 260 l 434 347 l 260 347 l 260 260 z "},"Ʉ":{"ha":694,"x_min":0,"x_max":694,"o":"m 0 434 l 87 434 l 87 781 l 260 781 l 260 434 l 434 434 l 434 781 l 608 781 l 608 434 l 694 434 l 694 347 l 608 347 l 608 87 l 521 87 l 521 0 l 174 0 l 174 87 l 87 87 l 87 347 l 0 347 l 0 434 m 434 87 l 434 347 l 260 347 l 260 87 l 434 87 z "},"Ʌ":{"ha":694,"x_min":87,"x_max":608,"o":"m 434 608 l 260 608 l 260 0 l 87 0 l 87 608 l 174 608 l 174 694 l 260 694 l 260 781 l 434 781 l 434 694 l 521 694 l 521 608 l 608 608 l 608 0 l 434 0 l 434 608 z "},"Ɇ":{"ha":694,"x_min":0,"x_max":608,"o":"m 608 0 l 87 0 l 87 87 l 0 87 l 0 260 l 87 260 l 87 781 l 608 781 l 608 694 l 260 694 l 260 521 l 347 521 l 347 608 l 521 608 l 521 521 l 434 521 l 434 434 l 347 434 l 347 347 l 260 347 l 260 87 l 608 87 l 608 0 z "},"ɇ":{"ha":694,"x_min":87,"x_max":608,"o":"m 87 521 l 174 521 l 174 608 l 608 608 l 608 260 l 347 260 l 347 174 l 260 174 l 260 87 l 521 87 l 521 0 l 87 0 l 87 521 m 347 347 l 347 434 l 434 434 l 434 521 l 260 521 l 260 347 l 347 347 z "},"Ɉ":{"ha":694,"x_min":87,"x_max":694,"o":"m 260 521 l 434 521 l 434 781 l 608 781 l 608 521 l 694 521 l 694 434 l 608 434 l 608 87 l 521 87 l 521 0 l 174 0 l 174 87 l 87 87 l 87 260 l 260 260 l 260 87 l 434 87 l 434 434 l 260 434 l 260 521 z "},"ɉ":{"ha":694,"x_min":87,"x_max":608,"o":"m 174 260 l 347 260 l 347 521 l 174 521 l 174 608 l 521 608 l 521 260 l 608 260 l 608 174 l 521 174 l 521 -174 l 434 -174 l 434 -260 l 87 -260 l 87 -174 l 347 -174 l 347 174 l 174 174 l 174 260 m 521 694 l 347 694 l 347 868 l 521 868 l 521 694 z "},"Ɋ":{"ha":694,"x_min":87,"x_max":694,"o":"m 521 -174 l 434 -174 l 434 0 l 174 0 l 174 87 l 87 87 l 87 694 l 174 694 l 174 781 l 608 781 l 608 -174 l 694 -174 l 694 -260 l 521 -260 l 521 -174 m 260 87 l 434 87 l 434 694 l 260 694 l 260 87 z "},"ɋ":{"ha":694,"x_min":87,"x_max":694,"o":"m 521 -174 l 434 -174 l 434 0 l 174 0 l 174 95 l 87 95 l 87 521 l 174 521 l 174 608 l 608 608 l 608 -174 l 694 -174 l 694 -260 l 521 -260 l 521 -174 m 260 95 l 434 95 l 434 521 l 260 521 l 260 95 z "},"Ɍ":{"ha":694,"x_min":0,"x_max":608,"o":"m 0 434 l 87 434 l 87 781 l 521 781 l 521 694 l 608 694 l 608 434 l 521 434 l 521 260 l 608 260 l 608 0 l 434 0 l 434 260 l 347 260 l 347 347 l 260 347 l 260 0 l 87 0 l 87 347 l 0 347 l 0 434 m 434 434 l 434 694 l 260 694 l 260 434 l 434 434 z "},"ɍ":{"ha":694,"x_min":0,"x_max":608,"o":"m 0 260 l 87 260 l 87 608 l 260 608 l 260 434 l 347 434 l 347 347 l 260 347 l 260 260 l 434 260 l 434 174 l 260 174 l 260 0 l 87 0 l 87 174 l 0 174 l 0 260 m 608 434 l 347 434 l 347 521 l 434 521 l 434 608 l 608 608 l 608 434 z "},"Ɏ":{"ha":694,"x_min":0,"x_max":694,"o":"m 0 608 l 87 608 l 87 781 l 260 781 l 260 608 l 434 608 l 434 781 l 608 781 l 608 608 l 694 608 l 694 521 l 608 521 l 608 434 l 521 434 l 521 347 l 434 347 l 434 0 l 260 0 l 260 347 l 174 347 l 174 434 l 87 434 l 87 521 l 0 521 l 0 608 m 434 434 l 434 521 l 260 521 l 260 434 l 434 434 z "},"ɏ":{"ha":694,"x_min":0,"x_max":694,"o":"m 0 434 l 87 434 l 87 608 l 260 608 l 260 434 l 434 434 l 434 608 l 608 608 l 608 434 l 694 434 l 694 347 l 608 347 l 608 87 l 521 87 l 521 -87 l 434 -87 l 434 -174 l 347 -174 l 347 -260 l 0 -260 l 0 -174 l 260 -174 l 260 -87 l 347 -87 l 347 0 l 174 0 l 174 87 l 87 87 l 87 347 l 0 347 l 0 434 m 434 87 l 434 347 l 260 347 l 260 87 l 434 87 z "},"ɐ":{"ha":694,"x_min":87,"x_max":608,"o":"m 608 347 l 521 347 l 521 260 l 260 260 l 260 87 l 521 87 l 521 0 l 174 0 l 174 87 l 87 87 l 87 608 l 521 608 l 521 521 l 608 521 l 608 347 m 434 347 l 434 521 l 260 521 l 260 347 l 434 347 z "},"ɑ":{"ha":694,"x_min":87,"x_max":694,"o":"m 434 87 l 434 521 l 260 521 l 260 87 l 434 87 l 434 0 l 174 0 l 174 87 l 87 87 l 87 521 l 174 521 l 174 608 l 608 608 l 608 87 l 694 87 l 694 0 l 521 0 l 521 87 l 434 87 z "},"ɒ":{"ha":694,"x_min":87,"x_max":694,"o":"m 521 87 l 521 521 l 347 521 l 347 608 l 608 608 l 608 521 l 694 521 l 694 87 l 608 87 l 608 0 l 174 0 l 174 521 l 87 521 l 87 608 l 260 608 l 260 521 l 347 521 l 347 87 l 521 87 z "},"ɓ":{"ha":694,"x_min":87,"x_max":608,"o":"m 608 87 l 521 87 l 521 0 l 87 0 l 87 781 l 174 781 l 174 868 l 434 868 l 434 781 l 260 781 l 260 608 l 521 608 l 521 521 l 608 521 l 608 87 m 434 87 l 434 521 l 260 521 l 260 87 l 434 87 z "},"ɔ":{"ha":694,"x_min":87,"x_max":608,"o":"m 608 87 l 521 87 l 521 0 l 174 0 l 174 87 l 87 87 l 87 174 l 260 174 l 260 87 l 434 87 l 434 521 l 260 521 l 260 434 l 87 434 l 87 521 l 174 521 l 174 608 l 521 608 l 521 521 l 608 521 l 608 87 z "},"ɕ":{"ha":694,"x_min":87,"x_max":694,"o":"m 174 87 l 87 87 l 87 521 l 174 521 l 174 608 l 521 608 l 521 521 l 608 521 l 608 434 l 434 434 l 434 521 l 260 521 l 260 87 l 434 87 l 434 260 l 521 260 l 521 87 l 608 87 l 608 0 l 521 0 l 521 -174 l 434 -174 l 434 0 l 174 0 l 174 87 m 521 347 l 608 347 l 608 260 l 694 260 l 694 87 l 608 87 l 608 260 l 521 260 l 521 347 z "},"ɖ":{"ha":694,"x_min":87,"x_max":694,"o":"m 694 -260 l 521 -260 l 521 -174 l 434 -174 l 434 0 l 174 0 l 174 87 l 87 87 l 87 521 l 174 521 l 174 608 l 434 608 l 434 781 l 608 781 l 608 -174 l 694 -174 l 694 -260 m 434 87 l 434 521 l 260 521 l 260 87 l 434 87 z "},"ɗ":{"ha":694,"x_min":87,"x_max":781,"o":"m 781 781 l 608 781 l 608 0 l 174 0 l 174 87 l 87 87 l 87 521 l 174 521 l 174 608 l 434 608 l 434 781 l 521 781 l 521 868 l 781 868 l 781 781 m 434 521 l 260 521 l 260 87 l 434 87 l 434 521 z "},"ɘ":{"ha":694,"x_min":87,"x_max":608,"o":"m 608 87 l 521 87 l 521 0 l 174 0 l 174 87 l 434 87 l 434 260 l 87 260 l 87 521 l 174 521 l 174 608 l 521 608 l 521 521 l 608 521 l 608 87 m 434 347 l 434 521 l 260 521 l 260 347 l 434 347 z "},"ə":{"ha":694,"x_min":87,"x_max":608,"o":"m 608 87 l 521 87 l 521 0 l 174 0 l 174 87 l 87 87 l 87 347 l 434 347 l 434 521 l 174 521 l 174 608 l 521 608 l 521 521 l 608 521 l 608 87 m 434 87 l 434 260 l 260 260 l 260 87 l 434 87 z "},"ɚ":{"ha":694,"x_min":0,"x_max":694,"o":"m 694 260 l 694 174 l 521 174 l 521 260 l 434 260 l 434 87 l 347 87 l 347 0 l 87 0 l 87 87 l 0 87 l 0 347 l 260 347 l 260 521 l 87 521 l 87 608 l 347 608 l 347 521 l 434 521 l 434 347 l 521 347 l 521 434 l 608 434 l 608 260 l 694 260 m 260 260 l 174 260 l 174 87 l 260 87 l 260 260 z "},"ɛ":{"ha":694,"x_min":87,"x_max":608,"o":"m 608 87 l 521 87 l 521 0 l 174 0 l 174 87 l 87 87 l 87 260 l 174 260 l 174 347 l 87 347 l 87 521 l 174 521 l 174 608 l 521 608 l 521 521 l 608 521 l 608 434 l 434 434 l 434 521 l 260 521 l 260 347 l 434 347 l 434 260 l 260 260 l 260 87 l 434 87 l 434 174 l 608 174 l 608 87 z "},"ɜ":{"ha":694,"x_min":87,"x_max":608,"o":"m 608 87 l 521 87 l 521 0 l 174 0 l 174 87 l 87 87 l 87 174 l 260 174 l 260 87 l 434 87 l 434 260 l 260 260 l 260 347 l 434 347 l 434 521 l 260 521 l 260 434 l 87 434 l 87 521 l 174 521 l 174 608 l 521 608 l 521 521 l 608 521 l 608 347 l 521 347 l 521 260 l 608 260 l 608 87 z "},"ɝ":{"ha":694,"x_min":0,"x_max":694,"o":"m 694 260 l 521 260 l 521 347 l 347 347 l 347 260 l 434 260 l 434 87 l 347 87 l 347 0 l 87 0 l 87 87 l 0 87 l 0 174 l 174 174 l 174 87 l 260 87 l 260 260 l 174 260 l 174 347 l 260 347 l 260 521 l 174 521 l 174 434 l 0 434 l 0 521 l 87 521 l 87 608 l 347 608 l 347 521 l 434 521 l 434 434 l 521 434 l 521 521 l 608 521 l 608 347 l 694 347 l 694 260 z "},"ɞ":{"ha":694,"x_min":87,"x_max":608,"o":"m 608 87 l 521 87 l 521 0 l 174 0 l 174 87 l 87 87 l 87 521 l 174 521 l 174 608 l 521 608 l 521 521 l 608 521 l 608 347 l 521 347 l 521 260 l 608 260 l 608 87 m 434 87 l 434 260 l 347 260 l 347 347 l 434 347 l 434 521 l 260 521 l 260 87 l 434 87 z "},"ɟ":{"ha":694,"x_min":87,"x_max":608,"o":"m 608 174 l 521 174 l 521 -174 l 434 -174 l 434 -260 l 87 -260 l 87 -174 l 347 -174 l 347 174 l 174 174 l 174 260 l 347 260 l 347 521 l 174 521 l 174 608 l 521 608 l 521 260 l 608 260 l 608 174 z "},"ɠ":{"ha":694,"x_min":87,"x_max":781,"o":"m 87 -174 l 434 -174 l 434 0 l 174 0 l 174 87 l 87 87 l 87 521 l 174 521 l 174 608 l 434 608 l 434 781 l 521 781 l 521 868 l 781 868 l 781 781 l 608 781 l 608 -174 l 521 -174 l 521 -260 l 87 -260 l 87 -174 m 434 521 l 260 521 l 260 87 l 434 87 l 434 521 z "},"ɡ":{"ha":694,"x_min":87,"x_max":608,"o":"m 608 -174 l 521 -174 l 521 -260 l 87 -260 l 87 -174 l 434 -174 l 434 0 l 174 0 l 174 87 l 87 87 l 87 521 l 174 521 l 174 608 l 608 608 l 608 -174 m 434 87 l 434 521 l 260 521 l 260 87 l 434 87 z "},"ɢ":{"ha":694,"x_min":87,"x_max":608,"o":"m 608 0 l 174 0 l 174 87 l 87 87 l 87 521 l 174 521 l 174 608 l 521 608 l 521 521 l 608 521 l 608 434 l 434 434 l 434 521 l 260 521 l 260 87 l 434 87 l 434 260 l 347 260 l 347 347 l 608 347 l 608 0 z "},"ɣ":{"ha":694,"x_min":87,"x_max":694,"o":"m 694 347 l 608 347 l 608 174 l 521 174 l 521 0 l 608 0 l 608 -174 l 521 -174 l 521 -260 l 260 -260 l 260 -174 l 174 -174 l 174 0 l 260 0 l 260 174 l 174 174 l 174 347 l 87 347 l 87 608 l 260 608 l 260 347 l 347 347 l 347 174 l 434 174 l 434 347 l 521 347 l 521 608 l 694 608 l 694 347 m 434 -174 l 434 0 l 347 0 l 347 -174 l 434 -174 z "},"ɤ":{"ha":694,"x_min":87,"x_max":694,"o":"m 87 521 l 174 521 l 174 608 l 347 608 l 347 521 l 434 521 l 434 347 l 521 347 l 521 260 l 608 260 l 608 87 l 521 87 l 521 0 l 260 0 l 260 87 l 174 87 l 174 260 l 260 260 l 260 347 l 87 347 l 87 521 m 434 521 l 434 608 l 608 608 l 608 521 l 694 521 l 694 347 l 521 347 l 521 521 l 434 521 m 434 87 l 434 260 l 347 260 l 347 87 l 434 87 m 260 347 l 347 347 l 347 521 l 260 521 l 260 347 z "},"ɥ":{"ha":694,"x_min":87,"x_max":608,"o":"m 608 -260 l 434 -260 l 434 0 l 174 0 l 174 87 l 87 87 l 87 608 l 260 608 l 260 87 l 434 87 l 434 608 l 608 608 l 608 -260 z "},"ɦ":{"ha":694,"x_min":87,"x_max":608,"o":"m 608 0 l 434 0 l 434 521 l 260 521 l 260 0 l 87 0 l 87 781 l 174 781 l 174 868 l 434 868 l 434 781 l 260 781 l 260 608 l 521 608 l 521 521 l 608 521 l 608 0 z "},"ɧ":{"ha":694,"x_min":87,"x_max":608,"o":"m 608 -174 l 521 -174 l 521 -260 l 260 -260 l 260 -174 l 434 -174 l 434 521 l 260 521 l 260 0 l 87 0 l 87 781 l 174 781 l 174 868 l 434 868 l 434 781 l 260 781 l 260 608 l 521 608 l 521 521 l 608 521 l 608 -174 z "},"ɨ":{"ha":694,"x_min":87,"x_max":608,"o":"m 608 0 l 87 0 l 87 87 l 260 87 l 260 260 l 87 260 l 87 347 l 260 347 l 260 521 l 87 521 l 87 608 l 434 608 l 434 347 l 608 347 l 608 260 l 434 260 l 434 87 l 608 87 l 608 0 m 434 694 l 260 694 l 260 868 l 434 868 l 434 694 z "},"ɩ":{"ha":694,"x_min":87,"x_max":608,"o":"m 608 87 l 521 87 l 521 0 l 260 0 l 260 87 l 174 87 l 174 521 l 87 521 l 87 608 l 347 608 l 347 87 l 434 87 l 434 174 l 608 174 l 608 87 z "},"ɪ":{"ha":694,"x_min":87,"x_max":608,"o":"m 608 0 l 87 0 l 87 87 l 260 87 l 260 521 l 87 521 l 87 608 l 608 608 l 608 521 l 434 521 l 434 87 l 608 87 l 608 0 z "},"ɫ":{"ha":694,"x_min":87,"x_max":608,"o":"m 434 87 l 608 87 l 608 0 l 87 0 l 87 87 l 260 87 l 260 434 l 174 434 l 174 521 l 260 521 l 260 694 l 87 694 l 87 781 l 434 781 l 434 434 l 521 434 l 521 347 l 434 347 l 434 87 m 87 434 l 174 434 l 174 347 l 87 347 l 87 434 m 521 521 l 608 521 l 608 434 l 521 434 l 521 521 z "},"ɬ":{"ha":694,"x_min":87,"x_max":694,"o":"m 87 521 l 174 521 l 174 608 l 347 608 l 347 694 l 174 694 l 174 781 l 521 781 l 521 347 l 694 347 l 694 260 l 521 260 l 521 87 l 694 87 l 694 0 l 174 0 l 174 87 l 347 87 l 347 260 l 174 260 l 174 347 l 87 347 l 87 521 m 347 347 l 347 521 l 260 521 l 260 347 l 347 347 z "},"ɭ":{"ha":694,"x_min":87,"x_max":608,"o":"m 347 -174 l 260 -174 l 260 694 l 87 694 l 87 781 l 434 781 l 434 -174 l 608 -174 l 608 -260 l 347 -260 l 347 -174 z "},"ɮ":{"ha":694,"x_min":87,"x_max":694,"o":"m 87 87 l 174 87 l 174 694 l 87 694 l 87 781 l 347 781 l 347 608 l 694 608 l 694 347 l 608 347 l 608 174 l 694 174 l 694 -174 l 608 -174 l 608 -260 l 260 -260 l 260 -174 l 174 -174 l 174 -87 l 347 -87 l 347 -174 l 521 -174 l 521 174 l 434 174 l 434 347 l 521 347 l 521 521 l 347 521 l 347 87 l 434 87 l 434 0 l 87 0 l 87 87 z "},"ɯ":{"ha":694,"x_min":87,"x_max":694,"o":"m 87 608 l 260 608 l 260 87 l 347 87 l 347 521 l 434 521 l 434 87 l 521 87 l 521 608 l 694 608 l 694 0 l 174 0 l 174 87 l 87 87 l 87 608 z "},"ɰ":{"ha":694,"x_min":87,"x_max":694,"o":"m 260 608 l 260 87 l 347 87 l 347 521 l 434 521 l 434 87 l 521 87 l 521 608 l 694 608 l 694 -260 l 521 -260 l 521 0 l 174 0 l 174 87 l 87 87 l 87 608 l 260 608 z "},"ɱ":{"ha":694,"x_min":87,"x_max":694,"o":"m 347 -174 l 521 -174 l 521 521 l 434 521 l 434 87 l 347 87 l 347 521 l 260 521 l 260 0 l 87 0 l 87 608 l 608 608 l 608 521 l 694 521 l 694 -174 l 608 -174 l 608 -260 l 347 -260 l 347 -174 z "},"ɲ":{"ha":694,"x_min":0,"x_max":608,"o":"m 0 -174 l 87 -174 l 87 608 l 521 608 l 521 521 l 608 521 l 608 0 l 434 0 l 434 521 l 260 521 l 260 -174 l 174 -174 l 174 -260 l 0 -260 l 0 -174 z "},"ɳ":{"ha":694,"x_min":87,"x_max":694,"o":"m 434 521 l 260 521 l 260 0 l 87 0 l 87 608 l 521 608 l 521 521 l 608 521 l 608 -174 l 694 -174 l 694 -260 l 521 -260 l 521 -174 l 434 -174 l 434 521 z "},"ɴ":{"ha":694,"x_min":87,"x_max":694,"o":"m 694 0 l 521 0 l 521 174 l 434 174 l 434 260 l 347 260 l 347 347 l 260 347 l 260 0 l 87 0 l 87 608 l 260 608 l 260 521 l 347 521 l 347 434 l 434 434 l 434 347 l 521 347 l 521 608 l 694 608 l 694 0 z "},"ɵ":{"ha":694,"x_min":87,"x_max":608,"o":"m 608 87 l 521 87 l 521 0 l 174 0 l 174 87 l 87 87 l 87 521 l 174 521 l 174 608 l 521 608 l 521 521 l 608 521 l 608 87 m 434 87 l 434 260 l 260 260 l 260 87 l 434 87 m 434 347 l 434 521 l 260 521 l 260 347 l 434 347 z "},"ɶ":{"ha":694,"x_min":87,"x_max":694,"o":"m 694 0 l 174 0 l 174 87 l 87 87 l 87 521 l 174 521 l 174 608 l 694 608 l 694 521 l 521 521 l 521 347 l 694 347 l 694 260 l 521 260 l 521 87 l 694 87 l 694 0 m 347 87 l 347 521 l 260 521 l 260 87 l 347 87 z "},"ɷ":{"ha":694,"x_min":87,"x_max":694,"o":"m 521 87 l 521 521 l 260 521 l 260 87 l 347 87 l 347 0 l 174 0 l 174 87 l 87 87 l 87 521 l 174 521 l 174 608 l 608 608 l 608 521 l 694 521 l 694 87 l 608 87 l 608 0 l 434 0 l 434 87 l 347 87 l 347 434 l 434 434 l 434 87 l 521 87 z "},"ɸ":{"ha":694,"x_min":87,"x_max":694,"o":"m 694 87 l 608 87 l 608 0 l 434 0 l 434 -260 l 347 -260 l 347 0 l 174 0 l 174 87 l 87 87 l 87 521 l 174 521 l 174 608 l 347 608 l 347 868 l 434 868 l 434 608 l 608 608 l 608 521 l 694 521 l 694 87 m 347 87 l 347 521 l 260 521 l 260 87 l 347 87 m 521 87 l 521 521 l 434 521 l 434 87 l 521 87 z "},"ɹ":{"ha":694,"x_min":87,"x_max":608,"o":"m 347 260 l 434 260 l 434 608 l 608 608 l 608 0 l 434 0 l 434 174 l 347 174 l 347 260 m 87 174 l 347 174 l 347 87 l 260 87 l 260 0 l 87 0 l 87 174 z "},"ɺ":{"ha":694,"x_min":87,"x_max":608,"o":"m 347 260 l 434 260 l 434 781 l 608 781 l 608 0 l 434 0 l 434 174 l 347 174 l 347 260 m 87 174 l 347 174 l 347 87 l 260 87 l 260 0 l 87 0 l 87 174 z "},"ɻ":{"ha":694,"x_min":87,"x_max":694,"o":"m 434 174 l 347 174 l 347 260 l 434 260 l 434 608 l 608 608 l 608 -174 l 694 -174 l 694 -260 l 521 -260 l 521 -174 l 434 -174 l 434 174 m 347 174 l 347 87 l 260 87 l 260 0 l 87 0 l 87 174 l 347 174 z "},"ɼ":{"ha":694,"x_min":87,"x_max":608,"o":"m 347 347 l 260 347 l 260 -260 l 87 -260 l 87 608 l 260 608 l 260 434 l 347 434 l 347 347 m 608 434 l 347 434 l 347 521 l 434 521 l 434 608 l 608 608 l 608 434 z "},"ɽ":{"ha":694,"x_min":87,"x_max":608,"o":"m 174 -174 l 87 -174 l 87 608 l 260 608 l 260 434 l 347 434 l 347 347 l 260 347 l 260 -174 l 434 -174 l 434 -260 l 174 -260 l 174 -174 m 347 434 l 347 521 l 434 521 l 434 608 l 608 608 l 608 434 l 347 434 z "},"ɾ":{"ha":694,"x_min":87,"x_max":608,"o":"m 434 521 l 260 521 l 260 0 l 87 0 l 87 521 l 174 521 l 174 608 l 521 608 l 521 521 l 608 521 l 608 347 l 434 347 l 434 521 z "},"ɿ":{"ha":694,"x_min":87,"x_max":608,"o":"m 260 347 l 87 347 l 87 521 l 174 521 l 174 608 l 521 608 l 521 521 l 608 521 l 608 0 l 434 0 l 434 521 l 260 521 l 260 347 z "},"ʀ":{"ha":694,"x_min":87,"x_max":608,"o":"m 608 0 l 434 0 l 434 260 l 260 260 l 260 0 l 87 0 l 87 608 l 521 608 l 521 521 l 608 521 l 608 347 l 521 347 l 521 260 l 608 260 l 608 0 m 434 347 l 434 521 l 260 521 l 260 347 l 434 347 z "},"ʁ":{"ha":694,"x_min":87,"x_max":608,"o":"m 608 347 l 521 347 l 521 260 l 608 260 l 608 87 l 521 87 l 521 0 l 87 0 l 87 608 l 260 608 l 260 347 l 434 347 l 434 608 l 608 608 l 608 347 m 260 260 l 260 87 l 434 87 l 434 260 l 260 260 z "},"ʂ":{"ha":694,"x_min":87,"x_max":608,"o":"m 434 -260 l 174 -260 l 174 -174 l 87 -174 l 87 87 l 434 87 l 434 260 l 174 260 l 174 347 l 87 347 l 87 521 l 174 521 l 174 608 l 608 608 l 608 521 l 260 521 l 260 347 l 521 347 l 521 260 l 608 260 l 608 87 l 521 87 l 521 0 l 260 0 l 260 -174 l 434 -174 l 434 -260 z "},"ʃ":{"ha":694,"x_min":87,"x_max":608,"o":"m 608 694 l 434 694 l 434 -174 l 347 -174 l 347 -260 l 87 -260 l 87 -174 l 260 -174 l 260 694 l 347 694 l 347 781 l 608 781 l 608 694 z "},"ʄ":{"ha":694,"x_min":87,"x_max":608,"o":"m 608 87 l 434 87 l 434 -174 l 347 -174 l 347 -260 l 87 -260 l 87 -174 l 260 -174 l 260 87 l 87 87 l 87 174 l 260 174 l 260 694 l 347 694 l 347 781 l 608 781 l 608 694 l 434 694 l 434 174 l 608 174 l 608 87 z "},"ʅ":{"ha":694,"x_min":87,"x_max":608,"o":"m 608 0 l 347 0 l 347 87 l 260 87 l 260 521 l 87 521 l 87 608 l 347 608 l 347 521 l 434 521 l 434 87 l 608 87 l 608 0 z "},"ʆ":{"ha":694,"x_min":0,"x_max":608,"o":"m 608 -174 l 521 -174 l 521 -87 l 434 -87 l 434 -174 l 347 -174 l 347 -260 l 87 -260 l 87 -174 l 0 -174 l 0 0 l 87 0 l 87 87 l 260 87 l 260 694 l 347 694 l 347 781 l 608 781 l 608 694 l 434 694 l 434 0 l 521 0 l 521 -87 l 608 -87 l 608 -174 m 260 -174 l 260 0 l 174 0 l 174 -174 l 260 -174 z "},"ʇ":{"ha":694,"x_min":87,"x_max":608,"o":"m 608 174 l 521 174 l 521 0 l 347 0 l 347 174 l 87 174 l 87 260 l 347 260 l 347 694 l 87 694 l 87 781 l 434 781 l 434 694 l 521 694 l 521 260 l 608 260 l 608 174 z "},"ʈ":{"ha":694,"x_min":87,"x_max":608,"o":"m 608 -260 l 260 -260 l 260 -174 l 174 -174 l 174 521 l 87 521 l 87 608 l 174 608 l 174 781 l 347 781 l 347 608 l 608 608 l 608 521 l 347 521 l 347 -174 l 608 -174 l 608 -260 z "},"ʉ":{"ha":694,"x_min":0,"x_max":694,"o":"m 0 347 l 87 347 l 87 608 l 260 608 l 260 347 l 434 347 l 434 608 l 608 608 l 608 347 l 694 347 l 694 260 l 608 260 l 608 0 l 174 0 l 174 87 l 87 87 l 87 260 l 0 260 l 0 347 m 434 87 l 434 260 l 260 260 l 260 87 l 434 87 z "},"ʊ":{"ha":694,"x_min":87,"x_max":694,"o":"m 694 87 l 608 87 l 608 0 l 174 0 l 174 87 l 87 87 l 87 434 l 174 434 l 174 521 l 87 521 l 87 608 l 347 608 l 347 521 l 260 521 l 260 87 l 521 87 l 521 521 l 434 521 l 434 608 l 694 608 l 694 521 l 608 521 l 608 434 l 694 434 l 694 87 z "},"ʋ":{"ha":694,"x_min":87,"x_max":608,"o":"m 608 87 l 521 87 l 521 0 l 174 0 l 174 87 l 87 87 l 87 608 l 260 608 l 260 87 l 434 87 l 434 521 l 347 521 l 347 608 l 521 608 l 521 521 l 608 521 l 608 87 z "},"ʌ":{"ha":694,"x_min":87,"x_max":608,"o":"m 608 0 l 434 0 l 434 434 l 260 434 l 260 0 l 87 0 l 87 434 l 174 434 l 174 521 l 260 521 l 260 608 l 434 608 l 434 521 l 521 521 l 521 434 l 608 434 l 608 0 z "},"ʍ":{"ha":694,"x_min":87,"x_max":694,"o":"m 434 87 l 347 87 l 347 434 l 260 434 l 260 0 l 87 0 l 87 434 l 174 434 l 174 608 l 347 608 l 347 434 l 434 434 l 434 87 m 694 0 l 521 0 l 521 434 l 434 434 l 434 608 l 608 608 l 608 434 l 694 434 l 694 0 z "},"ʎ":{"ha":694,"x_min":87,"x_max":694,"o":"m 694 694 l 434 694 l 434 608 l 347 608 l 347 521 l 521 521 l 521 434 l 608 434 l 608 0 l 434 0 l 434 434 l 260 434 l 260 0 l 87 0 l 87 434 l 174 434 l 174 608 l 260 608 l 260 694 l 347 694 l 347 781 l 694 781 l 694 694 z "},"ʏ":{"ha":694,"x_min":87,"x_max":608,"o":"m 608 347 l 521 347 l 521 260 l 434 260 l 434 0 l 260 0 l 260 260 l 174 260 l 174 347 l 87 347 l 87 608 l 260 608 l 260 347 l 434 347 l 434 608 l 608 608 l 608 347 z "},"ʐ":{"ha":694,"x_min":87,"x_max":694,"o":"m 434 0 l 87 0 l 87 174 l 174 174 l 174 260 l 260 260 l 260 347 l 347 347 l 347 434 l 434 434 l 434 521 l 87 521 l 87 608 l 608 608 l 608 434 l 521 434 l 521 347 l 434 347 l 434 260 l 347 260 l 347 174 l 260 174 l 260 87 l 608 87 l 608 -174 l 694 -174 l 694 -260 l 521 -260 l 521 -174 l 434 -174 l 434 0 z "},"ʑ":{"ha":694,"x_min":87,"x_max":694,"o":"m 521 347 l 434 347 l 434 260 l 521 260 l 521 87 l 608 87 l 608 0 l 521 0 l 521 -174 l 434 -174 l 434 0 l 87 0 l 87 174 l 174 174 l 174 260 l 260 260 l 260 347 l 347 347 l 347 434 l 434 434 l 434 521 l 87 521 l 87 608 l 608 608 l 608 434 l 521 434 l 521 347 l 608 347 l 608 260 l 694 260 l 694 87 l 608 87 l 608 260 l 521 260 l 521 347 m 434 260 l 347 260 l 347 174 l 260 174 l 260 87 l 434 87 l 434 260 z "},"ʒ":{"ha":694,"x_min":87,"x_max":608,"o":"m 608 -174 l 521 -174 l 521 -260 l 174 -260 l 174 -174 l 87 -174 l 87 -87 l 260 -87 l 260 -174 l 434 -174 l 434 174 l 174 174 l 174 260 l 260 260 l 260 347 l 347 347 l 347 434 l 434 434 l 434 521 l 87 521 l 87 608 l 608 608 l 608 434 l 521 434 l 521 347 l 434 347 l 434 260 l 521 260 l 521 174 l 608 174 l 608 -174 z "},"ʓ":{"ha":694,"x_min":87,"x_max":694,"o":"m 694 -87 l 608 -87 l 608 -174 l 521 -174 l 521 -260 l 174 -260 l 174 -174 l 87 -174 l 87 0 l 174 0 l 174 87 l 434 87 l 434 174 l 174 174 l 174 260 l 260 260 l 260 347 l 347 347 l 347 434 l 434 434 l 434 521 l 87 521 l 87 608 l 608 608 l 608 434 l 521 434 l 521 347 l 434 347 l 434 260 l 521 260 l 521 174 l 608 174 l 608 0 l 694 0 l 694 -87 m 434 -174 l 434 0 l 260 0 l 260 -174 l 434 -174 z "},"ʔ":{"ha":694,"x_min":87,"x_max":608,"o":"m 434 0 l 260 0 l 260 347 l 347 347 l 347 434 l 434 434 l 434 694 l 260 694 l 260 521 l 87 521 l 87 694 l 174 694 l 174 781 l 521 781 l 521 694 l 608 694 l 608 434 l 521 434 l 521 347 l 434 347 l 434 0 z "},"ʕ":{"ha":694,"x_min":87,"x_max":608,"o":"m 260 347 l 174 347 l 174 434 l 87 434 l 87 694 l 174 694 l 174 781 l 521 781 l 521 694 l 608 694 l 608 521 l 434 521 l 434 694 l 260 694 l 260 434 l 347 434 l 347 347 l 434 347 l 434 0 l 260 0 l 260 347 z "},"ʖ":{"ha":694,"x_min":87,"x_max":608,"o":"m 260 781 l 434 781 l 434 434 l 521 434 l 521 347 l 608 347 l 608 87 l 521 87 l 521 0 l 174 0 l 174 87 l 87 87 l 87 260 l 260 260 l 260 87 l 434 87 l 434 347 l 347 347 l 347 434 l 260 434 l 260 781 z "},"ʗ":{"ha":694,"x_min":87,"x_max":608,"o":"m 608 -174 l 521 -174 l 521 -260 l 174 -260 l 174 -174 l 87 -174 l 87 521 l 174 521 l 174 608 l 521 608 l 521 521 l 608 521 l 608 434 l 434 434 l 434 521 l 260 521 l 260 -174 l 434 -174 l 434 -87 l 608 -87 l 608 -174 z "},"ʘ":{"ha":694,"x_min":87,"x_max":694,"o":"m 694 87 l 608 87 l 608 0 l 174 0 l 174 87 l 87 87 l 87 694 l 174 694 l 174 781 l 608 781 l 608 694 l 694 694 l 694 87 m 521 87 l 521 694 l 260 694 l 260 87 l 521 87 m 434 347 l 347 347 l 347 434 l 434 434 l 434 347 z "},"ʙ":{"ha":694,"x_min":87,"x_max":608,"o":"m 608 87 l 521 87 l 521 0 l 87 0 l 87 608 l 521 608 l 521 521 l 608 521 l 608 347 l 521 347 l 521 260 l 608 260 l 608 87 m 434 87 l 434 260 l 260 260 l 260 87 l 434 87 m 434 347 l 434 521 l 260 521 l 260 347 l 434 347 z "},"ʚ":{"ha":694,"x_min":87,"x_max":608,"o":"m 608 87 l 521 87 l 521 0 l 174 0 l 174 87 l 87 87 l 87 260 l 174 260 l 174 347 l 87 347 l 87 521 l 174 521 l 174 608 l 521 608 l 521 521 l 608 521 l 608 87 m 434 87 l 434 521 l 260 521 l 260 347 l 347 347 l 347 260 l 260 260 l 260 87 l 434 87 z "},"ʛ":{"ha":694,"x_min":87,"x_max":694,"o":"m 608 434 l 434 434 l 434 521 l 260 521 l 260 87 l 434 87 l 434 260 l 347 260 l 347 347 l 608 347 l 608 0 l 174 0 l 174 87 l 87 87 l 87 521 l 174 521 l 174 608 l 434 608 l 434 694 l 521 694 l 521 781 l 694 781 l 694 694 l 608 694 l 608 434 z "},"ʜ":{"ha":694,"x_min":87,"x_max":608,"o":"m 608 0 l 434 0 l 434 260 l 260 260 l 260 0 l 87 0 l 87 608 l 260 608 l 260 347 l 434 347 l 434 608 l 608 608 l 608 0 z "},"ʝ":{"ha":694,"x_min":87,"x_max":694,"o":"m 608 -87 l 521 -87 l 521 -174 l 434 -174 l 434 -260 l 174 -260 l 174 -174 l 87 -174 l 87 0 l 174 0 l 174 87 l 347 87 l 347 521 l 174 521 l 174 608 l 521 608 l 521 0 l 608 0 l 608 -87 l 694 -87 l 694 -174 l 608 -174 l 608 -87 m 347 694 l 347 868 l 521 868 l 521 694 l 347 694 m 347 -174 l 347 0 l 260 0 l 260 -174 l 347 -174 z "},"ʞ":{"ha":694,"x_min":87,"x_max":608,"o":"m 87 608 l 260 608 l 260 434 l 347 434 l 347 347 l 434 347 l 434 608 l 608 608 l 608 -260 l 434 -260 l 434 260 l 347 260 l 347 174 l 260 174 l 260 0 l 87 0 l 87 174 l 174 174 l 174 260 l 260 260 l 260 347 l 174 347 l 174 434 l 87 434 l 87 608 z "},"ʟ":{"ha":694,"x_min":87,"x_max":608,"o":"m 608 0 l 87 0 l 87 608 l 260 608 l 260 87 l 608 87 l 608 0 z "},"ʠ":{"ha":694,"x_min":87,"x_max":781,"o":"m 521 868 l 781 868 l 781 781 l 608 781 l 608 -260 l 434 -260 l 434 0 l 174 0 l 174 87 l 87 87 l 87 521 l 174 521 l 174 608 l 434 608 l 434 781 l 521 781 l 521 868 m 434 521 l 260 521 l 260 87 l 434 87 l 434 521 z "},"ʡ":{"ha":694,"x_min":87,"x_max":608,"o":"m 87 260 l 260 260 l 260 347 l 347 347 l 347 434 l 434 434 l 434 694 l 260 694 l 260 608 l 87 608 l 87 694 l 174 694 l 174 781 l 521 781 l 521 694 l 608 694 l 608 434 l 521 434 l 521 347 l 434 347 l 434 260 l 608 260 l 608 174 l 434 174 l 434 0 l 260 0 l 260 174 l 87 174 l 87 260 z "},"ʢ":{"ha":694,"x_min":87,"x_max":608,"o":"m 608 174 l 434 174 l 434 0 l 260 0 l 260 174 l 87 174 l 87 260 l 260 260 l 260 347 l 174 347 l 174 434 l 87 434 l 87 694 l 174 694 l 174 781 l 521 781 l 521 694 l 608 694 l 608 608 l 434 608 l 434 694 l 260 694 l 260 434 l 347 434 l 347 347 l 434 347 l 434 260 l 608 260 l 608 174 z "},"ʣ":{"ha":694,"x_min":0,"x_max":694,"o":"m 87 0 l 87 87 l 0 87 l 0 521 l 87 521 l 87 608 l 260 608 l 260 781 l 434 781 l 434 608 l 694 608 l 694 347 l 608 347 l 608 260 l 521 260 l 521 87 l 694 87 l 694 0 l 87 0 m 260 521 l 174 521 l 174 87 l 260 87 l 260 521 m 434 521 l 434 347 l 521 347 l 521 521 l 434 521 z "},"ʤ":{"ha":694,"x_min":0,"x_max":694,"o":"m 87 0 l 87 87 l 0 87 l 0 521 l 87 521 l 87 608 l 260 608 l 260 781 l 434 781 l 434 608 l 694 608 l 694 347 l 608 347 l 608 174 l 694 174 l 694 -174 l 608 -174 l 608 -260 l 347 -260 l 347 -174 l 260 -174 l 260 -87 l 434 -87 l 434 -174 l 521 -174 l 521 174 l 434 174 l 434 0 l 87 0 m 260 521 l 174 521 l 174 87 l 260 87 l 260 521 m 434 521 l 434 347 l 521 347 l 521 521 l 434 521 z "},"ʥ":{"ha":694,"x_min":0,"x_max":694,"o":"m 521 -87 l 434 -87 l 434 0 l 87 0 l 87 87 l 0 87 l 0 521 l 87 521 l 87 608 l 260 608 l 260 781 l 434 781 l 434 608 l 694 608 l 694 347 l 608 347 l 608 260 l 694 260 l 694 0 l 521 0 l 521 -87 m 260 521 l 174 521 l 174 87 l 260 87 l 260 521 m 434 521 l 434 347 l 521 347 l 521 521 l 434 521 m 608 174 l 521 174 l 521 87 l 608 87 l 608 174 z "},"ʦ":{"ha":694,"x_min":87,"x_max":694,"o":"m 694 87 l 608 87 l 608 0 l 260 0 l 260 87 l 174 87 l 174 521 l 87 521 l 87 608 l 174 608 l 174 781 l 347 781 l 347 608 l 694 608 l 694 521 l 521 521 l 521 347 l 608 347 l 608 260 l 694 260 l 694 87 m 521 87 l 521 260 l 434 260 l 434 347 l 347 347 l 347 87 l 521 87 z "},"ʧ":{"ha":694,"x_min":87,"x_max":781,"o":"m 781 781 l 608 781 l 608 -87 l 521 -87 l 521 -174 l 260 -174 l 260 -87 l 434 -87 l 434 0 l 260 0 l 260 87 l 174 87 l 174 521 l 87 521 l 87 608 l 174 608 l 174 781 l 347 781 l 347 608 l 434 608 l 434 781 l 521 781 l 521 868 l 781 868 l 781 781 m 347 87 l 434 87 l 434 521 l 347 521 l 347 87 z "},"ʨ":{"ha":694,"x_min":0,"x_max":694,"o":"m 521 521 l 521 347 l 608 347 l 608 260 l 694 260 l 694 87 l 608 87 l 608 260 l 521 260 l 521 87 l 608 87 l 608 0 l 434 0 l 434 87 l 347 87 l 347 0 l 174 0 l 174 87 l 87 87 l 87 521 l 0 521 l 0 608 l 87 608 l 87 781 l 260 781 l 260 608 l 347 608 l 347 521 l 434 521 l 434 608 l 608 608 l 608 521 l 694 521 l 694 434 l 608 434 l 608 521 l 521 521 m 260 174 l 260 521 l 347 521 l 347 174 l 260 174 z "},"ʩ":{"ha":694,"x_min":0,"x_max":694,"o":"m 694 -174 l 608 -174 l 608 -260 l 347 -260 l 347 -174 l 521 -174 l 521 434 l 434 434 l 434 0 l 347 0 l 347 434 l 260 434 l 260 0 l 87 0 l 87 434 l 0 434 l 0 521 l 87 521 l 87 694 l 174 694 l 174 781 l 521 781 l 521 694 l 260 694 l 260 521 l 608 521 l 608 434 l 694 434 l 694 -174 z "},"ʪ":{"ha":694,"x_min":87,"x_max":694,"o":"m 87 781 l 347 781 l 347 521 l 434 521 l 434 608 l 694 608 l 694 521 l 521 521 l 521 347 l 608 347 l 608 260 l 694 260 l 694 87 l 608 87 l 608 0 l 87 0 l 87 87 l 174 87 l 174 694 l 87 694 l 87 781 m 347 347 l 347 87 l 521 87 l 521 260 l 434 260 l 434 347 l 347 347 z "},"ʫ":{"ha":694,"x_min":87,"x_max":694,"o":"m 521 260 l 521 87 l 694 87 l 694 0 l 87 0 l 87 87 l 174 87 l 174 694 l 87 694 l 87 781 l 347 781 l 347 608 l 694 608 l 694 347 l 608 347 l 608 260 l 521 260 m 434 347 l 521 347 l 521 521 l 347 521 l 347 260 l 434 260 l 434 347 z "},"ʬ":{"ha":694,"x_min":87,"x_max":694,"o":"m 694 608 l 608 608 l 608 434 l 434 434 l 434 521 l 347 521 l 347 434 l 174 434 l 174 608 l 87 608 l 87 781 l 260 781 l 260 608 l 347 608 l 347 781 l 434 781 l 434 608 l 521 608 l 521 781 l 694 781 l 694 608 m 694 174 l 608 174 l 608 0 l 434 0 l 434 87 l 347 87 l 347 0 l 174 0 l 174 174 l 87 174 l 87 347 l 260 347 l 260 174 l 347 174 l 347 347 l 434 347 l 434 174 l 521 174 l 521 347 l 694 347 l 694 174 z "},"ʭ":{"ha":694,"x_min":87,"x_max":608,"o":"m 608 347 l 521 347 l 521 434 l 174 434 l 174 347 l 87 347 l 87 608 l 608 608 l 608 347 m 608 -87 l 521 -87 l 521 0 l 174 0 l 174 -87 l 87 -87 l 87 174 l 608 174 l 608 -87 z "},"ʮ":{"ha":694,"x_min":-87,"x_max":608,"o":"m 260 608 l 260 87 l 434 87 l 434 608 l 608 608 l 608 -260 l 434 -260 l 434 0 l 174 0 l 174 87 l 87 87 l 87 608 l -87 608 l -87 694 l 174 694 l 174 608 l 260 608 z "},"ʯ":{"ha":694,"x_min":-87,"x_max":781,"o":"m 521 -174 l 434 -174 l 434 0 l 174 0 l 174 87 l 87 87 l 87 608 l -87 608 l -87 694 l 174 694 l 174 608 l 260 608 l 260 87 l 434 87 l 434 608 l 608 608 l 608 -174 l 781 -174 l 781 -260 l 521 -260 l 521 -174 z "},"ʰ":{"ha":694,"x_min":174,"x_max":608,"o":"m 608 434 l 434 434 l 434 781 l 347 781 l 347 434 l 174 434 l 174 1042 l 347 1042 l 347 868 l 521 868 l 521 781 l 608 781 l 608 434 z "},"ʱ":{"ha":694,"x_min":174,"x_max":608,"o":"m 608 434 l 434 434 l 434 694 l 347 694 l 347 434 l 174 434 l 174 955 l 260 955 l 260 1042 l 521 1042 l 521 955 l 608 955 l 608 868 l 434 868 l 434 955 l 347 955 l 347 781 l 521 781 l 521 694 l 608 694 l 608 434 z "},"ʲ":{"ha":694,"x_min":174,"x_max":521,"o":"m 434 347 l 434 260 l 174 260 l 174 347 l 347 347 l 347 694 l 260 694 l 260 781 l 521 781 l 521 347 l 434 347 m 347 868 l 347 1042 l 521 1042 l 521 868 l 347 868 z "},"ʳ":{"ha":694,"x_min":174,"x_max":608,"o":"m 434 694 l 347 694 l 347 434 l 174 434 l 174 868 l 347 868 l 347 781 l 434 781 l 434 694 m 608 781 l 434 781 l 434 868 l 608 868 l 608 781 z "},"ʴ":{"ha":694,"x_min":174,"x_max":608,"o":"m 608 434 l 434 434 l 434 521 l 347 521 l 347 608 l 434 608 l 434 868 l 608 868 l 608 434 m 347 434 l 174 434 l 174 521 l 347 521 l 347 434 z "},"ʵ":{"ha":694,"x_min":87,"x_max":608,"o":"m 608 260 l 434 260 l 434 347 l 347 347 l 347 521 l 260 521 l 260 608 l 347 608 l 347 868 l 521 868 l 521 347 l 608 347 l 608 260 m 260 434 l 87 434 l 87 521 l 260 521 l 260 434 z "},"ʶ":{"ha":694,"x_min":174,"x_max":608,"o":"m 608 521 l 521 521 l 521 434 l 174 434 l 174 868 l 347 868 l 347 694 l 434 694 l 434 868 l 608 868 l 608 694 l 521 694 l 521 608 l 608 608 l 608 521 m 434 521 l 434 608 l 347 608 l 347 521 l 434 521 z "},"ʷ":{"ha":694,"x_min":87,"x_max":694,"o":"m 694 608 l 608 608 l 608 434 l 434 434 l 434 608 l 347 608 l 347 781 l 434 781 l 434 608 l 521 608 l 521 868 l 694 868 l 694 608 m 347 434 l 174 434 l 174 608 l 87 608 l 87 868 l 260 868 l 260 608 l 347 608 l 347 434 z "},"ʸ":{"ha":694,"x_min":87,"x_max":608,"o":"m 608 521 l 521 521 l 521 434 l 434 434 l 434 347 l 347 347 l 347 260 l 87 260 l 87 347 l 260 347 l 260 521 l 174 521 l 174 868 l 347 868 l 347 521 l 434 521 l 434 868 l 608 868 l 608 521 z "},"ʹ":{"ha":694,"x_min":87,"x_max":521,"o":"m 347 781 l 347 694 l 174 694 l 174 781 l 260 781 l 260 868 l 347 868 l 347 955 l 521 955 l 521 781 l 347 781 m 87 608 l 87 694 l 174 694 l 174 608 l 87 608 z "},"ʺ":{"ha":694,"x_min":0,"x_max":694,"o":"m 260 781 l 260 694 l 87 694 l 87 781 l 174 781 l 174 868 l 260 868 l 260 955 l 434 955 l 434 781 l 260 781 m 0 608 l 0 694 l 87 694 l 87 608 l 0 608 m 521 694 l 521 608 l 347 608 l 347 694 l 434 694 l 434 781 l 521 781 l 521 868 l 694 868 l 694 694 l 521 694 m 260 521 l 260 608 l 347 608 l 347 521 l 260 521 z "},"ʻ":{"ha":694,"x_min":260,"x_max":521,"o":"m 521 694 l 260 694 l 260 955 l 347 955 l 347 1042 l 521 1042 l 521 955 l 434 955 l 434 868 l 521 868 l 521 694 z "},"ʼ":{"ha":694,"x_min":260,"x_max":521,"o":"m 521 781 l 434 781 l 434 694 l 260 694 l 260 781 l 347 781 l 347 868 l 260 868 l 260 1042 l 521 1042 l 521 781 z "},"ʽ":{"ha":694,"x_min":260,"x_max":521,"o":"m 260 1042 l 521 1042 l 521 868 l 434 868 l 434 781 l 521 781 l 521 694 l 347 694 l 347 781 l 260 781 l 260 1042 z "},"ʾ":{"ha":694,"x_min":260,"x_max":521,"o":"m 521 781 l 434 781 l 434 694 l 260 694 l 260 781 l 347 781 l 347 955 l 260 955 l 260 1042 l 434 1042 l 434 955 l 521 955 l 521 781 z "},"ʿ":{"ha":694,"x_min":174,"x_max":434,"o":"m 174 955 l 260 955 l 260 1042 l 434 1042 l 434 955 l 347 955 l 347 781 l 434 781 l 434 694 l 260 694 l 260 781 l 174 781 l 174 955 z "},"ˀ":{"ha":694,"x_min":174,"x_max":608,"o":"m 434 434 l 260 434 l 260 694 l 347 694 l 347 781 l 434 781 l 434 955 l 347 955 l 347 868 l 174 868 l 174 955 l 260 955 l 260 1042 l 521 1042 l 521 955 l 608 955 l 608 781 l 521 781 l 521 694 l 434 694 l 434 434 z "},"ˁ":{"ha":694,"x_min":174,"x_max":608,"o":"m 347 694 l 260 694 l 260 781 l 174 781 l 174 955 l 260 955 l 260 1042 l 521 1042 l 521 955 l 608 955 l 608 868 l 434 868 l 434 955 l 347 955 l 347 781 l 434 781 l 434 694 l 521 694 l 521 434 l 347 434 l 347 694 z "},"˂":{"ha":694,"x_min":174,"x_max":521,"o":"m 434 694 l 434 608 l 521 608 l 521 521 l 347 521 l 347 608 l 260 608 l 260 694 l 174 694 l 174 781 l 260 781 l 260 868 l 347 868 l 347 955 l 521 955 l 521 868 l 434 868 l 434 781 l 347 781 l 347 694 l 434 694 z "},"˃":{"ha":694,"x_min":174,"x_max":521,"o":"m 347 694 l 347 781 l 260 781 l 260 868 l 174 868 l 174 955 l 347 955 l 347 868 l 434 868 l 434 781 l 521 781 l 521 694 l 434 694 l 434 608 l 347 608 l 347 521 l 174 521 l 174 608 l 260 608 l 260 694 l 347 694 z "},"˄":{"ha":694,"x_min":87,"x_max":608,"o":"m 608 608 l 434 608 l 434 781 l 260 781 l 260 608 l 87 608 l 87 781 l 174 781 l 174 868 l 260 868 l 260 955 l 434 955 l 434 868 l 521 868 l 521 781 l 608 781 l 608 608 z "},"˅":{"ha":694,"x_min":87,"x_max":608,"o":"m 608 868 l 521 868 l 521 781 l 434 781 l 434 694 l 260 694 l 260 781 l 174 781 l 174 868 l 87 868 l 87 1042 l 260 1042 l 260 868 l 434 868 l 434 1042 l 608 1042 l 608 868 z "},"ˆ":{"ha":694,"x_min":87,"x_max":608,"o":"m 608 868 l 434 868 l 434 955 l 260 955 l 260 868 l 87 868 l 87 955 l 174 955 l 174 1042 l 521 1042 l 521 955 l 608 955 l 608 868 z "},"ˇ":{"ha":694,"x_min":174,"x_max":608,"o":"m 608 955 l 521 955 l 521 868 l 260 868 l 260 955 l 174 955 l 174 1042 l 347 1042 l 347 955 l 434 955 l 434 1042 l 608 1042 l 608 955 z "},"ˈ":{"ha":694,"x_min":260,"x_max":434,"o":"m 434 434 l 260 434 l 260 781 l 434 781 l 434 434 z "},"ˉ":{"ha":694,"x_min":87,"x_max":608,"o":"m 608 868 l 87 868 l 87 955 l 608 955 l 608 868 z "},"ˊ":{"ha":694,"x_min":174,"x_max":521,"o":"m 434 781 l 434 694 l 260 694 l 260 781 l 347 781 l 347 868 l 434 868 l 434 955 l 521 955 l 521 781 l 434 781 m 174 608 l 174 694 l 260 694 l 260 608 l 174 608 z "},"ˋ":{"ha":694,"x_min":174,"x_max":521,"o":"m 174 781 l 174 955 l 260 955 l 260 868 l 347 868 l 347 781 l 434 781 l 434 694 l 260 694 l 260 781 l 174 781 m 434 608 l 434 694 l 521 694 l 521 608 l 434 608 z "},"ˌ":{"ha":694,"x_min":260,"x_max":434,"o":"m 434 -174 l 260 -174 l 260 174 l 434 174 l 434 -174 z "},"ˍ":{"ha":694,"x_min":87,"x_max":608,"o":"m 87 -87 l 608 -87 l 608 -174 l 87 -174 l 87 -87 z "},"ˎ":{"ha":694,"x_min":174,"x_max":521,"o":"m 174 174 l 174 347 l 260 347 l 260 260 l 347 260 l 347 174 l 434 174 l 434 87 l 260 87 l 260 174 l 174 174 m 434 0 l 434 87 l 521 87 l 521 0 l 434 0 z "},"ˏ":{"ha":694,"x_min":174,"x_max":521,"o":"m 434 174 l 434 87 l 260 87 l 260 174 l 347 174 l 347 260 l 434 260 l 434 347 l 521 347 l 521 174 l 434 174 m 174 0 l 174 87 l 260 87 l 260 0 l 174 0 z "},"ː":{"ha":694,"x_min":260,"x_max":521,"o":"m 260 608 l 521 608 l 521 521 l 434 521 l 434 434 l 347 434 l 347 521 l 260 521 l 260 608 m 260 0 l 260 87 l 347 87 l 347 174 l 434 174 l 434 87 l 521 87 l 521 0 l 260 0 z "}}}
